<svg width="280" height="75" viewBox="0 0 280 75" fill="none" xmlns="http://www.w3.org/2000/svg">
<rect width="280" height="75" rx="37.5" fill="#0060FF"/>
<path d="M38.7625 50.9108H59.5569L58.5637 47.6952L60.9394 49.734L63.1167 51.6852L67.0833 55V23.6094C66.9842 21.6581 65.3042 20 63.2217 20L38.7698 20.0044C36.6887 20.0044 35 21.6654 35 23.6167V47.3C35 49.3577 36.6858 50.9108 38.7625 50.9108ZM54.145 28.2877L54.0969 28.3052L54.1144 28.2877H54.145ZM43.0165 30.1383C45.6896 28.1929 48.1673 28.2863 48.1673 28.2863L48.3671 28.4831C45.096 29.2633 43.6129 30.7246 43.6129 30.7246C43.6129 30.7246 44.0096 30.5306 44.7023 30.2346C49.1079 28.5021 53.919 28.6275 58.3727 30.8208C58.3727 30.8208 56.8867 29.4544 53.8169 28.5794L54.0881 28.3125C54.5125 28.314 56.7583 28.3927 59.1617 30.15C59.1617 30.15 61.8508 34.7437 61.8508 40.3875C61.7619 40.2796 60.1825 42.8171 56.1181 42.9046C56.1181 42.9046 55.4298 42.1258 54.9398 41.4463C57.3169 40.7638 58.2065 39.3988 58.2065 39.3988C57.4262 39.8902 56.7146 40.1819 56.1371 40.4735C55.249 40.8644 54.3594 41.0569 53.4712 41.2538C49.2654 41.9363 46.9044 40.7944 44.6731 39.8888L43.9104 39.5008C43.9104 39.5008 44.7985 40.8658 47.0808 41.5483C46.4815 42.2323 45.8879 43.0096 45.8879 43.0096C41.825 42.9133 40.3433 40.3758 40.3433 40.3758C40.3433 34.7233 43.0165 30.1383 43.0165 30.1383Z" fill="white"/>
<path d="M54.4074 38.6247C55.4442 38.6247 56.2886 37.7497 56.2886 36.6705C56.2886 35.5986 55.4486 34.7236 54.4074 34.7236V34.728C53.3749 34.728 52.529 35.6001 52.5261 36.6793C52.5261 37.7497 53.3705 38.6247 54.4074 38.6247Z" fill="white"/>
<path d="M47.673 38.6247C48.7099 38.6247 49.5542 37.7497 49.5542 36.6705C49.5542 35.5986 48.7157 34.7236 47.6788 34.7236L47.673 34.728C46.6361 34.728 45.7917 35.6001 45.7917 36.6793C45.7917 37.7497 46.6361 38.6247 47.673 38.6247Z" fill="white"/>
<path d="M79.907 32.8182V39.858C79.902 40.7379 79.5142 41.2003 78.8082 41.2003C78.1321 41.2003 77.7195 40.7678 77.6946 39.9773H75.2436C75.2337 42.1697 76.7649 43.1392 78.669 43.1392C80.8267 43.1392 82.3281 41.8416 82.3331 39.858V32.8182H79.907ZM93.3481 37.9091C93.3481 34.5433 91.2203 32.679 88.4859 32.679C85.7416 32.679 83.6286 34.5433 83.6286 37.9091C83.6286 41.2599 85.7416 43.1392 88.4859 43.1392C91.2203 43.1392 93.3481 41.2749 93.3481 37.9091ZM90.8325 37.9091C90.8325 39.9027 89.9575 40.9815 88.4859 40.9815C87.0193 40.9815 86.1393 39.9027 86.1393 37.9091C86.1393 35.9155 87.0193 34.8366 88.4859 34.8366C89.9575 34.8366 90.8325 35.9155 90.8325 37.9091ZM97.1058 32.8182H94.6449V43H97.1058V32.8182ZM107.176 32.8182H104.72V38.6847H104.636L100.629 32.8182H98.5108V43H100.972V37.1236H101.036L105.088 43H107.176V32.8182ZM111.118 34.8168H114.211V43H116.637V34.8168H119.724V32.8182H111.118V34.8168ZM120.786 43H123.247V38.9084H127.259V43H129.715V32.8182H127.259V36.9048H123.247V32.8182H120.786V43ZM131.119 43H138.218V41.0014H133.58V38.9084H137.855V36.9048H133.58V34.8168H138.218V32.8182H131.119V43ZM151.729 36.5071C151.481 34.071 149.666 32.679 147.205 32.679C144.491 32.679 142.378 34.5433 142.378 37.9091C142.378 41.2599 144.441 43.1392 147.205 43.1392C149.999 43.1392 151.545 41.2401 151.729 39.4354L149.244 39.4205C149.07 40.3999 148.334 40.9815 147.255 40.9815C145.803 40.9815 144.888 39.9325 144.888 37.9091C144.888 35.9652 145.783 34.8366 147.27 34.8366C148.388 34.8366 149.119 35.4879 149.244 36.5071H151.729ZM162.608 37.9091C162.608 34.5433 160.48 32.679 157.745 32.679C155.001 32.679 152.888 34.5433 152.888 37.9091C152.888 41.2599 155.001 43.1392 157.745 43.1392C160.48 43.1392 162.608 41.2749 162.608 37.9091ZM160.092 37.9091C160.092 39.9027 159.217 40.9815 157.745 40.9815C156.279 40.9815 155.399 39.9027 155.399 37.9091C155.399 35.9155 156.279 34.8366 157.745 34.8366C159.217 34.8366 160.092 35.9155 160.092 37.9091ZM172.57 32.8182H170.114V38.6847H170.029L166.022 32.8182H163.904V43H166.365V37.1236H166.43L170.482 43H172.57V32.8182ZM176.289 32.8182H173.535L176.97 43H180.246L183.682 32.8182H180.928L178.651 40.2756H178.566L176.289 32.8182ZM184.638 43H191.738V41.0014H187.099V38.9084H191.375V36.9048H187.099V34.8168H191.738V32.8182H184.638V43ZM193.139 43H195.6V39.5149H196.862L198.722 43H201.406L199.294 39.1222C200.412 38.6151 201.058 37.6158 201.058 36.2088C201.058 34.1158 199.632 32.8182 197.345 32.8182H193.139V43ZM195.6 37.576V34.8018H196.813C197.916 34.8018 198.508 35.2642 198.508 36.2088C198.508 37.1534 197.916 37.576 196.813 37.576H195.6ZM207.772 35.8707H210.128C210.108 33.9666 208.592 32.679 206.226 32.679C203.899 32.679 202.224 33.9467 202.238 35.8409C202.233 37.3871 203.317 38.2571 205.077 38.6598L206.141 38.9084C207.26 39.1669 207.762 39.4702 207.772 40.0419C207.762 40.6634 207.18 41.0959 206.191 41.0959C205.102 41.0959 204.386 40.5888 204.331 39.6094H201.975C202.005 41.9908 203.66 43.1293 206.221 43.1293C208.756 43.1293 210.258 41.9808 210.268 40.0469C210.258 38.4212 209.159 37.4268 207.15 36.9844L206.275 36.7855C205.351 36.5866 204.764 36.2784 204.784 35.6719C204.789 35.1151 205.266 34.7124 206.221 34.7124C207.18 34.7124 207.707 35.1449 207.772 35.8707ZM213.258 43L213.93 40.8622H217.444L218.116 43H220.761L217.325 32.8182H214.049L210.614 43H213.258ZM214.516 38.9929L215.645 35.3835H215.724L216.858 38.9929H214.516ZM220.112 34.8168H223.205V43H225.631V34.8168H228.718V32.8182H220.112V34.8168ZM232.241 32.8182H229.78V43H232.241V32.8182ZM243.256 37.9091C243.256 34.5433 241.128 32.679 238.394 32.679C235.649 32.679 233.536 34.5433 233.536 37.9091C233.536 41.2599 235.649 43.1392 238.394 43.1392C241.128 43.1392 243.256 41.2749 243.256 37.9091ZM240.74 37.9091C240.74 39.9027 239.865 40.9815 238.394 40.9815C236.927 40.9815 236.047 39.9027 236.047 37.9091C236.047 35.9155 236.927 34.8366 238.394 34.8366C239.865 34.8366 240.74 35.9155 240.74 37.9091ZM253.218 32.8182H250.762V38.6847H250.678L246.671 32.8182H244.553V43H247.014V37.1236H247.078L251.13 43H253.218V32.8182Z" fill="white"/>
</svg>
