<svg width="233" height="43" viewBox="0 0 233 43" fill="none" xmlns="http://www.w3.org/2000/svg">
<path d="M23.1171 23.6661C23.4907 23.6334 23.704 23.9206 23.7571 24.5277C23.8089 25.1191 23.7664 26.158 23.6298 27.6444C23.5133 28.6427 22.5151 30.1416 20.6354 32.1412C18.3666 34.5355 15.8022 36.3284 12.942 37.5197C11.2166 38.2353 9.50554 38.6673 7.80889 38.8157C6.12781 38.9628 4.52486 38.3894 3.00004 37.0955C1.48942 35.7847 0.648996 34.1564 0.47877 32.2107C0.307182 30.2495 0.519286 28.1919 1.11508 26.038C1.72508 23.8672 2.60854 21.7745 3.76547 19.7597C4.93661 17.728 6.34803 15.7538 7.99975 13.8369C9.66704 11.9186 11.4248 10.2278 13.273 8.76423C15.1213 7.3007 17.086 6.09361 19.1673 5.14297C21.2487 4.19233 23.2544 3.63258 25.1845 3.46371C26.7099 3.33026 28.058 3.76912 29.2287 4.78031C29.8408 5.32278 30.1864 6.04541 30.2653 6.94821C30.343 7.83545 30.0059 9.00208 29.254 10.4481C28.5008 11.8786 27.574 13.2066 26.4735 14.4322C25.3886 15.6564 24.242 16.7135 23.0337 17.6034C21.841 18.492 20.8632 18.9697 20.1005 19.0364C19.3378 19.1031 18.6636 18.9268 18.078 18.5075C17.491 18.0727 17.1811 17.6684 17.1485 17.2949C17.1158 16.9213 17.1575 16.502 17.2737 16.037C17.4054 15.5706 17.5958 15.3265 17.8448 15.3047C17.7894 15.388 17.7651 15.4685 17.7719 15.5464C17.7882 15.7332 18.061 15.8034 18.5902 15.7571C19.135 15.7094 19.9963 15.1557 21.174 14.0959C22.3518 13.0361 23.3948 11.8704 24.303 10.5989C25.2269 9.32608 25.6629 8.39391 25.6111 7.80241C25.5757 7.39771 25.2856 7.21919 24.7408 7.26685C23.2777 7.39486 21.3141 8.25678 18.85 9.85261C16.4002 11.4315 14.0941 13.3978 11.9316 15.7515C9.76912 18.1052 7.94558 20.837 6.46099 23.947C4.99059 27.04 4.35821 29.7617 4.56385 32.1121C4.64964 33.0928 4.97524 33.8563 5.54066 34.4029C6.12163 34.9481 6.94913 35.1737 8.02315 35.0797C9.11274 34.9844 10.3697 34.5607 11.7939 33.8088C13.2182 33.0568 14.5523 32.1715 15.7964 31.1529C17.0561 30.133 18.2359 29.0966 19.3358 28.0436C20.4357 26.9906 21.3045 26.0754 21.9423 25.2981C22.5957 24.5195 22.9241 24.0594 22.9274 23.918C22.9293 23.7609 22.9926 23.677 23.1171 23.6661ZM40.1926 17.9608C40.6596 17.92 41.1527 18.0886 41.672 18.4666C42.2069 18.8433 42.5125 19.4675 42.5887 20.3392C42.6636 21.1953 42.4581 22.3426 41.9723 23.781C41.4851 25.2039 40.7749 26.6776 39.8417 28.2023C38.9072 29.7113 37.8569 31.1521 36.6908 32.5246C35.5389 33.8801 34.259 35.0273 32.8511 35.9661C31.4574 36.8879 30.1613 37.4013 28.9627 37.5061C27.7642 37.611 26.7665 37.3219 25.9695 36.6387C25.1868 35.9387 24.7368 34.9193 24.6197 33.5807C24.5012 32.2265 24.6974 30.7036 25.2081 29.012C25.7345 27.3191 26.4646 25.8043 27.3986 24.4679C28.3311 23.1158 29.3609 21.8886 30.4879 20.7862C32.8467 18.5251 34.9833 17.3108 36.8979 17.1433C37.754 17.0684 38.4184 17.222 38.891 17.6042C39.0589 17.7306 39.1476 17.8484 39.1571 17.9573L39.1694 18.0974C39.3846 18.0472 39.7257 18.0017 40.1926 17.9608ZM38.1061 21.2725L37.9427 21.2868C37.3979 21.3344 37.0908 20.9613 37.0213 20.1675C35.9177 20.6405 34.7841 21.3984 33.6206 22.4413C32.4571 23.4842 31.4408 24.6867 30.5719 26.0489C28.8028 28.7759 27.9797 31.0203 28.1024 32.7819C28.1787 33.6536 28.5359 34.0615 29.1741 34.0057C29.8123 33.9498 30.725 33.4465 31.9123 32.4956C33.0996 31.5448 34.2399 30.2373 35.3334 28.5732C36.4425 26.9077 37.2508 25.4802 37.7585 24.2908C38.2803 23.0845 38.5236 22.279 38.4882 21.8743C38.4514 21.454 38.324 21.2534 38.1061 21.2725ZM43.4192 35.7473L42.271 35.8007L41.8507 35.8375C41.691 35.8044 41.5194 35.7253 41.3359 35.6002C41.1369 35.4764 40.9879 35.3875 40.8891 35.3334C40.7902 35.2793 40.734 35.1745 40.7204 35.0188C40.7054 34.8476 40.7425 34.5542 40.8316 34.1386C43.2827 27.1954 45.7497 21.5997 48.2326 17.3515C48.5058 16.8885 48.9753 16.518 49.6411 16.2402C50.3211 15.9454 50.988 15.7694 51.6418 15.7122C52.0309 15.6782 52.252 15.9647 52.3051 16.5717C52.3201 16.743 52.2783 16.9819 52.1796 17.2885C52.0796 17.5796 51.8092 18.0738 51.3683 18.7711C50.9274 19.4685 50.4012 20.2674 49.7899 21.1678C49.1786 22.0683 48.8316 22.5849 48.7491 22.7176C50.6882 20.3207 52.4669 18.5103 54.0852 17.2865C55.7176 16.0458 56.9152 15.392 57.6779 15.3253C58.4562 15.2572 59.0674 15.4312 59.5116 15.8472C59.97 16.2462 60.2217 16.7026 60.2666 17.2163C60.3102 17.7143 60.308 18.138 60.2602 18.4873C60.2265 18.8196 60.1326 19.1807 59.9785 19.5706C59.8231 19.945 59.6869 20.2706 59.5699 20.5475C59.4672 20.8074 59.2785 21.1611 59.004 21.6086C58.7281 22.0406 58.5347 22.3398 58.4238 22.5064C58.3285 22.6716 58.1131 22.9884 57.7776 23.4569C57.4577 23.9241 57.2843 24.1824 57.2572 24.2318C57.6549 23.7578 58.2055 23.0587 58.9089 22.1346C59.6122 21.2104 60.2033 20.4371 60.6822 19.8149C61.1766 19.1913 61.7972 18.4861 62.5439 17.6993C63.2893 16.8969 63.9925 16.2394 64.6535 15.7267C66.242 14.5211 67.9001 13.8428 69.6279 13.6916C70.2194 13.6399 70.7338 13.7831 71.1712 14.1213C71.6086 14.4594 71.8504 14.8931 71.8967 15.4224C71.9417 15.936 71.4202 17.2364 70.3323 19.3235C69.2431 21.3951 68.1553 23.4822 67.0688 25.5849C65.9965 27.6707 65.4828 28.9704 65.5277 29.4841C65.5904 30.2001 65.7601 30.6166 66.037 30.7335C66.3125 30.8349 66.6357 30.8537 67.0065 30.7899C67.3774 30.726 67.8777 30.4392 68.5075 29.9292C69.1529 29.4179 69.7191 28.8978 70.2061 28.369C70.9942 27.5158 71.722 26.6914 72.3895 25.8958C72.5329 25.7421 72.698 25.6571 72.8848 25.6407C73.1806 25.6149 73.3793 25.8249 73.4811 26.2709C73.5828 26.7168 73.6548 27.1811 73.697 27.6636C73.7392 28.1461 73.7218 28.4849 73.6448 28.6798C73.2696 29.591 72.3667 30.7444 70.936 32.14C69.5054 33.5356 68.0818 34.2954 66.6653 34.4193C66.4941 34.4343 66.3689 34.4374 66.2897 34.4287C64.6728 34.4133 63.5218 34.0748 62.8365 33.4133C62.1654 32.7348 61.7863 31.8975 61.6992 30.9013C61.612 29.9051 61.8411 28.6695 62.3865 27.1945C62.9475 25.7181 63.5823 24.3686 64.2909 23.1459C64.9996 21.9232 65.6484 20.8234 66.2373 19.8465C66.8405 18.8527 67.1387 18.3168 67.1319 18.239C67.1251 18.1612 67.0594 18.1277 66.9349 18.1386C66.4523 18.1808 65.4464 19.053 63.9171 20.7553C61.3015 23.6662 59.0668 26.4497 57.2131 29.1058C56.7255 29.8072 55.5786 31.5779 53.7724 34.418C53.5661 34.7498 53.2062 34.9381 52.6925 34.983C52.1944 35.0266 51.6648 34.9789 51.1037 34.8397C50.5412 34.685 50.2463 34.452 50.2191 34.1407C50.2055 33.9851 51.2523 31.6976 53.3595 27.2784C55.4654 22.8436 56.502 20.4394 56.4693 20.0659C56.4352 19.6767 56.1847 19.5026 55.7178 19.5434C55.2664 19.5829 54.3846 20.3502 53.0724 21.8453C49.4638 25.9567 46.7405 29.9671 44.9024 33.8765C44.7814 34.1067 44.5389 34.473 44.1751 34.9754C43.8112 35.4777 43.5592 35.7351 43.4192 35.7473ZM72.5112 33.2021L71.363 33.2555L70.9427 33.2923C70.783 33.2592 70.6114 33.1801 70.4279 33.055C70.2289 32.9312 70.0799 32.8423 69.9811 32.7882C69.8822 32.7341 69.826 32.6292 69.8124 32.4736C69.7974 32.3024 69.8345 32.009 69.9236 31.5934C72.3747 24.6502 74.8417 19.0545 77.3246 14.8063C77.5978 14.3432 78.0673 13.9728 78.7331 13.695C79.4131 13.4002 80.08 13.2242 80.7338 13.167C81.1229 13.133 81.344 13.4195 81.3971 14.0265C81.4121 14.1978 81.3703 14.4367 81.2716 14.7433C81.1716 15.0344 80.9012 15.5286 80.4603 16.2259C80.0194 16.9233 79.4932 17.7222 78.8819 18.6226C78.2706 19.5231 77.9236 20.0396 77.8411 20.1723C79.7802 17.7755 81.5589 15.9651 83.1772 14.7413C84.8096 13.5006 86.0072 12.8468 86.7699 12.7801C87.5482 12.712 88.1594 12.8859 88.6036 13.3019C89.062 13.701 89.3137 14.1574 89.3586 14.671C89.4022 15.1691 89.4 15.5928 89.3522 15.9421C89.3185 16.2744 89.2246 16.6355 89.0705 17.0254C88.9151 17.3998 88.7789 17.7254 88.6619 18.0022C88.5592 18.2622 88.3705 18.6159 88.096 19.0634C87.8201 19.4954 87.6267 19.7946 87.5158 19.9612C87.4205 20.1263 87.2051 20.4432 86.8696 20.9117C86.5497 21.3789 86.3763 21.6372 86.3492 21.6866C86.7469 21.2126 87.2975 20.5135 88.0009 19.5893C88.7042 18.6651 89.2953 17.8919 89.7742 17.2697C90.2686 16.6461 90.8892 15.9409 91.6359 15.1541C92.3813 14.3517 93.0845 13.6941 93.7455 13.1815C95.334 11.9759 96.9921 11.2976 98.7199 11.1464C99.3113 11.0947 99.8258 11.2379 100.263 11.576C100.701 11.9142 100.942 12.3479 100.989 12.8771C101.034 13.3908 100.512 14.6912 99.4243 16.7783C98.3351 18.8499 97.2473 20.937 96.1608 23.0397C95.0885 25.1255 94.5748 26.4252 94.6197 26.9389C94.6824 27.6549 94.8521 28.0714 95.129 28.1883C95.4045 28.2897 95.7277 28.3085 96.0985 28.2446C96.4694 28.1808 96.9697 27.8939 97.5995 27.384C98.2449 26.8727 98.8111 26.3526 99.2981 25.8237C100.086 24.9706 100.814 24.1462 101.482 23.3506C101.625 23.1969 101.79 23.1119 101.977 23.0955C102.273 23.0697 102.471 23.2797 102.573 23.7256C102.675 24.1716 102.747 24.6358 102.789 25.1184C102.831 25.6009 102.814 25.9397 102.737 26.1346C102.362 27.0458 101.459 28.1992 100.028 29.5948C98.5973 30.9904 97.1738 31.7502 95.7573 31.8741C95.5861 31.8891 95.4609 31.8922 95.3817 31.8835C93.7648 31.8681 92.6138 31.5296 91.9285 30.8681C91.2574 30.1896 90.8783 29.3523 90.7912 28.3561C90.704 27.3599 90.9331 26.1243 91.4785 24.6492C92.0395 23.1729 92.6743 21.8233 93.3829 20.6007C94.0916 19.378 94.7404 18.2782 95.3293 17.3013C95.9325 16.3074 96.2307 15.7716 96.2239 15.6938C96.2171 15.6159 96.1514 15.5825 96.0269 15.5934C95.5443 15.6356 94.5384 16.5078 93.0091 18.2101C90.3935 21.121 88.1588 23.9045 86.3051 26.5605C85.8175 27.2619 84.6706 29.0327 82.8644 31.8728C82.6581 32.2045 82.2982 32.3929 81.7845 32.4378C81.2864 32.4814 80.7568 32.4336 80.1957 32.2945C79.6332 32.1398 79.3383 31.9068 79.3111 31.5955C79.2975 31.4399 80.3443 29.1524 82.4515 24.7332C84.5574 20.2984 85.594 17.8942 85.5613 17.5206C85.5272 17.1315 85.2767 16.9574 84.8098 16.9982C84.3584 17.0377 83.4766 17.805 82.1644 19.3C78.5558 23.4114 75.8325 27.4219 73.9944 31.3313C73.8734 31.5615 73.6309 31.9278 73.2671 32.4301C72.9032 32.9325 72.6512 33.1898 72.5112 33.2021ZM114.548 3.55052C114.625 4.43776 114.291 5.36887 113.545 6.34384C112.798 7.30326 111.973 7.82245 111.07 7.90144C110.183 7.97906 109.698 7.55091 109.617 6.61697C109.535 5.68304 109.846 4.76176 110.551 3.85313C111.27 2.92757 112.104 2.42326 113.054 2.34019C113.474 2.30342 113.819 2.39088 114.088 2.60258C114.358 2.81427 114.511 3.13025 114.548 3.55052ZM112.549 24.2645C112.589 24.7315 112.572 25.0702 112.496 25.2808C111.87 26.904 110.766 28.2711 109.185 29.3818C107.602 30.4771 106.196 31.0785 104.967 31.186C103.737 31.2936 102.643 30.9737 101.683 30.2264C100.724 29.479 100.207 28.6773 100.132 27.8212C100.057 26.9651 100.376 25.6824 101.089 23.9731C101.802 22.2638 102.526 20.6791 103.261 19.2189C103.996 17.7586 104.359 16.974 104.349 16.8651C104.338 16.7405 104.154 16.5214 103.797 16.2075C103.456 15.8923 103.279 15.6569 103.265 15.5012C103.25 15.33 103.532 14.874 104.11 14.1333C104.703 13.3757 105.429 12.622 106.288 11.8723C107.163 11.1058 107.841 10.7013 108.323 10.6591C108.821 10.6156 109.284 10.7947 109.711 11.1965C110.139 11.5982 110.368 11.9781 110.399 12.3361C110.431 12.6942 108.873 16.2262 105.727 22.9321C105.688 23.0296 105.574 23.2513 105.385 23.5973C105.21 23.9263 105.07 24.2052 104.964 24.434C104.873 24.6459 104.762 24.9065 104.633 25.2159C104.376 25.8657 104.266 26.4008 104.303 26.8211C104.349 27.3503 104.73 27.5836 105.446 27.5209C106.162 27.4583 106.88 27.1523 107.601 26.6031C108.335 26.0369 108.957 25.4335 109.466 24.793C110.791 23.0929 111.555 22.234 111.758 22.2163C112.162 22.1809 112.426 22.8636 112.549 24.2645ZM123.177 25.0051C123.237 25.69 123.734 25.9915 124.668 25.9098C125.166 25.8663 125.767 25.5627 126.47 24.9993C127.189 24.4344 127.827 23.8297 128.382 23.1851C129.861 21.4403 130.709 20.5583 130.927 20.5392C131.331 20.5038 131.585 21.0698 131.687 22.2372C131.789 23.4046 131.493 24.2383 130.8 24.7381C128.75 26.9408 127.137 28.3132 125.961 28.8552C125.296 29.1486 124.551 29.3236 123.725 29.3803C122.898 29.4369 122.05 29.1504 121.179 28.5207C120.308 27.8911 119.829 27.0782 119.742 26.082C119.654 25.0702 119.818 23.903 120.236 22.5803C120.653 21.2576 121.095 20.1211 121.561 19.1706C122.041 18.2032 122.633 17.0848 123.338 15.8155C124.041 14.5306 124.403 13.7382 124.424 13.4383L124.373 13.3957C123.863 13.4874 122.675 14.6108 120.809 16.766C118.959 18.9199 117.436 20.7863 116.241 22.3652C115.046 23.9441 113.637 26.0358 112.014 28.6403C111.559 29.3545 111.168 29.726 110.841 29.7546C110.514 29.7832 110.069 29.7201 109.507 29.5654C108.927 29.3965 108.571 29.2708 108.439 29.1883C108.306 29.1058 108.231 28.9712 108.215 28.7844C108.199 28.5976 108.234 28.3672 108.319 28.093C108.404 27.8033 108.493 27.5681 108.587 27.3873C108.664 27.1924 108.803 26.8979 109.004 26.5039C109.205 26.1099 109.595 25.2836 110.175 24.0252C110.769 22.7498 111.677 20.8509 112.9 18.3285C114.122 15.8061 114.852 14.2836 115.088 13.761C115.59 12.682 116.007 11.8926 116.34 11.3929C116.962 10.4444 118.107 9.89731 119.772 9.7516C120.146 9.71891 120.353 9.93606 120.394 10.403C120.458 11.1346 119.901 12.5714 118.724 14.7134L117.872 16.2701C120.303 13.0459 122.411 10.9559 124.193 10C125.062 9.53189 125.855 9.26651 126.571 9.20386C127.302 9.13986 127.895 9.28404 128.349 9.63641C128.819 9.98742 129.075 10.4042 129.118 10.8867C129.158 11.3537 129.045 11.9361 128.776 12.634C128.507 13.3164 128.224 13.9372 127.928 14.4964C127.646 15.0386 127.267 15.7305 126.792 16.572C126.316 17.4135 126.059 17.8752 126.019 17.9571C125.978 18.0235 125.869 18.2212 125.694 18.5502C125.533 18.8623 125.412 19.0924 125.331 19.2407C125.25 19.389 125.116 19.6516 124.93 20.0287C124.742 20.3902 124.588 20.6938 124.468 20.9396C124.364 21.1839 124.226 21.4862 124.054 21.8464C123.897 22.2051 123.767 22.5145 123.664 22.7744C123.577 23.033 123.484 23.3156 123.385 23.6223C123.215 24.1861 123.146 24.6471 123.177 25.0051ZM135.887 11.8943C137.306 10.7193 138.715 9.78829 140.113 9.10128C141.512 8.41428 142.74 8.02447 143.799 7.93187C144.857 7.83927 145.561 8.08355 145.91 8.66474C146.455 7.91118 147.178 7.47156 148.076 7.34587C148.34 7.30716 148.666 7.27078 149.055 7.23673C149.444 7.20269 149.69 7.23606 149.793 7.33685C149.895 7.42207 149.997 7.60137 150.099 7.87474C150.201 8.14811 150.262 8.29968 150.28 8.32945C150.298 8.35922 150.311 8.41301 150.318 8.49084C150.323 8.5531 150.292 8.64212 150.223 8.75789C150.154 8.85809 150.068 8.95965 149.968 9.06258C149.882 9.16414 149.833 9.22339 149.818 9.24032C146.81 14.4756 143.785 20.4103 140.742 27.0445C144.159 23.436 147.268 20.7878 150.069 19.0997C150.248 18.99 150.423 18.9276 150.594 18.9126C150.843 18.8909 151.021 19.04 151.127 19.3601C151.232 19.6646 151.311 20.1126 151.363 20.7041C151.414 21.2955 151.407 21.6647 151.342 21.8116C151.292 21.9572 150.958 22.2687 150.341 22.7461C149.724 23.2236 148.924 23.8426 147.939 24.6032C146.955 25.3637 145.915 26.1998 144.818 27.1113C142.186 29.3022 140.062 31.5506 138.444 33.8566C136.356 36.8782 134.881 39.2972 134.021 41.1135C133.706 41.8155 133.105 42.2053 132.217 42.2829C130.458 42.4368 129.506 41.681 129.36 40.0155C129.212 38.3188 129.893 36.5104 131.403 34.5902C132.533 33.1582 133.582 31.9763 134.551 31.0445C135.521 30.1127 136.047 29.5883 136.131 29.4712C137.132 27.6426 138.482 25.0542 140.181 21.7059C138.654 23.6118 137.142 25.1557 135.645 26.3375C134.164 27.518 133.035 28.1422 132.257 28.2103C129.875 28.4187 128.595 27.5033 128.417 25.4642C128.275 23.8454 128.545 22.1749 129.225 20.4528C129.906 18.7307 130.836 17.1671 132.014 15.7622C133.192 14.3416 134.483 13.0523 135.887 11.8943ZM144.73 10.5089C142.958 11.0561 141.318 11.8505 139.81 12.8922C138.3 13.9183 137.076 14.99 136.138 16.1072C135.2 17.2088 134.404 18.3293 133.75 19.4687C132.525 21.5992 131.961 23.2171 132.058 24.3222C132.081 24.5869 132.155 24.7137 132.279 24.7028C132.419 24.6906 132.703 24.5246 133.13 24.2049C133.572 23.8839 134.184 23.3519 134.966 22.6091C135.747 21.8507 136.61 20.9595 137.556 19.9357C139.745 17.5326 142.137 14.3904 144.73 10.5089ZM162.121 20.5156L162.131 20.8913C162.165 21.2804 162.342 21.6021 162.662 21.8564C162.983 22.1107 163.267 22.227 163.516 22.2052C165.384 22.0418 167.01 21.6172 168.393 20.9316C169.791 20.2446 170.466 19.6209 170.417 19.0605C170.394 18.7959 170.109 18.5934 169.564 18.4529C169.032 18.2955 168.132 18.1312 166.862 17.9599C165.607 17.7718 164.692 17.6244 164.118 17.5177C163.542 17.3955 163.085 17.2787 162.746 17.1672C162.407 17.0557 162.055 16.8904 161.691 16.6713C160.914 16.2217 160.482 15.491 160.393 14.4792C160.304 13.4519 160.589 12.4074 161.249 11.3459C161.923 10.2674 162.797 9.32043 163.87 8.505C164.944 7.68958 166.111 6.95227 167.371 6.29308C169.861 4.993 171.985 4.26602 173.744 4.11213C175.472 3.96097 176.571 4.24126 177.041 4.953C177.188 5.20672 177.276 5.49702 177.305 5.82389L177.319 5.98733C177.391 6.81231 177.269 7.47394 176.952 7.97223C176.65 8.46915 176.134 8.93777 175.404 9.37807C174.69 9.81701 174.107 10.0562 173.656 10.0957C173.22 10.1338 172.937 10.1272 172.807 10.0759C172.693 10.0231 172.592 9.95347 172.506 9.86689C172.419 9.76474 172.311 9.69576 172.182 9.65996C172.069 9.6228 172.005 9.51082 171.988 9.32404C171.972 9.13725 172.033 8.94365 172.173 8.74325C172.311 8.52728 172.401 8.30761 172.444 8.08425C171.421 8.22082 170.368 8.55605 169.286 9.08994C168.202 9.60826 167.278 10.1674 166.515 10.7675C165.768 11.3662 165.15 11.9299 164.663 12.4588C164.176 12.9876 163.943 13.3687 163.963 13.6022C163.982 13.8201 164.356 13.9678 165.084 14.0453C168.362 14.4016 170.528 14.7689 171.58 15.1474C172.633 15.5258 173.38 15.9938 173.82 16.5512C174.261 17.1087 174.503 17.6287 174.545 18.1112C174.632 19.1074 174.318 20.0838 173.602 21.0405C172.885 21.9972 171.968 22.8068 170.85 23.4693C168.451 24.9182 166.318 25.7244 164.45 25.8878C162.598 26.0499 161.288 25.8743 160.522 25.361C159.773 24.8619 159.364 24.2232 159.296 23.4449C159.228 22.6667 159.36 21.9336 159.691 21.2458C160.038 20.5411 160.522 20.1615 161.145 20.107C161.767 20.0526 162.093 20.1888 162.121 20.5156ZM191.863 4.69137C192.33 4.65052 192.823 4.81912 193.343 5.19717C193.878 5.57387 194.183 6.19805 194.259 7.06972C194.334 7.92582 194.129 9.0731 193.643 10.5115C193.156 11.9344 192.446 13.4082 191.512 14.9328C190.578 16.4419 189.528 17.8826 188.361 19.2551C187.21 20.6107 185.93 21.7578 184.522 22.6966C183.128 23.6185 181.832 24.1318 180.633 24.2367C179.435 24.3415 178.437 24.0524 177.64 23.3693C176.857 22.6692 176.407 21.6498 176.29 20.3112C176.172 18.957 176.368 17.4341 176.879 15.7425C177.405 14.0496 178.135 12.5349 179.069 11.1984C180.002 9.84635 181.032 8.61912 182.159 7.5167C184.517 5.25564 186.654 4.04136 188.569 3.87386C189.425 3.79896 190.089 3.95258 190.562 4.33471C190.73 4.46119 190.818 4.5789 190.828 4.68786L190.84 4.82795C191.055 4.77775 191.396 4.73223 191.863 4.69137ZM189.777 8.00301L189.613 8.01731C189.069 8.06498 188.761 7.69189 188.692 6.89804C187.588 7.37103 186.455 8.12896 185.291 9.17184C184.128 10.2147 183.111 11.4172 182.243 12.7794C180.473 15.5065 179.65 17.7508 179.773 19.5124C179.849 20.3841 180.207 20.792 180.845 20.7362C181.483 20.6804 182.396 20.177 183.583 19.2262C184.77 18.2753 185.911 16.9678 187.004 15.3037C188.113 13.6382 188.921 12.2108 189.429 11.0214C189.951 9.81504 190.194 9.00952 190.159 8.60482C190.122 8.18455 189.995 7.98395 189.777 8.00301ZM209.375 3.15934C209.841 3.11849 210.335 3.28709 210.854 3.66514C211.389 4.04183 211.694 4.66601 211.771 5.53768C211.845 6.39379 211.64 7.54106 211.154 8.97951C210.667 10.4024 209.957 11.8761 209.024 13.4008C208.089 14.9098 207.039 16.3506 205.873 17.7231C204.721 19.0786 203.441 20.2258 202.033 21.1646C200.639 22.0864 199.343 22.5998 198.145 22.7047C196.946 22.8095 195.948 22.5204 195.151 21.8372C194.369 21.1372 193.919 20.1178 193.802 18.7792C193.683 17.425 193.879 15.9021 194.39 14.2105C194.916 12.5176 195.646 11.0028 196.58 9.66636C197.513 8.31431 198.543 7.08708 199.67 5.98467C202.029 3.7236 204.165 2.50932 206.08 2.34182C206.936 2.26692 207.6 2.42054 208.073 2.80268C208.241 2.92915 208.329 3.04687 208.339 3.15583L208.351 3.29592C208.566 3.24572 208.908 3.20019 209.375 3.15934ZM207.288 6.47098L207.125 6.48528C206.58 6.53294 206.273 6.15985 206.203 5.36601C205.1 5.83899 203.966 6.59693 202.802 7.6398C201.639 8.68268 200.623 9.8852 199.754 11.2474C197.985 13.9744 197.162 16.2188 197.284 17.9804C197.361 18.8521 197.718 19.26 198.356 19.2042C198.994 19.1483 199.907 18.645 201.094 17.6941C202.281 16.7433 203.422 15.4358 204.515 13.7717C205.624 12.1062 206.433 10.6787 206.94 9.48933C207.462 8.283 207.705 7.47749 207.67 7.07279C207.633 6.65252 207.506 6.45191 207.288 6.47098ZM224.462 16.1438C224.522 16.8287 225.019 17.1303 225.953 17.0485C226.451 17.005 227.052 16.7015 227.755 16.138C228.474 15.5732 229.112 14.9684 229.667 14.3238C231.146 12.579 231.994 11.697 232.212 11.6779C232.616 11.6425 232.87 12.2085 232.972 13.3759C233.074 14.5434 232.778 15.377 232.085 15.8768C230.035 18.0795 228.422 19.4519 227.246 19.994C226.581 20.2874 225.836 20.4624 225.009 20.519C224.183 20.5756 223.335 20.2891 222.464 19.6594C221.593 19.0298 221.114 18.2169 221.027 17.2207C220.939 16.2089 221.103 15.0417 221.521 13.719C221.938 12.3964 222.38 11.2598 222.846 10.3093C223.326 9.34193 223.918 8.22355 224.623 6.95419C225.326 5.66927 225.688 4.87689 225.709 4.57706L225.658 4.53445C225.148 4.62608 223.96 5.74951 222.094 7.90473C220.244 10.0586 218.721 11.925 217.526 13.5039C216.331 15.0828 214.922 17.1745 213.299 19.779C212.844 20.4932 212.453 20.8647 212.126 20.8933C211.799 20.9219 211.354 20.8588 210.792 20.7041C210.212 20.5352 209.856 20.4095 209.724 20.3271C209.591 20.2446 209.516 20.1099 209.5 19.9231C209.484 19.7363 209.518 19.5059 209.604 19.2317C209.689 18.942 209.778 18.7068 209.872 18.526C209.949 18.3311 210.088 18.0366 210.289 17.6426C210.49 17.2486 210.88 16.4224 211.46 15.1639C212.054 13.8885 212.962 11.9896 214.185 9.46723C215.407 6.94485 216.137 5.42235 216.373 4.89974C216.875 3.82067 217.292 3.03131 217.625 2.53166C218.247 1.58314 219.392 1.03602 221.057 0.890309C221.431 0.857626 221.638 1.07477 221.679 1.54173C221.743 2.27331 221.186 3.7101 220.009 5.8521L219.157 7.40884C221.588 4.18466 223.696 2.09462 225.478 1.13873C226.347 0.670603 227.14 0.40522 227.856 0.342577C228.587 0.278572 229.18 0.422754 229.634 0.775124C230.104 1.12613 230.36 1.5429 230.403 2.02543C230.443 2.4924 230.33 3.07484 230.061 3.77276C229.792 4.45511 229.509 5.07588 229.213 5.63507C228.931 6.17733 228.552 6.86921 228.077 7.71072C227.601 8.55222 227.344 9.01393 227.304 9.09584C227.263 9.16219 227.154 9.35987 226.979 9.68889C226.818 10.001 226.697 10.2311 226.616 10.3794C226.535 10.5277 226.401 10.7903 226.215 11.1674C226.027 11.5289 225.873 11.8325 225.753 12.0783C225.649 12.3227 225.511 12.6249 225.338 12.9851C225.182 13.3438 225.052 13.6532 224.949 13.9132C224.862 14.1717 224.769 14.4543 224.67 14.761C224.5 15.3248 224.431 15.7858 224.462 16.1438Z" fill="#FF8AE2"/>
</svg>
