<svg width="233" height="43" viewBox="0 0 233 43" fill="none" xmlns="http://www.w3.org/2000/svg">
<path d="M23.1171 23.371C23.4907 23.3383 23.704 23.6255 23.7571 24.2325C23.8089 24.824 23.7664 25.8629 23.6298 27.3492C23.5133 28.3476 22.5151 29.8465 20.6354 31.8461C18.3666 34.2404 15.8022 36.0333 12.942 37.2246C11.2166 37.9402 9.50554 38.3722 7.80889 38.5206C6.12781 38.6677 4.52486 38.0943 3.00004 36.8004C1.48942 35.4896 0.648996 33.8613 0.47877 31.9156C0.307182 29.9544 0.519286 27.8968 1.11508 25.7429C1.72508 23.5721 2.60854 21.4793 3.76547 19.4646C4.93661 17.4329 6.34803 15.4586 7.99975 13.5418C9.66704 11.6235 11.4248 9.93265 13.273 8.46912C15.1213 7.00559 17.086 5.79851 19.1673 4.84787C21.2487 3.89723 23.2544 3.33747 25.1845 3.16861C26.7099 3.03515 28.058 3.47402 29.2287 4.48521C29.8408 5.02767 30.1864 5.75031 30.2653 6.65311C30.343 7.54034 30.0059 8.70698 29.254 10.153C28.5008 11.5835 27.574 12.9115 26.4735 14.1371C25.3886 15.3613 24.242 16.4184 23.0337 17.3083C21.841 18.1969 20.8632 18.6745 20.1005 18.7413C19.3378 18.808 18.6636 18.6317 18.078 18.2124C17.491 17.7775 17.1811 17.3733 17.1485 16.9998C17.1158 16.6262 17.1575 16.2069 17.2737 15.7419C17.4054 15.2755 17.5958 15.0314 17.8448 15.0096C17.7894 15.0929 17.7651 15.1734 17.7719 15.2513C17.7882 15.4381 18.061 15.5083 18.5902 15.462C19.135 15.4143 19.9963 14.8606 21.174 13.8008C22.3518 12.741 23.3948 11.5753 24.303 10.3038C25.2269 9.03098 25.6629 8.0988 25.6111 7.50731C25.5757 7.10261 25.2856 6.92409 24.7408 6.97175C23.2777 7.09976 21.3141 7.96168 18.85 9.55751C16.4002 11.1364 14.0941 13.1027 11.9316 15.4564C9.76912 17.8101 7.94558 20.5419 6.46099 23.6519C4.99059 26.7449 4.35821 29.4666 4.56385 31.817C4.64964 32.7977 4.97524 33.5612 5.54066 34.1078C6.12163 34.653 6.94913 34.8786 8.02315 34.7846C9.11274 34.6893 10.3697 34.2656 11.7939 33.5136C13.2182 32.7617 14.5523 31.8764 15.7964 30.8578C17.0561 29.8379 18.2359 28.8015 19.3358 27.7485C20.4357 26.6955 21.3045 25.7803 21.9423 25.003C22.5957 24.2244 22.9241 23.7643 22.9274 23.6229C22.9293 23.4658 22.9926 23.3819 23.1171 23.371ZM40.1926 17.6657C40.6596 17.6249 41.1527 17.7935 41.672 18.1715C42.2069 18.5482 42.5125 19.1724 42.5887 20.0441C42.6636 20.9002 42.4581 22.0475 41.9723 23.4859C41.4851 24.9088 40.7749 26.3825 39.8417 27.9072C38.9072 29.4162 37.8569 30.857 36.6908 32.2295C35.5389 33.585 34.259 34.7322 32.8511 35.671C31.4574 36.5928 30.1613 37.1062 28.9627 37.211C27.7642 37.3159 26.7665 37.0268 25.9695 36.3436C25.1868 35.6436 24.7368 34.6242 24.6197 33.2856C24.5012 31.9314 24.6974 30.4085 25.2081 28.7169C25.7345 27.024 26.4646 25.5092 27.3986 24.1728C28.3311 22.8207 29.3609 21.5935 30.4879 20.4911C32.8467 18.23 34.9833 17.0157 36.8979 16.8482C37.754 16.7733 38.4184 16.9269 38.891 17.3091C39.0589 17.4355 39.1476 17.5533 39.1571 17.6622L39.1694 17.8023C39.3846 17.7521 39.7257 17.7066 40.1926 17.6657ZM38.1061 20.9774L37.9427 20.9917C37.3979 21.0393 37.0908 20.6662 37.0213 19.8724C35.9177 20.3454 34.7841 21.1033 33.6206 22.1462C32.4571 23.1891 31.4408 24.3916 30.5719 25.7538C28.8028 28.4808 27.9797 30.7252 28.1024 32.4868C28.1787 33.3585 28.5359 33.7664 29.1741 33.7106C29.8123 33.6547 30.725 33.1514 31.9123 32.2005C33.0996 31.2497 34.2399 29.9422 35.3334 28.2781C36.4425 26.6126 37.2508 25.1851 37.7585 23.9957C38.2803 22.7894 38.5236 21.9839 38.4882 21.5792C38.4514 21.1589 38.324 20.9583 38.1061 20.9774ZM43.4192 35.4522L42.271 35.5056L41.8507 35.5424C41.691 35.5093 41.5194 35.4302 41.3359 35.3051C41.1369 35.1813 40.9879 35.0924 40.8891 35.0383C40.7902 34.9842 40.734 34.8794 40.7204 34.7237C40.7054 34.5525 40.7425 34.2591 40.8316 33.8435C43.2827 26.9003 45.7497 21.3046 48.2326 17.0564C48.5058 16.5934 48.9753 16.2229 49.6411 15.9451C50.3211 15.6503 50.988 15.4743 51.6418 15.4171C52.0309 15.3831 52.252 15.6696 52.3051 16.2766C52.3201 16.4479 52.2783 16.6868 52.1796 16.9934C52.0796 17.2845 51.8092 17.7787 51.3683 18.476C50.9274 19.1734 50.4012 19.9723 49.7899 20.8727C49.1786 21.7732 48.8316 22.2898 48.7491 22.4225C50.6882 20.0256 52.4669 18.2152 54.0852 16.9914C55.7176 15.7507 56.9152 15.0969 57.6779 15.0302C58.4562 14.9621 59.0674 15.1361 59.5116 15.5521C59.97 15.9511 60.2217 16.4075 60.2666 16.9211C60.3102 17.4192 60.308 17.8429 60.2602 18.1922C60.2265 18.5245 60.1326 18.8856 59.9785 19.2755C59.8231 19.6499 59.6869 19.9755 59.5699 20.2524C59.4672 20.5123 59.2785 20.866 59.004 21.3135C58.7281 21.7455 58.5347 22.0447 58.4238 22.2113C58.3285 22.3765 58.1131 22.6933 57.7776 23.1618C57.4577 23.629 57.2843 23.8873 57.2572 23.9367C57.6549 23.4627 58.2055 22.7636 58.9089 21.8394C59.6122 20.9153 60.2033 20.142 60.6822 19.5198C61.1766 18.8962 61.7972 18.191 62.5439 17.4042C63.2893 16.6018 63.9925 15.9443 64.6535 15.4316C66.242 14.226 67.9001 13.5477 69.6279 13.3965C70.2194 13.3448 70.7338 13.488 71.1712 13.8262C71.6086 14.1643 71.8504 14.598 71.8967 15.1273C71.9417 15.6409 71.4202 16.9413 70.3323 19.0284C69.2431 21.1 68.1553 23.1871 67.0688 25.2898C65.9965 27.3756 65.4828 28.6753 65.5277 29.189C65.5904 29.905 65.7601 30.3215 66.037 30.4384C66.3125 30.5398 66.6357 30.5586 67.0065 30.4948C67.3774 30.4309 67.8777 30.1441 68.5075 29.6341C69.1529 29.1228 69.7191 28.6027 70.2061 28.0739C70.9942 27.2207 71.722 26.3963 72.3895 25.6007C72.5329 25.447 72.698 25.362 72.8848 25.3456C73.1806 25.3198 73.3793 25.5298 73.4811 25.9758C73.5828 26.4217 73.6548 26.886 73.697 27.3685C73.7392 27.851 73.7218 28.1898 73.6448 28.3847C73.2696 29.2959 72.3667 30.4493 70.936 31.8449C69.5054 33.2405 68.0818 34.0003 66.6653 34.1242C66.4941 34.1392 66.3689 34.1423 66.2897 34.1336C64.6728 34.1182 63.5218 33.7797 62.8365 33.1182C62.1654 32.4397 61.7863 31.6024 61.6992 30.6062C61.612 29.61 61.8411 28.3744 62.3865 26.8994C62.9475 25.423 63.5823 24.0734 64.2909 22.8508C64.9996 21.6281 65.6484 20.5283 66.2373 19.5514C66.8405 18.5575 67.1387 18.0217 67.1319 17.9439C67.1251 17.8661 67.0594 17.8326 66.9349 17.8435C66.4523 17.8857 65.4464 18.7579 63.9171 20.4602C61.3015 23.3711 59.0668 26.1546 57.2131 28.8106C56.7255 29.5121 55.5786 31.2828 53.7724 34.1229C53.5661 34.4547 53.2062 34.643 52.6925 34.6879C52.1944 34.7315 51.6648 34.6837 51.1037 34.5446C50.5412 34.3899 50.2463 34.1569 50.2191 33.8456C50.2055 33.69 51.2523 31.4025 53.3595 26.9833C55.4654 22.5485 56.502 20.1443 56.4693 19.7708C56.4352 19.3816 56.1847 19.2075 55.7178 19.2483C55.2664 19.2878 54.3846 20.0551 53.0724 21.5502C49.4638 25.6616 46.7405 29.672 44.9024 33.5814C44.7814 33.8116 44.5389 34.1779 44.1751 34.6803C43.8112 35.1826 43.5592 35.4399 43.4192 35.4522ZM72.5112 32.907L71.363 32.9604L70.9427 32.9971C70.783 32.9641 70.6114 32.885 70.4279 32.7599C70.2289 32.6361 70.0799 32.5472 69.9811 32.4931C69.8822 32.439 69.826 32.3341 69.8124 32.1785C69.7974 32.0073 69.8345 31.7139 69.9236 31.2983C72.3747 24.3551 74.8417 18.7594 77.3246 14.5112C77.5978 14.0481 78.0673 13.6777 78.7331 13.3998C79.4131 13.1051 80.08 12.9291 80.7338 12.8719C81.1229 12.8379 81.344 13.1244 81.3971 13.7314C81.4121 13.9026 81.3703 14.1416 81.2716 14.4482C81.1716 14.7393 80.9012 15.2335 80.4603 15.9308C80.0194 16.6282 79.4932 17.427 78.8819 18.3275C78.2706 19.228 77.9236 19.7445 77.8411 19.8772C79.7802 17.4804 81.5589 15.67 83.1772 14.4462C84.8096 13.2054 86.0072 12.5517 86.7699 12.485C87.5482 12.4169 88.1594 12.5908 88.6036 13.0068C89.062 13.4059 89.3137 13.8623 89.3586 14.3759C89.4022 14.874 89.4 15.2977 89.3522 15.6469C89.3185 15.9793 89.2246 16.3404 89.0705 16.7303C88.9151 17.1047 88.7789 17.4303 88.6619 17.7071C88.5592 17.9671 88.3705 18.3208 88.096 18.7683C87.8201 19.2003 87.6267 19.4995 87.5158 19.666C87.4205 19.8312 87.2051 20.1481 86.8696 20.6166C86.5497 21.0838 86.3763 21.3421 86.3492 21.3915C86.7469 20.9175 87.2975 20.2184 88.0009 19.2942C88.7042 18.37 89.2953 17.5968 89.7742 16.9746C90.2686 16.351 90.8892 15.6458 91.6359 14.859C92.3813 14.0566 93.0845 13.399 93.7455 12.8864C95.334 11.6808 96.9921 11.0025 98.7199 10.8513C99.3113 10.7996 99.8258 10.9428 100.263 11.2809C100.701 11.6191 100.942 12.0528 100.989 12.582C101.034 13.0957 100.512 14.3961 99.4243 16.4832C98.3351 18.5548 97.2473 20.6419 96.1608 22.7446C95.0885 24.8304 94.5748 26.1301 94.6197 26.6438C94.6824 27.3598 94.8521 27.7763 95.129 27.8932C95.4045 27.9946 95.7277 28.0133 96.0985 27.9495C96.4694 27.8857 96.9697 27.5988 97.5995 27.0889C98.2449 26.5776 98.8111 26.0575 99.2981 25.5286C100.086 24.6755 100.814 23.8511 101.482 23.0555C101.625 22.9018 101.79 22.8168 101.977 22.8004C102.273 22.7745 102.471 22.9846 102.573 23.4305C102.675 23.8765 102.747 24.3407 102.789 24.8233C102.831 25.3058 102.814 25.6445 102.737 25.8395C102.362 26.7507 101.459 27.9041 100.028 29.2997C98.5973 30.6953 97.1738 31.4551 95.7573 31.579C95.5861 31.594 95.4609 31.5971 95.3817 31.5884C93.7648 31.573 92.6138 31.2345 91.9285 30.573C91.2574 29.8945 90.8783 29.0572 90.7912 28.061C90.704 27.0648 90.9331 25.8292 91.4785 24.3541C92.0395 22.8778 92.6743 21.5282 93.3829 20.3056C94.0916 19.0829 94.7404 17.9831 95.3293 17.0062C95.9325 16.0123 96.2307 15.4765 96.2239 15.3987C96.2171 15.3208 96.1514 15.2874 96.0269 15.2983C95.5443 15.3405 94.5384 16.2127 93.0091 17.915C90.3935 20.8259 88.1588 23.6094 86.3051 26.2654C85.8175 26.9668 84.6706 28.7376 82.8644 31.5777C82.6581 31.9094 82.2982 32.0978 81.7845 32.1427C81.2864 32.1863 80.7568 32.1385 80.1957 31.9994C79.6332 31.8447 79.3383 31.6117 79.3111 31.3004C79.2975 31.1448 80.3443 28.8573 82.4515 24.4381C84.5574 20.0033 85.594 17.5991 85.5613 17.2255C85.5272 16.8364 85.2767 16.6623 84.8098 16.7031C84.3584 16.7426 83.4766 17.5099 82.1644 19.0049C78.5558 23.1163 75.8325 27.1268 73.9944 31.0362C73.8734 31.2664 73.6309 31.6327 73.2671 32.135C72.9032 32.6374 72.6512 32.8947 72.5112 32.907ZM114.548 3.25542C114.625 4.14266 114.291 5.07376 113.545 6.04874C112.798 7.00815 111.973 7.52735 111.07 7.60633C110.183 7.68396 109.698 7.2558 109.617 6.32187C109.535 5.38794 109.846 4.46666 110.551 3.55803C111.27 2.63247 112.104 2.12816 113.054 2.04509C113.474 2.00832 113.819 2.09578 114.088 2.30747C114.358 2.51917 114.511 2.83515 114.548 3.25542ZM112.549 23.9694C112.589 24.4364 112.572 24.7751 112.496 24.9857C111.87 26.6089 110.766 27.976 109.185 29.0867C107.602 30.182 106.196 30.7833 104.967 30.8909C103.737 30.9985 102.643 30.6786 101.683 29.9313C100.724 29.1839 100.207 28.3822 100.132 27.5261C100.057 26.67 100.376 25.3873 101.089 23.678C101.802 21.9687 102.526 20.384 103.261 18.9237C103.996 17.4635 104.359 16.6789 104.349 16.57C104.338 16.4454 104.154 16.2263 103.797 15.9124C103.456 15.5972 103.279 15.3618 103.265 15.2061C103.25 15.0349 103.532 14.5789 104.11 13.8382C104.703 13.0806 105.429 12.3269 106.288 11.5772C107.163 10.8106 107.841 10.4062 108.323 10.364C108.821 10.3205 109.284 10.4996 109.711 10.9013C110.139 11.3031 110.368 11.683 110.399 12.041C110.431 12.3991 108.873 15.931 105.727 22.637C105.688 22.7345 105.574 22.9562 105.385 23.3022C105.21 23.6312 105.07 23.9101 104.964 24.1389C104.873 24.3508 104.762 24.6114 104.633 24.9208C104.376 25.5706 104.266 26.1057 104.303 26.526C104.349 27.0552 104.73 27.2885 105.446 27.2258C106.162 27.1632 106.88 26.8572 107.601 26.308C108.335 25.7418 108.957 25.1384 109.466 24.4979C110.791 22.7978 111.555 21.9389 111.758 21.9212C112.162 21.8858 112.426 22.5685 112.549 23.9694ZM123.177 24.71C123.237 25.3949 123.734 25.6964 124.668 25.6147C125.166 25.5712 125.767 25.2676 126.47 24.7042C127.189 24.1393 127.827 23.5346 128.382 22.89C129.861 21.1451 130.709 20.2632 130.927 20.2441C131.331 20.2087 131.585 20.7747 131.687 21.9421C131.789 23.1095 131.493 23.9432 130.8 24.443C128.75 26.6457 127.137 28.0181 125.961 28.5601C125.296 28.8535 124.551 29.0285 123.725 29.0852C122.898 29.1418 122.05 28.8553 121.179 28.2256C120.308 27.596 119.829 26.7831 119.742 25.7869C119.654 24.7751 119.818 23.6079 120.236 22.2852C120.653 20.9625 121.095 19.826 121.561 18.8755C122.041 17.9081 122.633 16.7897 123.338 15.5204C124.041 14.2354 124.403 13.4431 124.424 13.1432L124.373 13.1006C123.863 13.1923 122.675 14.3157 120.809 16.4709C118.959 18.6248 117.436 20.4912 116.241 22.0701C115.046 23.649 113.637 25.7407 112.014 28.3452C111.559 29.0594 111.168 29.4309 110.841 29.4595C110.514 29.4881 110.069 29.425 109.507 29.2703C108.927 29.1014 108.571 28.9757 108.439 28.8932C108.306 28.8107 108.231 28.6761 108.215 28.4893C108.199 28.3025 108.234 28.0721 108.319 27.7979C108.404 27.5082 108.493 27.273 108.587 27.0922C108.664 26.8972 108.803 26.6028 109.004 26.2088C109.205 25.8148 109.595 24.9885 110.175 23.7301C110.769 22.4547 111.677 20.5558 112.9 18.0334C114.122 15.511 114.852 13.9885 115.088 13.4659C115.59 12.3869 116.007 11.5975 116.34 11.0978C116.962 10.1493 118.107 9.60221 119.772 9.45649C120.146 9.42381 120.353 9.64095 120.394 10.1079C120.458 10.8395 119.901 12.2763 118.724 14.4183L117.872 15.975C120.303 12.7508 122.411 10.6608 124.193 9.70491C125.062 9.23679 125.855 8.9714 126.571 8.90876C127.302 8.84475 127.895 8.98894 128.349 9.34131C128.819 9.69231 129.075 10.1091 129.118 10.5916C129.158 11.0586 129.045 11.641 128.776 12.3389C128.507 13.0213 128.224 13.6421 127.928 14.2012C127.646 14.7435 127.267 15.4354 126.792 16.2769C126.316 17.1184 126.059 17.5801 126.019 17.662C125.978 17.7284 125.869 17.9261 125.694 18.2551C125.533 18.5672 125.412 18.7973 125.331 18.9456C125.25 19.0939 125.116 19.3565 124.93 19.7336C124.742 20.0951 124.588 20.3987 124.468 20.6445C124.364 20.8888 124.226 21.1911 124.054 21.5512C123.897 21.91 123.767 22.2194 123.664 22.4793C123.577 22.7379 123.484 23.0205 123.385 23.3272C123.215 23.891 123.146 24.352 123.177 24.71ZM135.887 11.5992C137.306 10.4242 138.715 9.49319 140.113 8.80618C141.512 8.11917 142.74 7.72937 143.799 7.63676C144.857 7.54416 145.561 7.78845 145.91 8.36963C146.455 7.61607 147.178 7.17645 148.076 7.05077C148.34 7.01205 148.666 6.97567 149.055 6.94163C149.444 6.90758 149.69 6.94095 149.793 7.04174C149.895 7.12696 149.997 7.30626 150.099 7.57963C150.201 7.853 150.262 8.00457 150.28 8.03434C150.298 8.06411 150.311 8.11791 150.318 8.19574C150.323 8.258 150.292 8.34701 150.223 8.46278C150.154 8.56298 150.068 8.66455 149.968 8.76747C149.882 8.86904 149.833 8.92828 149.818 8.94521C146.81 14.1804 143.785 20.1152 140.742 26.7493C144.159 23.1409 147.268 20.4927 150.069 18.8046C150.248 18.6949 150.423 18.6325 150.594 18.6175C150.843 18.5958 151.021 18.7449 151.127 19.065C151.232 19.3695 151.311 19.8175 151.363 20.4089C151.414 21.0004 151.407 21.3696 151.342 21.5165C151.292 21.6621 150.958 21.9736 150.341 22.451C149.724 22.9285 148.924 23.5475 147.939 24.3081C146.955 25.0686 145.915 25.9047 144.818 26.8162C142.186 29.007 140.062 31.2555 138.444 33.5615C136.356 36.5831 134.881 39.0021 134.021 40.8184C133.706 41.5204 133.105 41.9102 132.217 41.9878C130.458 42.1417 129.506 41.3859 129.36 39.7204C129.212 38.0237 129.893 36.2153 131.403 34.2951C132.533 32.8631 133.582 31.6812 134.551 30.7494C135.521 29.8176 136.047 29.2932 136.131 29.1761C137.132 27.3475 138.482 24.7591 140.181 21.4108C138.654 23.3167 137.142 24.8606 135.645 26.0424C134.164 27.2229 133.035 27.8471 132.257 27.9152C129.875 28.1236 128.595 27.2082 128.417 25.1691C128.275 23.5503 128.545 21.8798 129.225 20.1577C129.906 18.4356 130.836 16.872 132.014 15.4671C133.192 14.0465 134.483 12.7572 135.887 11.5992ZM144.73 10.2138C142.958 10.7609 141.318 11.5554 139.81 12.5971C138.3 13.6232 137.076 14.6949 136.138 15.8121C135.2 16.9137 134.404 18.0342 133.75 19.1736C132.525 21.3041 131.961 22.922 132.058 24.0271C132.081 24.2917 132.155 24.4186 132.279 24.4077C132.419 24.3955 132.703 24.2295 133.13 23.9098C133.572 23.5888 134.184 23.0568 134.966 22.314C135.747 21.5556 136.61 20.6644 137.556 19.6406C139.745 17.2375 142.137 14.0953 144.73 10.2138ZM162.121 20.2205L162.131 20.5961C162.165 20.9853 162.342 21.307 162.662 21.5613C162.983 21.8156 163.267 21.9319 163.516 21.9101C165.384 21.7467 167.01 21.3221 168.393 20.6365C169.791 19.9495 170.466 19.3258 170.417 18.7654C170.394 18.5008 170.109 18.2983 169.564 18.1578C169.032 18.0004 168.132 17.8361 166.862 17.6648C165.607 17.4767 164.692 17.3293 164.118 17.2226C163.542 17.1004 163.085 16.9836 162.746 16.8721C162.407 16.7606 162.055 16.5953 161.691 16.3762C160.914 15.9266 160.482 15.1959 160.393 14.1841C160.304 13.1568 160.589 12.1123 161.249 11.0508C161.923 9.97228 162.797 9.02532 163.87 8.2099C164.944 7.39447 166.111 6.65716 167.371 5.99798C169.861 4.6979 171.985 3.97091 173.744 3.81703C175.472 3.66587 176.571 3.94616 177.041 4.6579C177.188 4.91162 177.276 5.20191 177.305 5.52879L177.319 5.69223C177.391 6.5172 177.269 7.17883 176.952 7.67712C176.65 8.17405 176.134 8.64266 175.404 9.08296C174.69 9.5219 174.107 9.76112 173.656 9.80061C173.22 9.83874 172.937 9.83212 172.807 9.78075C172.693 9.72803 172.592 9.65837 172.506 9.57178C172.419 9.46963 172.311 9.40066 172.182 9.36486C172.069 9.32769 172.005 9.21572 171.988 9.02893C171.972 8.84214 172.033 8.64855 172.173 8.44814C172.311 8.23217 172.401 8.01251 172.444 7.78914C171.421 7.92572 170.368 8.26095 169.286 8.79483C168.202 9.31315 167.278 9.87233 166.515 10.4724C165.768 11.0711 165.15 11.6348 164.663 12.1636C164.176 12.6925 163.943 13.0736 163.963 13.3071C163.982 13.525 164.356 13.6727 165.084 13.7502C168.362 14.1065 170.528 14.4738 171.58 14.8523C172.633 15.2307 173.38 15.6987 173.82 16.2561C174.261 16.8136 174.503 17.3336 174.545 17.8161C174.632 18.8123 174.318 19.7887 173.602 20.7454C172.885 21.7021 171.968 22.5117 170.85 23.1742C168.451 24.6231 166.318 25.4293 164.45 25.5927C162.598 25.7548 161.288 25.5791 160.522 25.0659C159.773 24.5668 159.364 23.9281 159.296 23.1498C159.228 22.3716 159.36 21.6385 159.691 20.9507C160.038 20.246 160.522 19.8664 161.145 19.8119C161.767 19.7575 162.093 19.8937 162.121 20.2205ZM191.863 4.39627C192.33 4.35542 192.823 4.52401 193.343 4.90207C193.878 5.27876 194.183 5.90294 194.259 6.77461C194.334 7.63072 194.129 8.77799 193.643 10.2164C193.156 11.6393 192.446 13.1131 191.512 14.6377C190.578 16.1468 189.528 17.5875 188.361 18.96C187.21 20.3156 185.93 21.4627 184.522 22.4015C183.128 23.3234 181.832 23.8367 180.633 23.9416C179.435 24.0464 178.437 23.7573 177.64 23.0742C176.857 22.3741 176.407 21.3547 176.29 20.0161C176.172 18.6619 176.368 17.139 176.879 15.4474C177.405 13.7545 178.135 12.2398 179.069 10.9033C180.002 9.55124 181.032 8.32401 182.159 7.2216C184.517 4.96053 186.654 3.74625 188.569 3.57875C189.425 3.50385 190.089 3.65747 190.562 4.03961C190.73 4.16608 190.818 4.2838 190.828 4.39276L190.84 4.53285C191.055 4.48265 191.396 4.43712 191.863 4.39627ZM189.777 7.70791L189.613 7.72221C189.069 7.76987 188.761 7.39678 188.692 6.60294C187.588 7.07592 186.455 7.83386 185.291 8.87673C184.128 9.91961 183.111 11.1221 182.243 12.4843C180.473 15.2114 179.65 17.4557 179.773 19.2173C179.849 20.089 180.207 20.4969 180.845 20.4411C181.483 20.3853 182.396 19.8819 183.583 18.9311C184.77 17.9802 185.911 16.6727 187.004 15.0086C188.113 13.3431 188.921 11.9157 189.429 10.7263C189.951 9.51993 190.194 8.71442 190.159 8.30972C190.122 7.88945 189.995 7.68884 189.777 7.70791ZM209.375 2.86423C209.841 2.82338 210.335 2.99198 210.854 3.37003C211.389 3.74673 211.694 4.37091 211.771 5.24258C211.845 6.09868 211.64 7.24596 211.154 8.6844C210.667 10.1073 209.957 11.581 209.024 13.1057C208.089 14.6147 207.039 16.0555 205.873 17.428C204.721 18.7835 203.441 19.9307 202.033 20.8695C200.639 21.7913 199.343 22.3047 198.145 22.4095C196.946 22.5144 195.948 22.2253 195.151 21.5421C194.369 20.8421 193.919 19.8227 193.802 18.4841C193.683 17.1299 193.879 15.607 194.39 13.9154C194.916 12.2225 195.646 10.7077 196.58 9.37126C197.513 8.01921 198.543 6.79198 199.67 5.68956C202.029 3.4285 204.165 2.21422 206.08 2.04672C206.936 1.97182 207.6 2.12544 208.073 2.50758C208.241 2.63405 208.329 2.75176 208.339 2.86072L208.351 3.00081C208.566 2.95061 208.908 2.90509 209.375 2.86423ZM207.288 6.17587L207.125 6.19017C206.58 6.23784 206.273 5.86475 206.203 5.0709C205.1 5.54389 203.966 6.30182 202.802 7.3447C201.639 8.38758 200.623 9.5901 199.754 10.9523C197.985 13.6793 197.162 15.9237 197.284 17.6853C197.361 18.557 197.718 18.9649 198.356 18.9091C198.994 18.8532 199.907 18.3499 201.094 17.399C202.281 16.4482 203.422 15.1407 204.515 13.4766C205.624 11.8111 206.433 10.3836 206.94 9.19422C207.462 7.9879 207.705 7.18239 207.67 6.77768C207.633 6.35741 207.506 6.15681 207.288 6.17587ZM224.462 15.8487C224.522 16.5336 225.019 16.8352 225.953 16.7534C226.451 16.7099 227.052 16.4063 227.755 15.8429C228.474 15.2781 229.112 14.6733 229.667 14.0287C231.146 12.2839 231.994 11.4019 232.212 11.3828C232.616 11.3474 232.87 11.9134 232.972 13.0808C233.074 14.2483 232.778 15.0819 232.085 15.5817C230.035 17.7844 228.422 19.1568 227.246 19.6988C226.581 19.9922 225.836 20.1673 225.009 20.2239C224.183 20.2805 223.335 19.994 222.464 19.3643C221.593 18.7347 221.114 17.9218 221.027 16.9256C220.939 15.9138 221.103 14.7466 221.521 13.4239C221.938 12.1013 222.38 10.9647 222.846 10.0142C223.326 9.04682 223.918 7.92845 224.623 6.65909C225.326 5.37416 225.688 4.58178 225.709 4.28195L225.658 4.23934C225.148 4.33098 223.96 5.45441 222.094 7.60963C220.244 9.76349 218.721 11.6299 217.526 13.2088C216.331 14.7877 214.922 16.8794 213.299 19.4839C212.844 20.1981 212.453 20.5696 212.126 20.5982C211.799 20.6268 211.354 20.5637 210.792 20.409C210.212 20.2401 209.856 20.1144 209.724 20.0319C209.591 19.9494 209.516 19.8148 209.5 19.628C209.484 19.4412 209.518 19.2108 209.604 18.9366C209.689 18.6469 209.778 18.4117 209.872 18.2309C209.949 18.036 210.088 17.7415 210.289 17.3475C210.49 16.9535 210.88 16.1272 211.46 14.8688C212.054 13.5934 212.962 11.6945 214.185 9.17212C215.407 6.64974 216.137 5.12725 216.373 4.60464C216.875 3.52556 217.292 2.7362 217.625 2.23655C218.247 1.28803 219.392 0.740918 221.057 0.595204C221.431 0.562521 221.638 0.779662 221.679 1.24663C221.743 1.97821 221.186 3.415 220.009 5.557L219.157 7.11373C221.588 3.88956 223.696 1.79952 225.478 0.843621C226.347 0.375498 227.14 0.110115 227.856 0.0474715C228.587 -0.0165335 229.18 0.127649 229.634 0.480019C230.104 0.831027 230.36 1.2478 230.403 1.73033C230.443 2.19729 230.33 2.77974 230.061 3.47765C229.792 4.16 229.509 4.78077 229.213 5.33996C228.931 5.88222 228.552 6.5741 228.077 7.41561C227.601 8.25712 227.344 8.71883 227.304 8.80074C227.263 8.86709 227.154 9.06477 226.979 9.39378C226.818 9.70587 226.697 9.93604 226.616 10.0843C226.535 10.2326 226.401 10.4952 226.215 10.8723C226.027 11.2338 225.873 11.5374 225.753 11.7832C225.649 12.0276 225.511 12.3298 225.338 12.69C225.182 13.0487 225.052 13.3581 224.949 13.618C224.862 13.8766 224.769 14.1592 224.67 14.4659C224.5 15.0297 224.431 15.4907 224.462 15.8487Z" fill="white"/>
</svg>
