<svg width="50" height="50" viewBox="0 0 50 50" fill="none" xmlns="http://www.w3.org/2000/svg">
<path d="M25 0C11.1975 0 0 11.1975 0 25C0 38.8025 11.1975 50 25 50C38.8025 50 50 38.8147 50 25C50 11.1853 38.8025 0 25 0ZM40.8728 11.5234C43.7654 14.9239 45.4872 19.1649 45.7835 23.6194C41.2779 23.385 35.8873 23.385 31.5647 23.7891C31.0179 22.4085 30.4576 21.0547 29.846 19.7522C34.8304 17.5915 38.6719 14.7522 40.8728 11.5234ZM25 4.16629C29.856 4.15795 34.5609 5.85396 38.2946 8.9587C36.029 11.8225 32.4743 14.3158 28.0469 16.1975C25.625 11.7188 22.8382 7.86496 19.8661 4.83036C21.5433 4.39738 23.2678 4.17432 25 4.16629ZM15.5725 6.44531C18.5804 9.43973 21.4062 13.2533 23.8806 17.7176C19.1797 19.154 13.7891 19.9777 8.03571 19.9777C6.94196 19.9777 5.875 19.9386 4.82031 19.8728C5.55396 16.9984 6.89261 14.3138 8.74683 11.9983C10.601 9.68269 12.9281 7.78954 15.5725 6.44531ZM4.20536 24.01C5.39062 24.0625 6.58817 24.0882 7.79911 24.0759C14.3616 23.9978 20.4688 22.9688 25.7165 21.2857C26.2113 22.3147 26.6801 23.3694 27.1228 24.4498C26.4887 24.5886 25.866 24.7751 25.26 25.0078C18.0859 28.0212 12.4353 32.8772 9.375 38.75C6.01937 34.9556 4.16684 30.0653 4.16629 25C4.16629 24.6652 4.17969 24.3359 4.20536 24.01ZM25 45.8337C20.3714 45.8393 15.8744 44.2943 12.2266 41.4453C15 35.9509 19.9475 31.4007 26.1853 28.5804C26.7712 28.3069 27.5525 28.0859 28.4509 27.8906C29.1949 29.9472 29.859 32.0826 30.4431 34.2969C31.3154 37.6389 31.9579 41.0367 32.3661 44.4665C30.0146 45.3675 27.5182 45.8308 25 45.8337ZM36.2634 42.5134C35.856 39.048 35.2075 35.6152 34.3225 32.24C33.8761 30.5469 33.3728 28.9062 32.8259 27.3047C36.9141 26.9699 41.8103 27.0179 45.7031 27.3047C45.3601 30.3823 44.3347 33.3445 42.7016 35.9756C41.0686 38.6066 38.8691 40.8402 36.2634 42.5134Z" fill="#00707A"/>
</svg>
