<svg width="75" height="75" viewBox="0 0 75 75" fill="none" xmlns="http://www.w3.org/2000/svg">
<circle cx="37.5" cy="37.5" r="37.5" fill="#183D5D"/>
<path fill-rule="evenodd" clip-rule="evenodd" d="M55 37.6057C55 27.8833 47.1641 20 37.5 20C27.8359 20 20 27.8833 20 37.6057C20 46.3929 26.3984 53.6764 34.7656 54.9984V42.6964H30.3211V37.6057H34.7656V33.7262C34.7656 29.3145 37.3789 26.8757 41.3758 26.8757C43.2906 26.8757 45.2938 27.2199 45.2938 27.2199V31.553H43.0859C40.9133 31.553 40.2336 32.9095 40.2336 34.3039V37.6065H45.0867L44.3117 42.6972H40.2336V55C48.6016 53.6788 55 46.3952 55 37.6057Z" fill="#FF8AE2"/>
</svg>
