<svg width="50" height="50" viewBox="0 0 50 50" fill="none" xmlns="http://www.w3.org/2000/svg">
<path d="M25 0C11.1942 0 0 11.4844 0 25.6362C0 36.9643 7.16518 46.5625 17.0982 49.9553C17.2375 49.9856 17.3797 50.0006 17.5223 50C18.4487 50 18.8058 49.3192 18.8058 48.7277C18.8058 48.1138 18.7835 46.5067 18.7723 44.3638C17.9454 44.5577 17.0994 44.6588 16.25 44.6652C11.4397 44.6652 10.346 40.9263 10.346 40.9263C9.20759 37.9687 7.56696 37.1763 7.56696 37.1763C5.39063 35.6473 7.5558 35.6027 7.72321 35.6027H7.73438C10.2455 35.8259 11.5625 38.2589 11.5625 38.2589C12.8125 40.4464 14.4866 41.0602 15.9821 41.0602C16.971 41.0405 17.9446 40.8123 18.8393 40.3906C19.0625 38.7388 19.7098 37.6116 20.4241 36.9643C14.8772 36.317 9.04018 34.1183 9.04018 24.2969C9.04018 21.4955 10.0112 19.2076 11.6071 17.4219C11.3504 16.7745 10.4911 14.1629 11.8527 10.6362C12.0353 10.5925 12.223 10.5737 12.4107 10.5804C13.3147 10.5804 15.3571 10.9263 18.7277 13.2701C22.8231 12.1242 27.1545 12.1242 31.25 13.2701C34.6205 10.9263 36.6629 10.5804 37.567 10.5804C37.7546 10.5737 37.9424 10.5925 38.125 10.6362C39.4866 14.1629 38.6272 16.7745 38.3705 17.4219C39.9665 19.2187 40.9375 21.5067 40.9375 24.2969C40.9375 34.1406 35.0893 36.3058 29.5201 36.9419C30.4129 37.7344 31.2165 39.2969 31.2165 41.6852C31.2165 45.1116 31.183 47.8794 31.183 48.7165C31.183 49.3192 31.529 50 32.4554 50C32.6053 50.0006 32.7549 49.9857 32.9018 49.9553C42.846 46.5625 50 36.9531 50 25.6362C50 11.4844 38.8058 0 25 0Z" fill="#00707A"/>
</svg>
