<svg width="75" height="75" viewBox="0 0 75 75" fill="none" xmlns="http://www.w3.org/2000/svg">
<circle cx="37.5" cy="37.5" r="37.5" fill="#183D5D"/>
<path d="M52.2007 20H22.9906C21.3945 20 20 21.1484 20 22.7258V52.0008C20 53.5867 21.3945 55 22.9906 55H52.1921C53.7968 55 54.9999 53.5773 54.9999 52.0008V22.7258C55.0093 21.1484 53.7968 20 52.2007 20ZM30.8492 49.1742H25.8351V33.5844H30.8492V49.1742ZM28.5156 31.2141H28.4797C26.875 31.2141 25.8359 30.0195 25.8359 28.5242C25.8359 27.0016 26.9023 25.8352 28.543 25.8352C30.1836 25.8352 31.1875 26.993 31.2234 28.5242C31.2226 30.0195 30.1836 31.2141 28.5156 31.2141ZM49.1742 49.1742H44.1601V40.65C44.1601 38.6078 43.4304 37.2125 41.6164 37.2125C40.2304 37.2125 39.4101 38.15 39.0453 39.0633C38.9086 39.3914 38.8718 39.8383 38.8718 40.2945V49.1742H33.8578V33.5844H38.8718V35.7539C39.6015 34.7148 40.7414 33.2195 43.3937 33.2195C46.6851 33.2195 49.175 35.3891 49.175 40.0664L49.1742 49.1742Z" fill="#FF8AE2"/>
</svg>
