<?xml version="1.0" encoding="utf-8"?>
<!-- Generator: Adobe Illustrator 25.2.0, SVG Export Plug-In . SVG Version: 6.00 Build 0)  -->
<svg version="1.1" id="Layer_1" xmlns="http://www.w3.org/2000/svg" xmlns:xlink="http://www.w3.org/1999/xlink" x="0px" y="0px"
	 viewBox="0 0 299.7 90.2" style="enable-background:new 0 0 299.7 90.2;" xml:space="preserve">
<style type="text/css">
	.st0{clip-path:url(#SVGID_2_);}
	.st1{clip-path:url(#SVGID_4_);}
	.st2{fill:#F8049C;}
	.st3{clip-path:url(#SVGID_6_);}
	.st4{clip-path:url(#SVGID_8_);}
	.st5{fill:#1F1F24;}
	.st6{clip-path:url(#SVGID_10_);}
	.st7{clip-path:url(#SVGID_12_);}
	.st8{clip-path:url(#SVGID_14_);}
	.st9{clip-path:url(#SVGID_16_);}
	.st10{clip-path:url(#SVGID_18_);}
	.st11{clip-path:url(#SVGID_20_);}
	.st12{fill:#FDD54F;}
	.st13{clip-path:url(#SVGID_22_);}
	.st14{clip-path:url(#SVGID_24_);}
	.st15{clip-path:url(#SVGID_26_);}
	.st16{clip-path:url(#SVGID_28_);}
	.st17{clip-path:url(#SVGID_30_);}
	.st18{clip-path:url(#SVGID_32_);fill:url(#SVGID_33_);}
</style>
<g>
	<g>
		<g>
			<g>
				<defs>
					<rect id="SVGID_1_" y="0" width="31.8" height="81.9"/>
				</defs>
				<clipPath id="SVGID_2_">
					<use xlink:href="#SVGID_1_"  style="overflow:visible;"/>
				</clipPath>
				<g class="st0">
					<g>
						<g>
							<defs>
								<rect id="SVGID_3_" x="-0.1" y="0" width="32" height="82"/>
							</defs>
							<clipPath id="SVGID_4_">
								<use xlink:href="#SVGID_3_"  style="overflow:visible;"/>
							</clipPath>
							<g class="st1">
								<path class="st2" d="M23,29.2v-9c0-2.1,0.5-3.9,1.3-5.3c0.7-1.1,1.6-1.6,2.7-1.6h4.8V0h-9.1c-2.9,0-5.4,0.9-7.7,2.6
									c-2.1,1.7-3.8,3.8-5,6.4s-1.8,5.3-1.8,8.3v11.2c0,2.3-0.5,3.9-1.5,5c-1,1-2.6,1.5-4.7,1.5h-2.1v12.1H2
									c0.8,0,1.5,0.1,2.1,0.2c0.6,0.1,1.1,0.3,1.5,0.5c0.4,0.3,0.8,0.5,1.1,0.8c1,1,1.5,2.7,1.5,5v11.2c0,3,0.6,5.7,1.7,8.3
									c0.6,1.2,1.3,2.4,2.1,3.5c0.9,1.1,1.9,2.1,3,2.9c2.2,1.7,4.8,2.5,7.6,2.5h9.3V68.6h-4.8c-1.1,0-2-0.5-2.7-1.6
									c-0.4-0.7-0.7-1.5-0.9-2.4c-0.2-0.9-0.3-1.8-0.3-2.9v-9c0-1.5-0.2-2.9-0.6-4.3c-0.4-1.4-1-2.7-1.8-3.9
									c-0.9-1.3-1.9-2.5-3.1-3.4c1.3-1,2.3-2.1,3.1-3.5C22.3,35.2,23.1,32.4,23,29.2z"/>
							</g>
						</g>
					</g>
				</g>
			</g>
		</g>
	</g>
</g>
<g>
	<g>
		<g>
			<g>
				<defs>
					<rect id="SVGID_5_" x="43.7" y="4.8" width="45.8" height="67.3"/>
				</defs>
				<clipPath id="SVGID_6_">
					<use xlink:href="#SVGID_5_"  style="overflow:visible;"/>
				</clipPath>
				<g class="st3">
					<g>
						<g>
							<defs>
								<rect id="SVGID_7_" x="43.7" y="4.9" width="45.8" height="67.3"/>
							</defs>
							<clipPath id="SVGID_8_">
								<use xlink:href="#SVGID_7_"  style="overflow:visible;"/>
							</clipPath>
							<g class="st4">
								<path class="st5" d="M71.2,71.3l0.6,1h17.7L87.4,69L71.3,44.3l15-16.5l3.1-3.5H71.2l-0.7,0.8L58.9,38.5V5H43.7v67.3h15.2
									V58.2l2.6-2.8L71.2,71.3z"/>
							</g>
						</g>
					</g>
				</g>
			</g>
		</g>
	</g>
</g>
<g>
	<g>
		<g>
			<g>
				<defs>
					<rect id="SVGID_9_" x="93.8" y="23.2" width="46" height="49.9"/>
				</defs>
				<clipPath id="SVGID_10_">
					<use xlink:href="#SVGID_9_"  style="overflow:visible;"/>
				</clipPath>
				<g class="st6">
					<g>
						<g>
							<defs>
								<rect id="SVGID_11_" x="93.8" y="23.2" width="46" height="50"/>
							</defs>
							<clipPath id="SVGID_12_">
								<use xlink:href="#SVGID_11_"  style="overflow:visible;"/>
							</clipPath>
							<g class="st7">
								<path class="st5" d="M124.5,72.2h15.3l-0.6-2.5l-1.8-9.5V40.8c0-5.7-1.9-10.1-5.7-13.2c-1.9-1.5-4.1-2.6-6.7-3.3
									c-2.6-0.7-5.5-1.1-8.8-1.1c-3.6,0-6.9,0.5-9.9,1.4c-1.5,0.5-3,1.1-4.4,1.9c-1.5,0.7-2.9,1.6-4.2,2.7l-0.8,0.7v15l3.4-2.4
									c1-0.7,1.9-1.3,2.8-1.9c0.9-0.6,1.8-1.1,2.6-1.5c0.9-0.4,1.7-0.7,2.4-1c2.3-0.9,4.8-1.3,7.5-1.3c2.5,0,4.3,0.5,5.3,1.3
									c0.7,0.8,1.2,1.8,1.3,3.3c-1.8-0.1-3.6-0.2-5.3-0.2c-7.2,0-12.9,1.5-16.9,4.5c-4.1,3.1-6.2,7.5-6.2,13
									c0,4.4,1.6,7.9,4.9,10.6c3.2,2.6,7.2,3.9,12.1,3.9s9.2-1.5,13-4.4l0.4,1.7L124.5,72.2z M109.7,60c-0.5-0.4-0.7-1.1-0.7-2.2
									c0-1.7,0.5-2.8,1.3-3.4c1.1-0.7,3.1-1.1,5.9-1.1h6v2.9c-1.5,1.5-3,2.5-4.5,3.2c-1.6,0.7-3.4,1.1-5.2,1.1
									C111.1,60.5,110.2,60.3,109.7,60z"/>
							</g>
						</g>
					</g>
				</g>
			</g>
		</g>
	</g>
</g>
<g>
	<g>
		<g>
			<g>
				<defs>
					<rect id="SVGID_13_" x="145.8" y="7.8" width="31.8" height="65.3"/>
				</defs>
				<clipPath id="SVGID_14_">
					<use xlink:href="#SVGID_13_"  style="overflow:visible;"/>
				</clipPath>
				<g class="st8">
					<g>
						<g>
							<defs>
								<rect id="SVGID_15_" x="145.9" y="7.9" width="31.7" height="65.3"/>
							</defs>
							<clipPath id="SVGID_16_">
								<use xlink:href="#SVGID_15_"  style="overflow:visible;"/>
							</clipPath>
							<g class="st9">
								<path class="st5" d="M167.5,24.3L167.5,24.3V7.9l-2.8,0.9l-11.1,3.9l-1.4,0.5v11.1h-6.4v12.4h6.4v19c0,5.5,1.3,9.8,3.9,12.9
									c2.6,3.1,6.4,4.6,11.4,4.6c1.6,0,3.2-0.1,4.5-0.4s2.7-0.7,4.1-1.2l1.5-0.4V57.1l-3.1,1.6c-1.7,0.9-3.1,1.3-4.3,1.3
									c-1,0-1.7-0.2-2.1-0.8c-0.4-0.5-0.6-1.7-0.6-3.4v-19h10V24.4L167.5,24.3L167.5,24.3z"/>
							</g>
						</g>
					</g>
				</g>
			</g>
		</g>
	</g>
</g>
<g>
	<g>
		<g>
			<g>
				<defs>
					<rect id="SVGID_17_" x="183.2" y="29.4" width="19.4" height="53.3"/>
				</defs>
				<clipPath id="SVGID_18_">
					<use xlink:href="#SVGID_17_"  style="overflow:visible;"/>
				</clipPath>
				<g class="st10">
					<g>
						<g>
							<defs>
								<rect id="SVGID_19_" x="183.2" y="29.4" width="19.4" height="53.3"/>
							</defs>
							<clipPath id="SVGID_20_">
								<use xlink:href="#SVGID_19_"  style="overflow:visible;"/>
							</clipPath>
							<g class="st11">
								<path class="st12" d="M200.4,42.5c1.5-1.3,2.2-3.1,2.2-5.4s-0.7-4.2-2.1-5.5c-1.5-1.4-3.2-2.1-5.4-2.1s-3.9,0.7-5.4,2.1
									c-1.5,1.4-2.2,3.2-2.2,5.5s0.8,4.1,2.2,5.5c1.5,1.4,3.3,2.1,5.4,2.1C197.2,44.7,199,43.9,200.4,42.5z M189,57.5
									c0,3-0.1,5.7-0.3,8c-0.2,2.3-0.7,4.9-1.5,7.8s-2.2,6-4,9.4h11c2.6-5.1,4.4-9.6,5.4-13.6s1.5-7.9,1.5-11.6
									C201.1,57.5,189,57.5,189,57.5z"/>
							</g>
						</g>
					</g>
				</g>
			</g>
		</g>
	</g>
</g>
<g>
	<g>
		<g>
			<g>
				<defs>
					<rect id="SVGID_21_" x="213.8" y="23.2" width="45.4" height="49.9"/>
				</defs>
				<clipPath id="SVGID_22_">
					<use xlink:href="#SVGID_21_"  style="overflow:visible;"/>
				</clipPath>
				<g class="st13">
					<g>
						<g>
							<defs>
								<rect id="SVGID_23_" x="213.8" y="23.2" width="45.4" height="50"/>
							</defs>
							<clipPath id="SVGID_24_">
								<use xlink:href="#SVGID_23_"  style="overflow:visible;"/>
							</clipPath>
							<g class="st14">
								<path class="st5" d="M259.2,53.6v-5.4c0-2.5-0.3-4.8-0.7-7c-0.4-2.2-1.1-4.2-1.9-6.1c-1.9-3.8-4.5-6.7-7.9-8.8
									c-3.3-2.1-7.2-3.1-11.7-3.1c-4.6,0-8.6,1.1-12.2,3.3c-3.5,2.1-6.2,5-8.2,8.9c-1.9,3.7-2.8,8-2.8,12.9s1,9.3,3,13.1
									s4.9,6.7,8.7,8.8c3.8,2,8.1,3,13,3c3.4,0,6.6-0.5,9.7-1.5c3.1-1,5.9-2.5,8.3-4.3l0.8-0.6V54.7h-3l-0.6,0.3
									c-1.1,0.8-2.3,1.5-3.6,2.1c-1.3,0.5-2.6,1.1-4,1.5c-2.7,0.8-5.2,1.2-7.5,1.2c-2.9,0-5.2-0.8-6.8-2.2c-1.1-1-1.9-2.3-2.5-4
									h27.8C257.1,53.6,259.2,53.6,259.2,53.6z M237,36.3c1,0,1.8,0.1,2.5,0.4c0.7,0.2,1.3,0.7,1.8,1.3c0.3,0.5,0.7,1.1,1,1.7
									c0.3,0.7,0.6,1.4,0.9,2.2h-13.6c0.6-1.4,1.4-2.7,2.3-3.6C233.2,37,234.9,36.3,237,36.3z"/>
							</g>
						</g>
					</g>
				</g>
			</g>
		</g>
	</g>
</g>
<g>
	<g>
		<g>
			<g>
				<defs>
					<rect id="SVGID_25_" x="267.9" y="0" width="31.8" height="81.9"/>
				</defs>
				<clipPath id="SVGID_26_">
					<use xlink:href="#SVGID_25_"  style="overflow:visible;"/>
				</clipPath>
				<g class="st15">
					<g>
						<g>
							<defs>
								<rect id="SVGID_27_" x="267.8" y="0" width="31.7" height="82"/>
							</defs>
							<clipPath id="SVGID_28_">
								<use xlink:href="#SVGID_27_"  style="overflow:visible;"/>
							</clipPath>
							<g class="st16">
								<path class="st2" d="M267.8,68.6V82h9.1c2.9,0,5.4-0.9,7.6-2.5c2.1-1.7,3.8-3.8,5-6.4s1.8-5.3,1.8-8.3V53.6
									c0-1.3,0.2-2.3,0.4-3.1c0.2-0.8,0.6-1.5,1.1-2c0.3-0.2,0.5-0.4,0.7-0.6c0.3-0.2,0.6-0.4,1-0.5s0.8-0.2,1.3-0.3
									s1-0.1,1.6-0.1h2.1V34.8h-2.1c-1.1,0-2.1-0.1-2.8-0.4c-0.7-0.3-1.4-0.7-1.8-1.1c-0.2-0.3-0.3-0.6-0.6-0.9
									c-0.2-0.3-0.4-0.6-0.5-1s-0.2-0.9-0.3-1.4c-0.1-0.5-0.1-1.1-0.1-1.7V17.2c0-3-0.6-5.7-1.7-8.3c-1.1-2.7-2.8-4.8-5-6.4
									C282.4,0.8,279.8,0,277,0h-9.2v13.3h4.8c0.6,0,1.1,0.2,1.5,0.4s0.8,0.6,1.2,1.2c0.4,0.7,0.7,1.5,0.9,2.4s0.3,1.8,0.3,2.9v9
									c0,3.1,0.8,5.8,2.3,8.3c0.9,1.3,1.9,2.5,3.1,3.4c-1.3,1-2.3,2.1-3.1,3.4c-1.5,2.5-2.3,5.3-2.3,8.4v9c0,2.1-0.4,3.8-1.2,5.3
									c-0.7,1.1-1.6,1.6-2.7,1.6h-2.7C269.9,68.6,267.8,68.6,267.8,68.6z"/>
							</g>
						</g>
					</g>
				</g>
			</g>
		</g>
	</g>
</g>
<g>
	<g>
		<g>
			<g>
				<defs>
					<rect id="SVGID_29_" x="38.1" y="87.4" width="137.1" height="2.8"/>
				</defs>
				<clipPath id="SVGID_30_">
					<use xlink:href="#SVGID_29_"  style="overflow:visible;"/>
				</clipPath>
				<g class="st17">
					<g>
						<g>
							<g>
								<g>
									<defs>
										<path id="SVGID_31_" d="M38.1,88.8c0-0.7,0.7-1.3,1.5-1.3h134c0.8,0,1.5,0.6,1.5,1.3s-0.7,1.3-1.5,1.3h-134
											C38.8,90.2,38.1,89.5,38.1,88.8z"/>
									</defs>
									<clipPath id="SVGID_32_">
										<use xlink:href="#SVGID_31_"  style="overflow:visible;"/>
									</clipPath>
									<linearGradient id="SVGID_33_" gradientUnits="userSpaceOnUse" x1="38.1" y1="88.85" x2="175.2" y2="88.85">
										<stop  offset="0" style="stop-color:#F8049C"/>
										<stop  offset="1" style="stop-color:#FDD54F"/>
									</linearGradient>
									<path class="st18" d="M175.2,87.5H38.1v2.7h137.1L175.2,87.5L175.2,87.5z"/>
								</g>
							</g>
						</g>
					</g>
				</g>
			</g>
		</g>
	</g>
</g>
</svg>
