<svg width="298" height="54" viewBox="0 0 298 54" fill="none" xmlns="http://www.w3.org/2000/svg">
<path d="M37.5579 20.726C37.4009 20.7397 37.3131 20.6396 37.2943 20.4256C37.2756 20.2115 37.3208 20.071 37.43 20.0039C37.5522 19.9214 37.7497 19.7962 38.0226 19.6286C38.3085 19.4454 38.5066 19.3274 38.617 19.2747C38.7262 19.2076 38.8971 19.1064 39.1296 18.971C39.3622 18.8356 39.548 18.7403 39.6869 18.685C39.8401 18.6285 40.0206 18.5552 40.2284 18.4651C40.5764 18.334 41.0143 18.2454 41.5422 18.1992C42.0844 18.1518 42.65 18.2892 43.2389 18.6115C43.8421 18.9325 44.1699 19.3927 44.2224 19.992C44.331 21.2333 43.933 22.9288 43.0283 25.0783C42.1224 27.2135 40.9173 29.4613 39.4128 31.8214C37.9084 34.1816 36.2001 36.5955 34.2881 39.0632C32.3761 41.5309 30.4929 43.7516 28.6383 45.7255C26.7838 47.6993 25.0146 49.335 23.3309 50.6325C21.6615 51.9288 20.3488 52.6187 19.3928 52.7024C17.3667 52.8796 16.2732 52.0479 16.1121 50.2073C15.8862 47.6247 17.0223 43.7656 19.5203 38.6299C14.4165 45.8627 10.0309 50.6243 6.36374 52.9149C5.40989 53.5159 4.669 53.8396 4.14107 53.8858C3.61314 53.9319 2.93584 53.6677 2.10917 53.093C1.29552 52.5028 0.861234 51.8938 0.806308 51.266C0.495475 47.7132 2.52887 42.5247 6.90649 35.7005C8.57646 33.0959 10.6852 30.1652 13.2327 26.9087C10.9645 29.2494 9.18833 30.4759 7.90418 30.5883C7.21929 30.6482 6.68343 30.3572 6.29658 29.7153C5.9545 29.2564 5.76474 28.8129 5.72729 28.3848C5.68859 27.9425 5.93214 27.4396 6.45794 26.876C6.98374 26.3124 7.29657 26.0262 7.39645 26.0175C7.49633 26.0087 7.5922 26.0363 7.68405 26.1001C7.7759 26.164 7.82432 26.2244 7.82932 26.2815C7.64828 26.513 7.56089 26.6644 7.56713 26.7358C7.57212 26.7929 7.66023 26.8139 7.83145 26.7989C8.00267 26.784 9.35836 25.8458 11.8985 23.9845C14.4374 22.109 15.8353 21.16 16.0921 21.1375C16.8341 21.0726 17.5656 21.2171 18.2867 21.5709C19.0065 21.9105 19.3789 22.223 19.4039 22.5084C19.4276 22.7795 19.3168 23.1558 19.0713 23.6374C18.8259 24.1189 17.324 26.5076 14.5655 30.8034C11.8057 35.085 9.81008 38.322 8.57852 40.5145C7.3457 42.6928 6.45917 44.4741 5.91891 45.8585C5.37741 47.2286 5.11915 48.0563 5.14411 48.3417C5.16908 48.6271 5.22437 48.766 5.30998 48.7585C5.90925 48.7061 7.8916 46.7139 11.257 42.7819C14.6355 38.8344 17.8399 34.9525 20.8704 31.136C23.8996 27.3054 25.5401 25.1849 25.7917 24.7747C26.0577 24.3633 26.355 24.0641 26.6837 23.8772C27.0112 23.676 27.5173 23.5454 28.2022 23.4855C30.1142 23.3182 31.102 23.5984 31.1657 24.3261C31.1919 24.6258 30.8265 25.2975 30.0696 26.3414C29.3269 27.3841 28.8037 28.1416 28.4999 28.6138C26.9149 31.0386 25.204 34.4088 23.3675 38.7246C21.5452 43.0392 20.6846 45.7744 20.7857 46.9301C20.8131 47.244 20.9268 47.3922 21.1265 47.3747C21.3405 47.356 21.9191 46.9028 22.8623 46.0152C23.8185 45.112 25.0613 43.7883 26.5909 42.0442C28.1193 40.2858 29.8428 38.1294 31.7616 35.5748C33.6804 33.0202 35.4768 30.2176 37.1509 27.1668C38.838 24.1006 39.6491 22.1965 39.5841 21.4545C39.5192 20.7126 39.2014 20.3666 38.6307 20.4165L37.5579 20.726ZM76.8531 17.2881C76.6961 17.3019 76.6083 17.2017 76.5896 16.9877C76.5708 16.7737 76.616 16.6331 76.7252 16.5661C76.8474 16.4835 77.0449 16.3584 77.3178 16.1907C77.6037 16.0075 77.8018 15.8896 77.9122 15.8368C78.0214 15.7697 78.1923 15.6685 78.4248 15.5331C78.6574 15.3978 78.8432 15.3024 78.9821 15.2471C79.1353 15.1906 79.3158 15.1173 79.5236 15.0272C79.8716 14.8961 80.3095 14.8075 80.8375 14.7613C81.3797 14.7139 81.9452 14.8513 82.5341 15.1736C83.1373 15.4947 83.4652 15.9548 83.5176 16.5541C83.6262 17.7954 83.2282 19.4909 82.3235 21.6404C81.4176 23.7757 80.2125 26.0234 78.708 28.3835C77.2036 30.7437 75.4953 33.1576 73.5833 35.6253C71.6714 38.093 69.7881 40.3138 67.9335 42.2876C66.079 44.2614 64.3098 45.8971 62.6262 47.1946C60.9567 48.4909 59.644 49.1808 58.6881 49.2645C56.6619 49.4417 55.5684 48.6101 55.4073 46.7694C55.1814 44.1868 56.3175 40.3277 58.8156 35.192C53.7117 42.4248 49.3261 47.1864 45.659 49.477C44.7051 50.0781 43.9642 50.4017 43.4363 50.4479C42.9084 50.4941 42.2311 50.2298 41.4044 49.6551C40.5907 49.065 40.1564 48.456 40.1015 47.8282C39.7907 44.2753 41.8241 39.0868 46.2017 32.2626C47.8717 29.658 49.9804 26.7273 52.5279 23.4708C50.2597 25.8115 48.4835 27.038 47.1994 27.1504C46.5145 27.2103 45.9786 26.9193 45.5918 26.2774C45.2497 25.8185 45.06 25.375 45.0225 24.947C44.9838 24.5046 45.2274 24.0017 45.7532 23.4381C46.2789 22.8745 46.5918 22.5883 46.6917 22.5796C46.7915 22.5708 46.8874 22.5984 46.9793 22.6622C47.0711 22.7261 47.1195 22.7866 47.1245 22.8436C46.9435 23.0751 46.8561 23.2266 46.8623 23.2979C46.8673 23.355 46.9554 23.376 47.1267 23.361C47.2979 23.3461 48.6536 22.4079 51.1937 20.5466C53.7326 18.6711 55.1305 17.7221 55.3873 17.6996C56.1293 17.6347 56.8608 17.7792 57.5819 18.133C58.3017 18.4726 58.6741 18.7851 58.6991 19.0705C58.7228 19.3416 58.612 19.7179 58.3665 20.1995C58.1211 20.681 56.6192 23.0697 53.8607 27.3655C51.1009 31.6471 49.1053 34.8841 47.8737 37.0766C46.6409 39.2549 45.7544 41.0362 45.2141 42.4206C44.6726 43.7907 44.4144 44.6184 44.4393 44.9038C44.4643 45.1892 44.5196 45.3281 44.6052 45.3206C45.2045 45.2682 47.1868 43.276 50.5522 39.344C53.9307 35.3965 57.1351 31.5146 60.1656 27.6982C63.1948 23.8675 64.8353 21.747 65.0869 21.3368C65.3529 20.9254 65.6502 20.6262 65.9789 20.4393C66.3064 20.2381 66.8125 20.1075 67.4974 20.0476C69.4094 19.8803 70.3972 20.1605 70.4609 20.8882C70.4871 21.1879 70.1217 21.8596 69.3648 22.9035C68.6221 23.9462 68.0989 24.7037 67.7951 25.176C66.2101 27.6007 64.4992 30.9709 62.6627 35.2867C60.8404 39.6013 59.9798 42.3365 60.0809 43.4922C60.1084 43.8061 60.222 43.9543 60.4217 43.9369C60.6358 43.9181 61.2143 43.4649 62.1575 42.5773C63.1137 41.6741 64.3565 40.3504 65.8861 38.6063C67.4145 36.8479 69.138 34.6915 71.0568 32.1369C72.9756 29.5824 74.772 26.7797 76.4461 23.729C78.1332 20.6627 78.9443 18.7586 78.8794 18.0166C78.8144 17.2747 78.4966 16.9287 77.9259 16.9786L76.8531 17.2881ZM100.205 32.5198C100.547 32.4899 100.743 32.7531 100.792 33.3096C100.839 33.8518 100.8 34.8041 100.675 36.1666C100.568 37.0817 99.6532 38.4557 97.9301 40.2887C95.8504 42.4835 93.4997 44.1269 90.8779 45.2189C89.2962 45.8749 87.7278 46.2709 86.1725 46.407C84.6315 46.5418 83.1621 46.0162 81.7644 44.8301C80.3797 43.6285 79.6093 42.1359 79.4532 40.3524C79.2959 38.5546 79.4904 36.6685 80.0365 34.6941C80.5957 32.7042 81.4055 30.7858 82.466 28.939C83.5396 27.0766 84.8334 25.2668 86.3475 23.5097C87.8758 21.7513 89.4871 20.2013 91.1813 18.8598C92.8755 17.5182 94.6765 16.4117 96.5844 15.5403C98.4923 14.6689 100.331 14.1558 102.1 14.001C103.498 13.8786 104.734 14.2809 105.807 15.2078C106.368 15.7051 106.685 16.3675 106.758 17.1951C106.829 18.0084 106.52 19.0778 105.831 20.4033C105.14 21.7146 104.291 22.9319 103.282 24.0554C102.287 25.1776 101.236 26.1466 100.129 26.9624C99.0352 27.7769 98.139 28.2147 97.4398 28.2759C96.7407 28.3371 96.1227 28.1755 95.5858 27.7911C95.0478 27.3925 94.7637 27.022 94.7338 26.6795C94.7038 26.3371 94.7421 25.9527 94.8486 25.5265C94.9693 25.0989 95.1438 24.8752 95.3721 24.8552C95.3213 24.9316 95.299 25.0054 95.3052 25.0767C95.3202 25.248 95.5703 25.3123 96.0554 25.2699C96.5548 25.2262 97.3443 24.7186 98.4239 23.7471C99.5035 22.7756 100.46 21.7071 101.292 20.5416C102.139 19.3748 102.539 18.5203 102.491 17.9781C102.459 17.6071 102.193 17.4435 101.693 17.4872C100.352 17.6045 98.5523 18.3946 96.2936 19.8575C94.0479 21.3048 91.9339 23.1072 89.9516 25.2648C87.9694 27.4223 86.2978 29.9265 84.9369 32.7773C83.5891 35.6126 83.0094 38.1075 83.1979 40.262C83.2765 41.1609 83.575 41.8609 84.0933 42.3619C84.6258 42.8616 85.3844 43.0685 86.3689 42.9823C87.3677 42.8949 88.5199 42.5066 89.8254 41.8173C91.131 41.1279 92.354 40.3164 93.4944 39.3827C94.6491 38.4478 95.7306 37.4977 96.7388 36.5325C97.7471 35.5672 98.5435 34.7284 99.1282 34.0158C99.7271 33.3021 100.028 32.8804 100.031 32.7507C100.033 32.6068 100.091 32.5298 100.205 32.5198ZM115.858 27.29C116.286 27.2525 116.738 27.4071 117.214 27.7536C117.704 28.0989 117.984 28.6711 118.054 29.4701C118.123 30.2549 117.934 31.3066 117.489 32.6251C117.042 33.9295 116.391 35.2804 115.536 36.678C114.679 38.0613 113.716 39.382 112.648 40.6401C111.592 41.8827 110.418 42.9343 109.128 43.7948C107.85 44.6398 106.662 45.1104 105.564 45.2065C104.465 45.3027 103.55 45.0376 102.82 44.4114C102.102 43.7697 101.69 42.8353 101.582 41.6082C101.474 40.3668 101.654 38.9708 102.122 37.4202C102.604 35.8684 103.274 34.4799 104.13 33.2548C104.985 32.0154 105.929 30.8904 106.962 29.8799C109.124 27.8072 111.082 26.6941 112.837 26.5406C113.622 26.4719 114.231 26.6128 114.664 26.9631C114.818 27.079 114.9 27.1869 114.908 27.2868L114.92 27.4152C115.117 27.3692 115.43 27.3274 115.858 27.29ZM113.945 30.3257L113.795 30.3388C113.296 30.3825 113.014 30.0405 112.951 29.3128C111.939 29.7463 110.9 30.4411 109.833 31.3971C108.767 32.3531 107.835 33.4554 107.039 34.704C105.417 37.2038 104.662 39.2611 104.775 40.876C104.845 41.675 105.172 42.0489 105.757 41.9978C106.342 41.9466 107.179 41.4852 108.267 40.6136C109.356 39.742 110.401 38.5434 111.403 37.018C112.42 35.4913 113.161 34.1828 113.626 33.0925C114.105 31.9867 114.328 31.2483 114.295 30.8773C114.261 30.4921 114.145 30.3082 113.945 30.3257ZM142.879 9.03148C143.15 9.00776 143.371 9.07464 143.543 9.23213C143.715 9.38962 143.809 9.56111 143.826 9.7466C143.841 9.91782 143.727 10.2585 143.484 10.7686C143.254 11.2631 142.71 12.3603 141.852 14.06C140.993 15.7455 140.326 17.0691 139.849 18.031C137.071 23.5794 134.92 28.2533 133.398 32.0528C131.876 35.8523 131.148 38.1301 131.214 38.8864L131.229 39.0576C131.28 39.6426 131.52 39.9164 131.948 39.8789C132.376 39.8415 132.872 39.5968 133.436 39.1448C134.015 38.6916 134.512 38.2168 134.929 37.7202C135.346 37.2237 135.761 36.7129 136.175 36.1878C136.602 35.6472 136.862 35.3298 136.955 35.2354C137.047 35.1411 137.172 35.087 137.329 35.0733C137.571 35.0521 137.742 35.1953 137.841 35.503C137.938 35.7964 138.011 36.2213 138.06 36.7778C138.107 37.32 138.096 37.6804 138.025 37.8591C137.681 38.6944 136.854 39.7516 135.542 41.031C134.244 42.2948 132.967 42.9816 131.711 43.0914C129.571 43.2787 128.421 42.4663 128.263 40.6542C128.164 39.527 128.463 38.0128 129.159 36.1115C128.135 37.7108 127.069 39.0908 125.963 40.2515C123.907 42.3868 122.059 43.5262 120.418 43.6697C119.505 43.7496 118.799 43.4879 118.3 42.8845C117.816 42.2799 117.521 41.3783 117.417 40.1797C117.311 38.9669 117.655 37.4775 118.449 35.7114C119.243 33.9454 120.281 32.3305 121.562 30.867C122.856 29.3879 124.32 28.124 125.953 27.0753C127.586 26.0123 129.122 25.4178 130.564 25.2917C131.02 25.2517 131.58 25.4832 132.242 25.986C132.598 25.2934 133.247 23.9139 134.187 21.8475C137.168 15.6488 139.164 11.851 140.178 10.4539C140.709 9.61672 141.609 9.14258 142.879 9.03148ZM131.112 28.112C129.098 28.7484 127.269 29.8716 125.627 31.4818C123.985 33.092 122.792 34.7348 122.047 36.4103C121.301 38.0714 120.949 39.1375 120.99 39.6083C121.031 40.0792 121.151 40.3059 121.351 40.2884C122.207 40.2135 124.159 38.1162 127.206 33.9964C128.725 31.9656 130.027 30.0042 131.112 28.112ZM150.192 24.588C150.275 25.5298 149.962 26.391 149.254 27.1719C148.56 27.9514 147.728 28.3837 146.758 28.4686C146.444 28.496 146.231 28.4428 146.118 28.3088C146.005 28.1606 145.937 27.9652 145.916 27.7227C145.895 27.4801 145.903 27.2422 145.94 27.0089C145.441 27.2251 144.893 27.539 144.297 27.9506C143.7 28.3622 142.976 28.9576 142.124 29.7366C141.272 30.5157 140.861 31.0764 140.891 31.4188C140.901 31.533 141.07 31.5757 141.398 31.547C141.741 31.517 142.251 31.3573 142.93 31.0679C143.608 30.7641 144.083 30.6004 144.354 30.5767C144.639 30.5517 144.826 30.5498 144.914 30.5708C145.108 30.6545 145.328 30.8581 145.572 31.1819C145.814 31.4913 145.944 31.7459 145.962 31.9457C145.978 32.1312 145.814 32.3971 145.471 32.7434C145.127 33.0898 144.728 33.3692 144.272 33.5816C143.815 33.7798 143.511 33.9285 143.362 34.0278C140.499 35.9749 139.094 37.2624 139.149 37.8902C139.247 39.0031 140.244 39.4766 142.142 39.3105C143.355 39.2044 144.541 38.7124 145.701 37.8346C146.685 37.0871 147.561 36.3419 148.33 35.5989C149.112 34.8403 149.603 34.3732 149.804 34.1975C150.018 34.0206 150.183 33.9272 150.297 33.9172C150.668 33.8847 150.889 34.2823 150.962 35.1098C151.034 35.9374 151.032 36.4911 150.956 36.7709C150.879 37.0365 150.621 37.3825 150.184 37.809C147.348 40.5588 144.567 42.0529 141.842 42.2914C140.387 42.4187 139.206 42.3207 138.301 41.9973C136.639 41.4094 135.743 40.3664 135.612 38.8682C135.44 36.8992 136.672 35.2889 139.308 34.0374C138.745 33.8423 138.369 33.5661 138.179 33.2089C137.988 32.8374 137.857 32.2378 137.785 31.4102C137.711 30.5684 138.019 29.6501 138.708 28.6552C139.41 27.6448 140.299 26.7907 141.374 26.0928C143.766 24.5176 145.947 23.6439 147.916 23.4716C148.387 23.4304 148.875 23.5027 149.38 23.6886C149.885 23.8744 150.156 24.1743 150.192 24.588ZM170.366 16.806C170.58 16.7873 170.698 16.8992 170.719 17.1418C170.726 17.2274 170.698 17.309 170.633 17.3866C169.539 18.69 168.207 19.4103 166.638 19.5476C166.267 19.5801 165.835 19.4094 165.342 19.0356C164.848 18.6475 164.566 18.0539 164.496 17.2549C164.426 16.4558 164.834 15.5287 165.719 14.4736C166.603 13.4042 167.871 12.3588 169.521 11.3374C171.184 10.3004 173.285 9.32593 175.821 8.41385C178.358 7.50177 180.661 6.95522 182.73 6.77422C184.799 6.59321 186.512 6.61588 187.869 6.84223C189.225 7.05431 190.295 7.37759 191.081 7.81207C191.88 8.23104 192.548 8.72607 193.087 9.29717C193.99 10.2533 194.489 11.2665 194.582 12.3366C194.675 13.3925 194.428 14.514 193.842 15.7011C193.255 16.8882 192.452 17.9722 191.43 18.9529C190.422 19.9182 189.245 20.8407 187.898 21.7205C185.381 23.3498 182.646 24.6243 179.692 25.544C180.252 26.027 181.453 27.2591 183.294 29.2403C185.148 31.2059 186.822 32.8423 188.317 34.1493C189.826 35.455 190.959 36.0748 191.715 36.0087L192.399 35.69C192.555 35.6763 192.64 35.7337 192.651 35.8621C192.661 35.9762 192.427 36.3489 191.951 36.9801C191.487 37.5958 191.076 38.0703 190.717 38.4036C190.358 38.7369 189.843 38.933 189.172 38.9916C188.516 39.049 187.739 38.7935 186.841 38.2251C185.943 37.6567 184.943 36.8312 183.842 35.7485C182.741 34.6659 181.746 33.6459 180.857 32.6885C179.967 31.7168 178.947 30.5767 177.797 29.2683C176.646 27.9456 175.856 27.0514 175.427 26.5857C175.304 26.8265 174.991 27.4291 174.485 28.3934C173.979 29.3435 173.609 30.0444 173.375 30.4962C173.142 30.948 172.804 31.6101 172.363 32.4826C171.921 33.3409 171.578 34.0322 171.337 34.5565C170.668 35.9522 170.206 36.9919 169.949 37.6757C169.707 38.3582 169.236 38.7301 168.537 38.7913L167.786 38.8354L167.146 38.913C166.261 38.9904 165.786 38.6581 165.722 37.9161C165.673 37.3597 165.839 36.5472 166.22 35.4787C166.614 34.3946 168.816 30.3128 172.826 23.2332C176.835 16.1394 179.056 12.3507 179.488 11.8672C179.919 11.3694 180.246 11.082 180.469 11.005C180.629 10.8616 180.738 10.7874 180.795 10.7824L181.186 10.8129L181.544 10.7168C181.672 10.7056 181.792 10.7527 181.901 10.8581C182.01 10.9492 182.087 11.0072 182.132 11.032C182.77 11.4219 183.102 11.7666 183.129 12.0663C183.155 12.3659 183.102 12.6653 182.97 12.9644C182.851 13.248 182.499 13.9042 181.913 14.9331C181.327 15.9621 180.553 17.3022 179.59 18.9536C178.641 20.5895 177.954 21.7782 177.53 22.5198C178.695 22.3603 180.069 21.8807 181.653 21.0808C183.236 20.2809 184.701 19.3619 186.048 18.3239C187.408 17.2704 188.548 16.1642 189.467 15.0055C190.4 13.8312 190.831 12.8445 190.761 12.0455C190.724 11.6174 190.469 11.2516 189.997 10.9478C189.523 10.6298 188.942 10.4002 188.254 10.2592C186.878 9.97699 185.348 9.90955 183.664 10.0569C181.981 10.2042 179.879 10.7546 177.361 11.7083C174.842 12.6619 173.019 13.5258 171.894 14.3001C170.767 15.06 169.96 15.6985 169.473 16.2156C168.985 16.7183 168.75 17.0625 168.766 17.248C168.774 17.3478 168.922 17.3853 169.207 17.3603C169.507 17.3341 169.764 17.2397 169.98 17.077C170.195 16.9001 170.323 16.8098 170.366 16.806ZM205.368 19.7608C205.451 20.7025 205.138 21.5638 204.43 22.3446C203.736 23.1242 202.904 23.5564 201.934 23.6413C201.62 23.6688 201.406 23.6155 201.294 23.4816C201.181 23.3333 201.113 23.138 201.092 22.8954C201.071 22.6528 201.079 22.4149 201.116 22.1816C200.617 22.3978 200.069 22.7117 199.473 23.1233C198.876 23.535 198.152 24.1303 197.3 24.9093C196.448 25.6884 196.037 26.2491 196.067 26.5916C196.077 26.7057 196.246 26.7484 196.574 26.7197C196.916 26.6898 197.427 26.5301 198.106 26.2406C198.784 25.9369 199.259 25.7731 199.53 25.7494C199.815 25.7245 200.002 25.7225 200.09 25.7435C200.284 25.8272 200.504 26.0309 200.748 26.3546C200.99 26.664 201.12 26.9186 201.138 27.1184C201.154 27.3039 200.99 27.5698 200.647 27.9162C200.303 28.2625 199.904 28.5419 199.448 28.7543C198.991 28.9525 198.687 29.1012 198.538 29.2006C195.675 31.1476 194.27 32.4351 194.325 33.0629C194.423 34.1758 195.42 34.6493 197.318 34.4833C198.531 34.3772 199.717 33.8852 200.877 33.0073C201.861 32.2598 202.737 31.5146 203.506 30.7716C204.288 30.013 204.779 29.5459 204.98 29.3703C205.194 29.1933 205.359 29.0999 205.473 29.0899C205.844 29.0574 206.065 29.455 206.138 30.2826C206.21 31.1101 206.208 31.6638 206.132 31.9437C206.055 32.2092 205.797 32.5552 205.36 32.9817C202.524 35.7315 199.743 37.2257 197.018 37.4641C195.563 37.5914 194.382 37.4934 193.477 37.17C191.815 36.5822 190.919 35.5391 190.788 34.041C190.615 32.0719 191.848 30.4616 194.484 29.2102C193.921 29.015 193.544 28.7388 193.355 28.3816C193.164 28.0101 193.033 27.4105 192.96 26.583C192.887 25.7411 193.195 24.8228 193.884 23.8279C194.586 22.8176 195.475 21.9634 196.55 21.2655C198.942 19.6903 201.123 18.8166 203.092 18.6443C203.563 18.6031 204.051 18.6755 204.556 18.8613C205.061 19.0472 205.332 19.347 205.368 19.7608ZM219.451 29.8726C220.152 29.3368 220.602 28.974 220.801 28.784C220.999 28.5798 221.23 28.3439 221.494 28.0764C221.758 27.8089 221.983 27.667 222.169 27.6508C222.454 27.6258 222.625 27.9415 222.683 28.5978C222.739 29.2399 222.479 29.9671 221.903 30.7795C221.34 31.5764 220.611 32.28 219.716 32.8904C218.819 33.4864 217.852 34.0239 216.816 34.5027C214.758 35.4735 212.981 36.0244 211.482 36.1555C209.999 36.2853 208.615 35.9175 207.331 35.0521C206.047 34.1725 205.336 32.9479 205.198 31.3784C205.06 29.7946 205.314 28.1836 205.962 26.5454C206.608 24.8929 207.493 23.4209 208.616 22.1293C209.753 20.8221 211.102 19.7264 212.664 18.8421C214.239 17.9566 215.826 17.444 217.425 17.3042C218.195 17.2367 218.906 17.3974 219.559 17.786C220.211 18.1746 220.571 18.7542 220.638 19.5247C220.706 20.2952 220.401 21.2564 219.726 22.4082C219.063 23.5445 218.34 24.1469 217.555 24.2156C216.642 24.2955 216.147 23.9002 216.071 23.0299C216.051 22.8016 216.229 22.3762 216.606 21.7537C216.983 21.1313 217.163 20.7202 217.145 20.5204C217.126 20.3064 217.039 20.2063 216.882 20.22C216.097 20.2886 215.279 20.6334 214.427 21.2542C213.576 21.8751 212.805 22.5176 212.116 23.1818C211.441 23.8447 210.807 24.5759 210.216 25.3753C208.93 27.1124 208.363 28.8514 208.516 30.5921C208.577 31.2913 208.851 31.8783 209.338 32.3533C209.838 32.8127 210.617 32.9963 211.672 32.9039C212.743 32.8103 213.802 32.5954 214.851 32.2592C215.899 31.9087 216.752 31.5609 217.412 31.2156C218.085 30.8548 218.765 30.4071 219.451 29.8726ZM233.842 9.7214C233.913 10.5347 233.607 11.3882 232.923 12.2819C232.238 13.1614 231.481 13.6373 230.654 13.7097C229.84 13.7809 229.396 13.3884 229.321 12.5323C229.247 11.6762 229.532 10.8317 230.178 9.99879C230.837 9.15036 231.602 8.68807 232.472 8.61192C232.858 8.57822 233.174 8.65839 233.421 8.85245C233.668 9.0465 233.808 9.33615 233.842 9.7214ZM232.009 28.7092C232.047 29.1373 232.031 29.4478 231.961 29.6408C231.387 31.1288 230.375 32.3819 228.926 33.4001C227.475 34.4041 226.186 34.9553 225.059 35.0539C223.932 35.1526 222.929 34.8593 222.049 34.1743C221.17 33.4892 220.696 32.7543 220.627 31.9695C220.558 31.1848 220.851 30.009 221.505 28.4421C222.158 26.8753 222.822 25.4226 223.496 24.084C224.169 22.7455 224.502 22.0263 224.493 21.9264C224.483 21.8122 224.314 21.6113 223.987 21.3236C223.675 21.0347 223.512 20.8189 223.499 20.6762C223.486 20.5192 223.744 20.1013 224.274 19.4223C224.817 18.7278 225.483 18.0369 226.271 17.3497C227.072 16.647 227.694 16.2763 228.136 16.2376C228.593 16.1977 229.017 16.3619 229.408 16.7302C229.8 17.0985 230.01 17.4467 230.039 17.7749C230.068 18.1031 228.64 21.3407 225.756 27.4879C225.721 27.5772 225.616 27.7805 225.443 28.0976C225.282 28.3992 225.154 28.6548 225.057 28.8646C224.973 29.0588 224.872 29.2977 224.753 29.5813C224.517 30.177 224.417 30.6675 224.45 31.0527C224.493 31.5379 224.842 31.7517 225.499 31.6943C226.155 31.6369 226.813 31.3564 227.474 30.8529C228.147 30.3339 228.717 29.7808 229.183 29.1937C230.398 27.6352 231.099 26.8479 231.284 26.8317C231.655 26.7992 231.897 27.4251 232.009 28.7092ZM229.067 26.8747L228.843 26.2904C228.833 26.1763 228.882 26.0785 228.99 25.9972C229.097 25.9016 229.225 25.725 229.375 25.4675C229.539 25.2087 229.654 25.0405 229.719 24.9629C229.798 24.8841 229.904 24.7742 230.035 24.6333C230.18 24.4769 230.298 24.3515 230.39 24.2572C230.655 23.9897 230.842 23.8366 230.954 23.7981C231.065 23.7453 231.259 23.6636 231.537 23.5531C232.396 23.1903 233.128 22.925 233.731 22.7572C236.838 16.3605 239.34 11.3539 241.238 7.73719C243.149 4.10501 244.238 2.09746 244.507 1.71454C244.788 1.31609 245.309 0.93986 246.069 0.585833C246.828 0.231807 247.387 0.0463244 247.745 0.0293847C248.116 -0.00307171 248.315 0.137653 248.343 0.451558C248.354 0.579973 248.319 0.755564 248.238 0.978328C248.171 1.19984 247.504 2.53063 246.237 4.97069C241.546 13.9645 238.547 19.791 237.241 22.4501L237.793 22.5959C241.05 21.6928 242.742 21.2356 242.871 21.2243C243.014 21.2118 243.365 21.2818 243.924 21.4341C244.497 21.5709 244.87 21.6461 245.044 21.6596C245.377 21.688 245.565 21.9447 245.607 22.4299C245.649 22.9007 245.522 23.1778 245.227 23.2611C244.988 23.3251 244.416 23.519 243.51 23.8427C242.616 24.1509 241.897 24.3935 241.352 24.5706C242.187 25.4034 242.649 26.3263 242.737 27.3393C242.826 28.3524 242.494 29.7329 241.741 31.481C240.987 33.2148 239.982 34.9561 238.726 36.705C237.47 38.454 236.134 40.1164 234.719 41.6923C233.319 43.267 231.951 44.5585 230.616 45.5667C229.282 46.5892 228.28 47.1298 227.609 47.1884C226.924 47.2484 226.301 47.1159 225.741 46.7911C225.168 46.4819 224.85 45.9705 224.787 45.2571C224.725 44.5437 224.802 43.6959 225.018 42.7137C225.221 41.747 225.458 40.8492 225.731 40.0202C226.005 39.2054 226.49 38.0199 227.188 36.4636C227.933 34.7881 229.292 31.9159 231.265 27.847C230.872 27.9533 230.568 28.0158 230.354 28.0345C230.14 28.0532 229.936 28.0208 229.742 27.9371C229.548 27.8535 229.408 27.7363 229.323 27.5856C229.17 27.3114 229.084 27.0745 229.067 26.8747ZM235.888 35.5731C236.849 34.2381 237.635 32.861 238.244 31.4419C238.852 30.0084 239.118 28.8637 239.043 28.0076C238.967 27.1372 238.479 26.4107 237.58 25.828L235.251 26.5709C235.044 26.9916 234.721 27.6596 234.284 28.575C233.859 29.4747 233.506 30.2101 233.226 30.781C232.959 31.3507 232.614 32.0854 232.189 32.9852C231.765 33.885 231.407 34.6424 231.116 35.2573C230.839 35.8711 230.525 36.5599 230.175 37.3238C229.84 38.1007 229.567 38.7572 229.355 39.2933C229.13 39.845 228.919 40.3882 228.721 40.9231C228.338 41.9631 228.159 42.6329 228.185 42.9325C228.212 43.2322 228.303 43.3751 228.46 43.3614C228.746 43.3364 229.309 42.9565 230.151 42.2215C230.979 41.502 231.902 40.5442 232.918 39.3482C233.951 38.1652 234.941 36.9068 235.888 35.5731ZM259.988 14.9822C260.07 15.9239 259.757 16.7852 259.049 17.566C258.355 18.3456 257.523 18.7778 256.553 18.8627C256.239 18.8902 256.026 18.8369 255.914 18.703C255.8 18.5548 255.733 18.3594 255.711 18.1168C255.69 17.8742 255.698 17.6363 255.735 17.403C255.237 17.6192 254.689 17.9331 254.092 18.3447C253.496 18.7564 252.771 19.3517 251.919 20.1308C251.067 20.9098 250.656 21.4705 250.686 21.813C250.696 21.9271 250.865 21.9698 251.194 21.9411C251.536 21.9112 252.047 21.7515 252.726 21.462C253.404 21.1583 253.878 20.9945 254.149 20.9708C254.435 20.9459 254.622 20.9439 254.71 20.965C254.904 21.0486 255.123 21.2523 255.367 21.576C255.61 21.8855 255.74 22.1401 255.757 22.3398C255.774 22.5253 255.61 22.7912 255.266 23.1376C254.923 23.484 254.523 23.7633 254.067 23.9758C253.61 24.1739 253.307 24.3226 253.157 24.422C250.294 26.3691 248.89 27.6565 248.945 28.2843C249.042 29.3972 250.04 29.8707 251.937 29.7047C253.15 29.5986 254.336 29.1066 255.496 28.2287C256.48 27.4813 257.357 26.736 258.126 25.993C258.908 25.2345 259.399 24.7674 259.599 24.5917C259.814 24.4148 259.978 24.3213 260.092 24.3113C260.463 24.2789 260.685 24.6764 260.757 25.504C260.83 26.3315 260.828 26.8852 260.752 27.1651C260.674 27.4307 260.417 27.7767 259.98 28.2031C257.144 30.9529 254.363 32.4471 251.637 32.6855C250.182 32.8128 249.002 32.7148 248.096 32.3915C246.435 31.8036 245.538 30.7606 245.407 29.2624C245.235 27.2933 246.467 25.6831 249.104 24.4316C248.54 24.2364 248.164 23.9603 247.975 23.603C247.784 23.2315 247.652 22.632 247.58 21.8044C247.506 20.9626 247.814 20.0442 248.504 19.0493C249.206 18.039 250.094 17.1848 251.169 16.487C253.562 14.9117 255.743 14.038 257.712 13.8657C258.183 13.8245 258.671 13.8969 259.176 14.0827C259.681 14.2686 259.951 14.5684 259.988 14.9822ZM281.57 5.54575C281.641 6.35905 281.334 7.21256 280.651 8.10629C279.966 8.98575 279.209 9.46169 278.382 9.53409C277.568 9.60524 277.124 9.21277 277.049 8.35666C276.974 7.50056 277.26 6.65605 277.906 5.82314C278.565 4.97471 279.33 4.51243 280.2 4.43628C280.585 4.40257 280.901 4.48275 281.149 4.6768C281.396 4.87085 281.536 5.1605 281.57 5.54575ZM279.737 24.5336C279.775 24.9616 279.759 25.2721 279.689 25.4651C279.115 26.9531 278.103 28.2062 276.654 29.2245C275.203 30.2284 273.914 30.7797 272.787 30.8783C271.66 30.9769 270.656 30.6837 269.777 29.9986C268.898 29.3136 268.424 28.5786 268.355 27.7939C268.286 27.0091 268.579 25.8333 269.232 24.2665C269.886 22.6996 270.55 21.2469 271.223 19.9084C271.897 18.5698 272.23 17.8506 272.221 17.7507C272.211 17.6366 272.042 17.4357 271.715 17.148C271.402 16.8591 271.24 16.6432 271.227 16.5006C271.213 16.3436 271.472 15.9256 272.002 15.2466C272.545 14.5521 273.21 13.8613 273.999 13.1741C274.8 12.4714 275.422 12.1007 275.864 12.062C276.32 12.022 276.745 12.1862 277.136 12.5545C277.528 12.9228 277.738 13.2711 277.767 13.5992C277.796 13.9274 276.368 17.1651 273.484 23.3122C273.448 23.4016 273.344 23.6048 273.17 23.9219C273.01 24.2235 272.881 24.4792 272.785 24.6889C272.701 24.8832 272.6 25.1221 272.481 25.4057C272.245 26.0014 272.144 26.4918 272.178 26.8771C272.221 27.3622 272.57 27.5761 273.226 27.5186C273.883 27.4612 274.541 27.1808 275.202 26.6773C275.875 26.1583 276.445 25.6052 276.911 25.0181C278.126 23.4596 278.827 22.6723 279.012 22.656C279.383 22.6236 279.625 23.2494 279.737 24.5336ZM289.48 25.2124C289.535 25.8402 289.99 26.1167 290.846 26.0418C291.303 26.0018 291.854 25.7236 292.499 25.2071C293.158 24.6893 293.742 24.135 294.251 23.5441C295.606 21.9447 296.384 21.1362 296.584 21.1187C296.955 21.0863 297.187 21.6051 297.281 22.6752C297.374 23.7454 297.103 24.5095 296.467 24.9677C294.588 26.9868 293.109 28.2449 292.031 28.7417C291.422 29.0107 290.739 29.1711 289.982 29.223C289.224 29.2749 288.446 29.0123 287.648 28.4351C286.85 27.8579 286.411 27.1128 286.331 26.1996C286.25 25.2721 286.401 24.2022 286.784 22.9897C287.166 21.7773 287.571 20.7354 287.998 19.8642C288.438 18.9774 288.981 17.9522 289.627 16.7886C290.272 15.6108 290.603 14.8844 290.623 14.6096L290.576 14.5705C290.109 14.6545 289.02 15.6843 287.309 17.66C285.613 19.6343 284.217 21.3452 283.122 22.7925C282.026 24.2399 280.735 26.1572 279.247 28.5447C278.83 29.1994 278.471 29.5399 278.172 29.5661C277.872 29.5923 277.464 29.5345 276.949 29.3927C276.418 29.2379 276.091 29.1227 275.97 29.0471C275.848 28.9715 275.78 28.848 275.765 28.6768C275.75 28.5056 275.782 28.2943 275.86 28.043C275.938 27.7775 276.019 27.5618 276.106 27.3961C276.176 27.2174 276.304 26.9475 276.488 26.5863C276.672 26.2252 277.03 25.4678 277.561 24.3142C278.106 23.1451 278.939 21.4044 280.059 19.0922C281.179 16.7801 281.848 15.3844 282.065 14.9054C282.525 13.9162 282.907 13.1926 283.212 12.7346C283.783 11.8652 284.832 11.3636 286.359 11.2301C286.701 11.2001 286.891 11.3992 286.928 11.8272C286.987 12.4978 286.477 13.8149 285.398 15.7784L284.617 17.2054C286.846 14.2499 288.777 12.334 290.411 11.4578C291.208 11.0287 291.934 10.7854 292.591 10.728C293.261 10.6693 293.805 10.8015 294.221 11.1245C294.652 11.4462 294.887 11.8283 294.925 12.2706C294.963 12.6986 294.858 13.2326 294.613 13.8723C294.365 14.4978 294.106 15.0668 293.835 15.5794C293.576 16.0765 293.229 16.7107 292.793 17.4821C292.358 18.2535 292.121 18.6767 292.085 18.7518C292.047 18.8126 291.948 18.9938 291.787 19.2954C291.64 19.5815 291.529 19.7925 291.455 19.9284C291.38 20.0643 291.257 20.3051 291.086 20.6507C290.914 20.9821 290.773 21.2604 290.663 21.4857C290.568 21.7097 290.441 21.9868 290.283 22.3169C290.139 22.6458 290.02 22.9294 289.926 23.1677C289.846 23.4047 289.761 23.6638 289.671 23.9449C289.515 24.4617 289.451 24.8842 289.48 25.2124Z" fill="#FF8AE2"/>
</svg>
