<svg width="298" height="55" viewBox="0 0 298 55" fill="none" xmlns="http://www.w3.org/2000/svg">
<path d="M37.5579 21.048C37.4009 21.0618 37.3131 20.9616 37.2943 20.7476C37.2756 20.5336 37.3208 20.393 37.43 20.326C37.5522 20.2434 37.7497 20.1183 38.0226 19.9506C38.3085 19.7675 38.5066 19.6495 38.617 19.5967C38.7262 19.5296 38.8971 19.4284 39.1296 19.2931C39.3622 19.1577 39.548 19.0624 39.6869 19.0071C39.8401 18.9505 40.0206 18.8772 40.2284 18.7872C40.5764 18.6561 41.0143 18.5674 41.5422 18.5212C42.0844 18.4738 42.65 18.6112 43.2389 18.9335C43.8421 19.2546 44.1699 19.7147 44.2224 20.314C44.331 21.5554 43.933 23.2508 43.0283 25.4003C42.1224 27.5356 40.9173 29.7833 39.4128 32.1434C37.9084 34.5036 36.2001 36.9175 34.2881 39.3852C32.3761 41.8529 30.4929 44.0737 28.6383 46.0475C26.7838 48.0214 25.0146 49.657 23.3309 50.9545C21.6615 52.2508 20.3488 52.9408 19.3928 53.0244C17.3667 53.2017 16.2732 52.37 16.1121 50.5294C15.8862 47.9468 17.0223 44.0876 19.5203 38.9519C14.4165 46.1847 10.0309 50.9464 6.36374 53.2369C5.40989 53.838 4.669 54.1616 4.14107 54.2078C3.61314 54.254 2.93584 53.9897 2.10917 53.4151C1.29552 52.8249 0.861234 52.2159 0.806308 51.5881C0.495475 48.0352 2.52887 42.8467 6.90649 36.0226C8.57646 33.4179 10.6852 30.4873 13.2327 27.2307C10.9645 29.5714 9.18833 30.7979 7.90418 30.9103C7.21929 30.9702 6.68343 30.6792 6.29658 30.0373C5.9545 29.5784 5.76474 29.1349 5.72729 28.7069C5.68859 28.2646 5.93214 27.7616 6.45794 27.198C6.98374 26.6344 7.29657 26.3482 7.39645 26.3395C7.49633 26.3308 7.5922 26.3583 7.68405 26.4222C7.7759 26.486 7.82432 26.5465 7.82932 26.6036C7.64828 26.8351 7.56089 26.9865 7.56713 27.0578C7.57212 27.1149 7.66023 27.1359 7.83145 27.121C8.00267 27.106 9.35836 26.1679 11.8985 24.3066C14.4374 22.431 15.8353 21.482 16.0921 21.4595C16.8341 21.3946 17.5656 21.5391 18.2867 21.893C19.0065 22.2326 19.3789 22.545 19.4039 22.8304C19.4276 23.1015 19.3168 23.4778 19.0713 23.9594C18.8259 24.441 17.324 26.8296 14.5655 31.1255C11.8057 35.407 9.81008 38.6441 8.57852 40.8366C7.3457 43.0148 6.45917 44.7961 5.91891 46.1805C5.37741 47.5506 5.11915 48.3784 5.14411 48.6637C5.16908 48.9491 5.22437 49.088 5.30998 49.0805C5.90925 49.0281 7.8916 47.0359 11.257 43.1039C14.6355 39.1564 17.8399 35.2745 20.8704 31.4581C23.8996 27.6274 25.5401 25.507 25.7917 25.0968C26.0577 24.6853 26.355 24.3861 26.6837 24.1992C27.0112 23.998 27.5173 23.8675 28.2022 23.8075C30.1142 23.6403 31.102 23.9205 31.1657 24.6482C31.1919 24.9478 30.8265 25.6196 30.0696 26.6635C29.3269 27.7061 28.8037 28.4636 28.4999 28.9359C26.9149 31.3606 25.204 34.7309 23.3675 39.0467C21.5452 43.3612 20.6846 46.0964 20.7857 47.2521C20.8131 47.566 20.9268 47.7142 21.1265 47.6968C21.3405 47.678 21.9191 47.2249 22.8623 46.3372C23.8185 45.434 25.0613 44.1104 26.5909 42.3662C28.1193 40.6079 29.8428 38.4514 31.7616 35.8968C33.6804 33.3423 35.4768 30.5396 37.1509 27.4889C38.838 24.4226 39.6491 22.5185 39.5841 21.7766C39.5192 21.0346 39.2014 20.6886 38.6307 20.7385L37.5579 21.048ZM76.8531 17.6102C76.6961 17.6239 76.6083 17.5237 76.5896 17.3097C76.5708 17.0957 76.616 16.9551 76.7252 16.8881C76.8474 16.8055 77.0449 16.6804 77.3178 16.5127C77.6037 16.3296 77.8018 16.2116 77.9122 16.1588C78.0214 16.0917 78.1923 15.9905 78.4248 15.8552C78.6574 15.7198 78.8432 15.6245 78.9821 15.5692C79.1353 15.5126 79.3158 15.4393 79.5236 15.3493C79.8716 15.2182 80.3095 15.1295 80.8375 15.0834C81.3797 15.0359 81.9452 15.1734 82.5341 15.4956C83.1373 15.8167 83.4652 16.2769 83.5176 16.8761C83.6262 18.1175 83.2282 19.8129 82.3235 21.9624C81.4176 24.0977 80.2125 26.3454 78.708 28.7056C77.2036 31.0657 75.4953 33.4796 73.5833 35.9473C71.6714 38.415 69.7881 40.6358 67.9335 42.6096C66.079 44.5835 64.3098 46.2191 62.6262 47.5167C60.9567 48.8129 59.644 49.5029 58.6881 49.5865C56.6619 49.7638 55.5684 48.9321 55.4073 47.0915C55.1814 44.5089 56.3175 40.6497 58.8156 35.514C53.7117 42.7468 49.3261 47.5085 45.659 49.7991C44.7051 50.4001 43.9642 50.7237 43.4363 50.7699C42.9084 50.8161 42.2311 50.5519 41.4044 49.9772C40.5907 49.387 40.1564 48.778 40.1015 48.1502C39.7907 44.5974 41.8241 39.4088 46.2017 32.5847C47.8717 29.98 49.9804 27.0494 52.5279 23.7928C50.2597 26.1335 48.4835 27.3601 47.1994 27.4724C46.5145 27.5323 45.9786 27.2413 45.5918 26.5994C45.2497 26.1405 45.06 25.697 45.0225 25.269C44.9838 24.8267 45.2274 24.3237 45.7532 23.7601C46.2789 23.1965 46.5918 22.9104 46.6917 22.9016C46.7915 22.8929 46.8874 22.9204 46.9793 22.9843C47.0711 23.0481 47.1195 23.1086 47.1245 23.1657C46.9435 23.3972 46.8561 23.5486 46.8623 23.6199C46.8673 23.677 46.9554 23.6981 47.1267 23.6831C47.2979 23.6681 48.6536 22.73 51.1937 20.8687C53.7326 18.9931 55.1305 18.0441 55.3873 18.0217C56.1293 17.9567 56.8608 18.1012 57.5819 18.4551C58.3017 18.7947 58.6741 19.1072 58.6991 19.3925C58.7228 19.6636 58.612 20.04 58.3665 20.5215C58.1211 21.0031 56.6192 23.3918 53.8607 27.6876C51.1009 31.9691 49.1053 35.2062 47.8737 37.3987C46.6409 39.5769 45.7544 41.3582 45.2141 42.7426C44.6726 44.1127 44.4144 44.9405 44.4393 45.2258C44.4643 45.5112 44.5196 45.6501 44.6052 45.6427C45.2045 45.5902 47.1868 43.598 50.5522 39.666C53.9307 35.7186 57.1351 31.8366 60.1656 28.0202C63.1948 24.1895 64.8353 22.0691 65.0869 21.6589C65.3529 21.2474 65.6502 20.9482 65.9789 20.7613C66.3064 20.5601 66.8125 20.4296 67.4974 20.3697C69.4094 20.2024 70.3972 20.4826 70.4609 21.2103C70.4871 21.5099 70.1217 22.1817 69.3648 23.2256C68.6221 24.2682 68.0989 25.0257 67.7951 25.498C66.2101 27.9227 64.4992 31.293 62.6627 35.6088C60.8404 39.9234 59.9798 42.6585 60.0809 43.8142C60.1084 44.1282 60.222 44.2764 60.4217 44.2589C60.6358 44.2402 61.2143 43.787 62.1575 42.8993C63.1137 41.9961 64.3565 40.6725 65.8861 38.9284C67.4145 37.17 69.138 35.0135 71.0568 32.459C72.9756 29.9044 74.772 27.1017 76.4461 24.051C78.1332 20.9847 78.9443 19.0806 78.8794 18.3387C78.8144 17.5967 78.4966 17.2507 77.9259 17.3006L76.8531 17.6102ZM100.205 32.8419C100.547 32.8119 100.743 33.0751 100.792 33.6316C100.839 34.1738 100.8 35.1261 100.675 36.4886C100.568 37.4037 99.6532 38.7778 97.9301 40.6107C95.8504 42.8055 93.4997 44.4489 90.8779 45.541C89.2962 46.197 87.7278 46.593 86.1725 46.729C84.6315 46.8639 83.1621 46.3382 81.7644 45.1522C80.3797 43.9506 79.6093 42.458 79.4532 40.6744C79.2959 38.8766 79.4904 36.9905 80.0365 35.0161C80.5957 33.0262 81.4055 31.1079 82.466 29.261C83.5396 27.3986 84.8334 25.5889 86.3475 23.8317C87.8758 22.0734 89.4871 20.5234 91.1813 19.1818C92.8755 17.8402 94.6765 16.7337 96.5844 15.8623C98.4923 14.9909 100.331 14.4778 102.1 14.323C103.498 14.2007 104.734 14.603 105.807 15.5299C106.368 16.0271 106.685 16.6896 106.758 17.5171C106.829 18.3304 106.52 19.3998 105.831 20.7254C105.14 22.0366 104.291 23.254 103.282 24.3774C102.287 25.4996 101.236 26.4686 100.129 27.2844C99.0352 28.0989 98.139 28.5368 97.4398 28.598C96.7407 28.6591 96.1227 28.4975 95.5858 28.1132C95.0478 27.7145 94.7637 27.344 94.7338 27.0016C94.7038 26.6591 94.7421 26.2748 94.8486 25.8485C94.9693 25.421 95.1438 25.1972 95.3721 25.1773C95.3213 25.2536 95.299 25.3274 95.3052 25.3988C95.3202 25.57 95.5703 25.6344 96.0554 25.5919C96.5548 25.5482 97.3443 25.0407 98.4239 24.0692C99.5035 23.0977 100.46 22.0292 101.292 20.8636C102.139 19.6968 102.539 18.8423 102.491 18.3001C102.459 17.9292 102.193 17.7655 101.693 17.8092C100.352 17.9266 98.5523 18.7167 96.2936 20.1795C94.0479 21.6268 91.9339 23.4293 89.9516 25.5868C87.9694 27.7443 86.2978 30.2485 84.9369 33.0993C83.5891 35.9346 83.0094 38.4295 83.1979 40.5841C83.2765 41.483 83.575 42.1829 84.0933 42.6839C84.6258 43.1837 85.3844 43.3905 86.3689 43.3044C87.3677 43.217 88.5199 42.8286 89.8254 42.1393C91.131 41.45 92.354 40.6385 93.4944 39.7048C94.6491 38.7699 95.7306 37.8198 96.7388 36.8545C97.7471 35.8893 98.5435 35.0504 99.1282 34.3379C99.7271 33.6241 100.028 33.2024 100.031 33.0727C100.033 32.9288 100.091 32.8518 100.205 32.8419ZM115.858 27.612C116.286 27.5746 116.738 27.7291 117.214 28.0757C117.704 28.421 117.984 28.9932 118.054 29.7922C118.123 30.5769 117.934 31.6286 117.489 32.9472C117.042 34.2515 116.391 35.6024 115.536 37C114.679 38.3833 113.716 39.704 112.648 40.9621C111.592 42.2047 110.418 43.2563 109.128 44.1168C107.85 44.9619 106.662 45.4324 105.564 45.5286C104.465 45.6247 103.55 45.3596 102.82 44.7334C102.102 44.0917 101.69 43.1573 101.582 41.9302C101.474 40.6889 101.654 39.2929 102.122 37.7423C102.604 36.1904 103.274 34.8019 104.13 33.5768C104.985 32.3374 105.929 31.2125 106.962 30.2019C109.124 28.1293 111.082 27.0162 112.837 26.8626C113.622 26.794 114.231 26.9348 114.664 27.2851C114.818 27.401 114.9 27.5089 114.908 27.6088L114.92 27.7372C115.117 27.6912 115.43 27.6495 115.858 27.612ZM113.945 30.6477L113.795 30.6608C113.296 30.7045 113.014 30.3625 112.951 29.6348C111.939 30.0684 110.9 30.7632 109.833 31.7191C108.767 32.6751 107.835 33.7774 107.039 35.0261C105.417 37.5259 104.662 39.5832 104.775 41.198C104.845 41.997 105.172 42.371 105.757 42.3198C106.342 42.2686 107.179 41.8072 108.267 40.9356C109.356 40.064 110.401 38.8655 111.403 37.34C112.42 35.8133 113.161 34.5048 113.626 33.4145C114.105 32.3087 114.328 31.5703 114.295 31.1994C114.261 30.8141 114.145 30.6302 113.945 30.6477ZM142.879 9.35351C143.15 9.32979 143.371 9.39668 143.543 9.55417C143.715 9.71166 143.809 9.88315 143.826 10.0686C143.841 10.2399 143.727 10.5805 143.484 11.0906C143.254 11.5852 142.71 12.6823 141.852 14.382C140.993 16.0675 140.326 17.3911 139.849 18.353C137.071 23.9014 134.92 28.5754 133.398 32.3748C131.876 36.1743 131.148 38.4522 131.214 39.2084L131.229 39.3796C131.28 39.9646 131.52 40.2384 131.948 40.201C132.376 40.1635 132.872 39.9188 133.436 39.4669C134.015 39.0137 134.512 38.5388 134.929 38.0423C135.346 37.5457 135.761 37.0349 136.175 36.5099C136.602 35.9693 136.862 35.6518 136.955 35.5575C137.047 35.4631 137.172 35.4091 137.329 35.3953C137.571 35.3741 137.742 35.5173 137.841 35.825C137.938 36.1184 138.011 36.5433 138.06 37.0998C138.107 37.642 138.096 38.0024 138.025 38.1812C137.681 39.0164 136.854 40.0737 135.542 41.353C134.244 42.6168 132.967 43.3036 131.711 43.4135C129.571 43.6007 128.421 42.7883 128.263 40.9762C128.164 39.849 128.463 38.3348 129.159 36.4335C128.135 38.0328 127.069 39.4128 125.963 40.5736C123.907 42.7088 122.059 43.8482 120.418 43.9918C119.505 44.0717 118.799 43.8099 118.3 43.2065C117.816 42.6019 117.521 41.7003 117.417 40.5018C117.311 39.289 117.655 37.7995 118.449 36.0335C119.243 34.2674 120.281 32.6526 121.562 31.189C122.856 29.7099 124.32 28.446 125.953 27.3973C127.586 26.3343 129.122 25.7398 130.564 25.6137C131.02 25.5738 131.58 25.8052 132.242 26.308C132.598 25.6154 133.247 24.236 134.187 22.1696C137.168 15.9709 139.164 12.173 140.178 10.776C140.709 9.93876 141.609 9.46461 142.879 9.35351ZM131.112 28.4341C129.098 29.0704 127.269 30.1937 125.627 31.8038C123.985 33.414 122.792 35.0568 122.047 36.7323C121.301 38.3935 120.949 39.4595 120.99 39.9304C121.031 40.4012 121.151 40.6279 121.351 40.6104C122.207 40.5355 124.159 38.4382 127.206 34.3184C128.725 32.2877 130.027 30.3262 131.112 28.4341ZM150.192 24.9101C150.275 25.8518 149.962 26.7131 149.254 27.4939C148.56 28.2735 147.728 28.7057 146.758 28.7906C146.444 28.8181 146.231 28.7648 146.118 28.6309C146.005 28.4827 145.937 28.2873 145.916 28.0447C145.895 27.8021 145.903 27.5642 145.94 27.3309C145.441 27.5471 144.893 27.861 144.297 28.2726C143.7 28.6843 142.976 29.2796 142.124 30.0586C141.272 30.8377 140.861 31.3984 140.891 31.7409C140.901 31.855 141.07 31.8977 141.398 31.869C141.741 31.8391 142.251 31.6794 142.93 31.3899C143.608 31.0862 144.083 30.9224 144.354 30.8987C144.639 30.8738 144.826 30.8718 144.914 30.8928C145.108 30.9765 145.328 31.1802 145.572 31.5039C145.814 31.8133 145.944 32.0679 145.962 32.2677C145.978 32.4532 145.814 32.7191 145.471 33.0655C145.127 33.4118 144.728 33.6912 144.272 33.9036C143.815 34.1018 143.511 34.2505 143.362 34.3499C140.499 36.297 139.094 37.5844 139.149 38.2122C139.247 39.3251 140.244 39.7986 142.142 39.6326C143.355 39.5265 144.541 39.0345 145.701 38.1566C146.685 37.4092 147.561 36.6639 148.33 35.9209C149.112 35.1624 149.603 34.6952 149.804 34.5196C150.018 34.3426 150.183 34.2492 150.297 34.2392C150.668 34.2067 150.889 34.6043 150.962 35.4319C151.034 36.2594 151.032 36.8131 150.956 37.093C150.879 37.3585 150.621 37.7046 150.184 38.131C147.348 40.8808 144.567 42.375 141.842 42.6134C140.387 42.7407 139.206 42.6427 138.301 42.3194C136.639 41.7315 135.743 40.6884 135.612 39.1903C135.44 37.2212 136.672 35.611 139.308 34.3595C138.745 34.1643 138.369 33.8882 138.179 33.5309C137.988 33.1594 137.857 32.5598 137.785 31.7323C137.711 30.8904 138.019 29.9721 138.708 28.9772C139.41 27.9669 140.299 27.1127 141.374 26.4148C143.766 24.8396 145.947 23.9659 147.916 23.7936C148.387 23.7524 148.875 23.8248 149.38 24.0106C149.885 24.1965 150.156 24.4963 150.192 24.9101ZM170.366 17.128C170.58 17.1093 170.698 17.2212 170.719 17.4638C170.726 17.5494 170.698 17.631 170.633 17.7086C169.539 19.012 168.207 19.7324 166.638 19.8697C166.267 19.9021 165.835 19.7314 165.342 19.3576C164.848 18.9695 164.566 18.3759 164.496 17.5769C164.426 16.7779 164.834 15.8508 165.719 14.7956C166.603 13.7262 167.871 12.6808 169.521 11.6594C171.184 10.6225 173.285 9.64796 175.821 8.73588C178.358 7.8238 180.661 7.27726 182.73 7.09625C184.799 6.91525 186.512 6.93792 187.869 7.16427C189.225 7.37634 190.295 7.69963 191.081 8.13411C191.88 8.55307 192.548 9.0481 193.087 9.6192C193.99 10.5754 194.489 11.5885 194.582 12.6587C194.675 13.7145 194.428 14.836 193.842 16.0231C193.255 17.2103 192.452 18.2942 191.43 19.275C190.422 20.2402 189.245 21.1627 187.898 22.0426C185.381 23.6718 182.646 24.9463 179.692 25.866C180.252 26.349 181.453 27.5811 183.294 29.5623C185.148 31.528 186.822 33.1643 188.317 34.4713C189.826 35.7771 190.959 36.3969 191.715 36.3307L192.399 36.0121C192.555 35.9983 192.64 36.0557 192.651 36.1841C192.661 36.2983 192.427 36.6709 191.951 37.3021C191.487 37.9178 191.076 38.3923 190.717 38.7256C190.358 39.059 189.843 39.255 189.172 39.3137C188.516 39.3711 187.739 39.1156 186.841 38.5472C185.943 37.9787 184.943 37.1532 183.842 36.0706C182.741 34.9879 181.746 33.9679 180.857 33.0105C179.967 32.0388 178.947 30.8988 177.797 29.5903C176.646 28.2676 175.856 27.3734 175.427 26.9078C175.304 27.1485 174.991 27.7511 174.485 28.7155C173.979 29.6656 173.609 30.3665 173.375 30.8183C173.142 31.27 172.804 31.9322 172.363 32.8047C171.921 33.6629 171.578 34.3542 171.337 34.8786C170.668 36.2742 170.206 37.3139 169.949 37.9977C169.707 38.6803 169.236 39.0521 168.537 39.1133L167.786 39.1574L167.146 39.235C166.261 39.3124 165.786 38.9801 165.722 38.2382C165.673 37.6817 165.839 36.8692 166.22 35.8007C166.614 34.7167 168.816 30.6349 172.826 23.5553C176.835 16.4614 179.056 12.6727 179.488 12.1892C179.919 11.6915 180.246 11.404 180.469 11.327C180.629 11.1836 180.738 11.1094 180.795 11.1044L181.186 11.1349L181.544 11.0389C181.672 11.0276 181.792 11.0747 181.901 11.1801C182.01 11.2713 182.087 11.3292 182.132 11.354C182.77 11.7439 183.102 12.0887 183.129 12.3883C183.155 12.688 183.102 12.9873 182.97 13.2864C182.851 13.57 182.499 14.2263 181.913 15.2552C181.327 16.2841 180.553 17.6243 179.59 19.2756C178.641 20.9115 177.954 22.1002 177.53 22.8418C178.695 22.6824 180.069 22.2027 181.653 21.4028C183.236 20.6029 184.701 19.6839 186.048 18.6459C187.408 17.5924 188.548 16.4863 189.467 15.3275C190.4 14.1532 190.831 13.1666 190.761 12.3675C190.724 11.9395 190.469 11.5736 189.997 11.2698C189.523 10.9518 188.942 10.7223 188.254 10.5812C186.878 10.299 185.348 10.2316 183.664 10.3789C181.981 10.5262 179.879 11.0767 177.361 12.0303C174.842 12.9839 173.019 13.8479 171.894 14.6221C170.767 15.382 169.96 16.0205 169.473 16.5376C168.985 17.0404 168.75 17.3845 168.766 17.57C168.774 17.6699 168.922 17.7073 169.207 17.6824C169.507 17.6561 169.764 17.5617 169.98 17.3991C170.195 17.2221 170.323 17.1318 170.366 17.128ZM205.368 20.0828C205.451 21.0245 205.138 21.8858 204.43 22.6666C203.736 23.4462 202.904 23.8784 201.934 23.9633C201.62 23.9908 201.406 23.9375 201.294 23.8036C201.181 23.6554 201.113 23.46 201.092 23.2174C201.071 22.9749 201.079 22.7369 201.116 22.5037C200.617 22.7198 200.069 23.0337 199.473 23.4454C198.876 23.857 198.152 24.4523 197.3 25.2314C196.448 26.0104 196.037 26.5712 196.067 26.9136C196.077 27.0278 196.246 27.0705 196.574 27.0418C196.916 27.0118 197.427 26.8521 198.106 26.5626C198.784 26.2589 199.259 26.0952 199.53 26.0715C199.815 26.0465 200.002 26.0445 200.09 26.0656C200.284 26.1492 200.504 26.3529 200.748 26.6766C200.99 26.9861 201.12 27.2407 201.138 27.4404C201.154 27.6259 200.99 27.8919 200.647 28.2382C200.303 28.5846 199.904 28.864 199.448 29.0764C198.991 29.2745 198.687 29.4233 198.538 29.5226C195.675 31.4697 194.27 32.7571 194.325 33.3849C194.423 34.4979 195.42 34.9713 197.318 34.8053C198.531 34.6992 199.717 34.2072 200.877 33.3294C201.861 32.5819 202.737 31.8366 203.506 31.0936C204.288 30.3351 204.779 29.868 204.98 29.6923C205.194 29.5154 205.359 29.4219 205.473 29.4119C205.844 29.3795 206.065 29.777 206.138 30.6046C206.21 31.4322 206.208 31.9859 206.132 32.2657C206.055 32.5313 205.797 32.8773 205.36 33.3037C202.524 36.0536 199.743 37.5477 197.018 37.7861C195.563 37.9135 194.382 37.8154 193.477 37.4921C191.815 36.9042 190.919 35.8612 190.788 34.363C190.615 32.3939 191.848 30.7837 194.484 29.5322C193.921 29.3371 193.544 29.0609 193.355 28.7036C193.164 28.3321 193.033 27.7326 192.96 26.905C192.887 26.0632 193.195 25.1448 193.884 24.15C194.586 23.1396 195.475 22.2855 196.55 21.5876C198.942 20.0124 201.123 19.1386 203.092 18.9664C203.563 18.9252 204.051 18.9975 204.556 19.1834C205.061 19.3692 205.332 19.669 205.368 20.0828ZM219.451 30.1946C220.152 29.6589 220.602 29.296 220.801 29.106C220.999 28.9018 221.23 28.666 221.494 28.3984C221.758 28.1309 221.983 27.989 222.169 27.9728C222.454 27.9478 222.625 28.2635 222.683 28.9199C222.739 29.5619 222.479 30.2892 221.903 31.1016C221.34 31.8985 220.611 32.6021 219.716 33.2124C218.819 33.8084 217.852 34.3459 216.816 34.8248C214.758 35.7955 212.981 36.3465 211.482 36.4775C209.999 36.6074 208.615 36.2396 207.331 35.3742C206.047 34.4945 205.336 33.2699 205.198 31.7004C205.06 30.1166 205.314 28.5056 205.962 26.8674C206.608 25.215 207.493 23.7429 208.616 22.4513C209.753 21.1442 211.102 20.0484 212.664 19.1642C214.239 18.2787 215.826 17.766 217.425 17.6262C218.195 17.5588 218.906 17.7194 219.559 18.108C220.211 18.4967 220.571 19.0763 220.638 19.8467C220.706 20.6172 220.401 21.5784 219.726 22.7302C219.063 23.8665 218.34 24.469 217.555 24.5376C216.642 24.6175 216.147 24.2223 216.071 23.3519C216.051 23.1236 216.229 22.6982 216.606 22.0758C216.983 21.4533 217.163 21.0422 217.145 20.8425C217.126 20.6284 217.039 20.5283 216.882 20.542C216.097 20.6107 215.279 20.9554 214.427 21.5763C213.576 22.1971 212.805 22.8396 212.116 23.5038C211.441 24.1668 210.807 24.8979 210.216 25.6973C208.93 27.4345 208.363 29.1734 208.516 30.9142C208.577 31.6133 208.851 32.2004 209.338 32.6753C209.838 33.1348 210.617 33.3183 211.672 33.2259C212.743 33.1323 213.802 32.9174 214.851 32.5812C215.899 32.2308 216.752 31.8829 217.412 31.5376C218.085 31.1768 218.765 30.7291 219.451 30.1946ZM233.842 10.0434C233.913 10.8567 233.607 11.7102 232.923 12.604C232.238 13.4834 231.481 13.9594 230.654 14.0318C229.84 14.1029 229.396 13.7105 229.321 12.8543C229.247 11.9982 229.532 11.1537 230.178 10.3208C230.837 9.4724 231.602 9.01011 232.472 8.93396C232.858 8.90025 233.174 8.98043 233.421 9.17448C233.668 9.36854 233.808 9.65819 233.842 10.0434ZM232.009 29.0313C232.047 29.4593 232.031 29.7698 231.961 29.9628C231.387 31.4508 230.375 32.7039 228.926 33.7221C227.475 34.7261 226.186 35.2774 225.059 35.376C223.932 35.4746 222.929 35.1814 222.049 34.4963C221.17 33.8112 220.696 33.0763 220.627 32.2916C220.558 31.5068 220.851 30.331 221.505 28.7641C222.158 27.1973 222.822 25.7446 223.496 24.4061C224.169 23.0675 224.502 22.3483 224.493 22.2484C224.483 22.1343 224.314 21.9334 223.987 21.6457C223.675 21.3567 223.512 21.1409 223.499 20.9982C223.486 20.8413 223.744 20.4233 224.274 19.7443C224.817 19.0498 225.483 18.359 226.271 17.6718C227.072 16.9691 227.694 16.5984 228.136 16.5597C228.593 16.5197 229.017 16.6839 229.408 17.0522C229.8 17.4205 230.01 17.7687 230.039 18.0969C230.068 18.4251 228.64 21.6628 225.756 27.8099C225.721 27.8993 225.616 28.1025 225.443 28.4196C225.282 28.7212 225.154 28.9769 225.057 29.1866C224.973 29.3808 224.872 29.6198 224.753 29.9033C224.517 30.499 224.417 30.9895 224.45 31.3748C224.493 31.8599 224.842 32.0737 225.499 32.0163C226.155 31.9589 226.813 31.6784 227.474 31.175C228.147 30.6559 228.717 30.1029 229.183 29.5157C230.398 27.9573 231.099 27.1699 231.284 27.1537C231.655 27.1213 231.897 27.7471 232.009 29.0313ZM229.067 27.1968L228.843 26.6125C228.833 26.4983 228.882 26.4006 228.99 26.3193C229.097 26.2237 229.225 26.0471 229.375 25.7895C229.539 25.5308 229.654 25.3626 229.719 25.285C229.798 25.2061 229.904 25.0963 230.035 24.9554C230.18 24.799 230.298 24.6736 230.39 24.5792C230.655 24.3117 230.842 24.1587 230.954 24.1202C231.065 24.0674 231.259 23.9857 231.537 23.8751C232.396 23.5123 233.128 23.247 233.731 23.0792C236.838 16.6826 239.34 11.6759 241.238 8.05923C243.149 4.42705 244.238 2.4195 244.507 2.03657C244.788 1.63813 245.309 1.2619 246.069 0.90787C246.828 0.553844 247.387 0.368361 247.745 0.351421C248.116 0.318965 248.315 0.459689 248.343 0.773594C248.354 0.90201 248.319 1.0776 248.238 1.30036C248.171 1.52188 247.504 2.85267 246.237 5.29273C241.546 14.2866 238.547 20.1131 237.241 22.7721L237.793 22.9179C241.05 22.0148 242.742 21.5576 242.871 21.5464C243.014 21.5339 243.365 21.6038 243.924 21.7561C244.497 21.8929 244.87 21.9681 245.044 21.9817C245.377 22.01 245.565 22.2668 245.607 22.7519C245.649 23.2228 245.522 23.4998 245.227 23.5831C244.988 23.6471 244.416 23.841 243.51 24.1647C242.616 24.4729 241.897 24.7155 241.352 24.8926C242.187 25.7254 242.649 26.6483 242.737 27.6614C242.826 28.6744 242.494 30.055 241.741 31.803C240.987 33.5368 239.982 35.2781 238.726 37.0271C237.47 38.776 236.134 40.4384 234.719 42.0144C233.319 43.5891 231.951 44.8805 230.616 45.8887C229.282 46.9112 228.28 47.4518 227.609 47.5105C226.924 47.5704 226.301 47.438 225.741 47.1132C225.168 46.8039 224.85 46.2926 224.787 45.5791C224.725 44.8657 224.802 44.0179 225.018 43.0357C225.221 42.069 225.458 41.1712 225.731 40.3422C226.005 39.5275 226.49 38.342 227.188 36.7856C227.933 35.1102 229.292 32.238 231.265 28.169C230.872 28.2753 230.568 28.3378 230.354 28.3565C230.14 28.3753 229.936 28.3428 229.742 28.2591C229.548 28.1755 229.408 28.0583 229.323 27.9076C229.17 27.6335 229.084 27.3965 229.067 27.1968ZM235.888 35.8951C236.849 34.5601 237.635 33.1831 238.244 31.7639C238.852 30.3305 239.118 29.1857 239.043 28.3296C238.967 27.4592 238.479 26.7327 237.58 26.15L235.251 26.8929C235.044 27.3136 234.721 27.9817 234.284 28.897C233.859 29.7968 233.506 30.5321 233.226 31.103C232.959 31.6727 232.614 32.4074 232.189 33.3072C231.765 34.207 231.407 34.9644 231.116 35.5794C230.839 36.1931 230.525 36.8819 230.175 37.6458C229.84 38.4227 229.567 39.0792 229.355 39.6154C229.13 40.167 228.919 40.7103 228.721 41.2452C228.338 42.2851 228.159 42.9549 228.185 43.2546C228.212 43.5542 228.303 43.6972 228.46 43.6834C228.746 43.6585 229.309 43.2785 230.151 42.5435C230.979 41.824 231.902 40.8663 232.918 39.6702C233.951 38.4872 234.941 37.2288 235.888 35.8951ZM259.988 15.3042C260.07 16.2459 259.757 17.1072 259.049 17.888C258.355 18.6676 257.523 19.0999 256.553 19.1847C256.239 19.2122 256.026 19.159 255.914 19.025C255.8 18.8768 255.733 18.6814 255.711 18.4388C255.69 18.1963 255.698 17.9584 255.735 17.7251C255.237 17.9412 254.689 18.2551 254.092 18.6668C253.496 19.0784 252.771 19.6737 251.919 20.4528C251.067 21.2318 250.656 21.7926 250.686 22.135C250.696 22.2492 250.865 22.2919 251.194 22.2632C251.536 22.2332 252.047 22.0735 252.726 21.784C253.404 21.4803 253.878 21.3166 254.149 21.2929C254.435 21.2679 254.622 21.2659 254.71 21.287C254.904 21.3706 255.123 21.5743 255.367 21.898C255.61 22.2075 255.74 22.4621 255.757 22.6618C255.774 22.8473 255.61 23.1133 255.266 23.4596C254.923 23.806 254.523 24.0854 254.067 24.2978C253.61 24.4959 253.307 24.6447 253.157 24.744C250.294 26.6911 248.89 27.9785 248.945 28.6063C249.042 29.7193 250.04 30.1927 251.937 30.0267C253.15 29.9206 254.336 29.4286 255.496 28.5508C256.48 27.8033 257.357 27.0581 258.126 26.315C258.908 25.5565 259.399 25.0894 259.599 24.9137C259.814 24.7368 259.978 24.6433 260.092 24.6333C260.463 24.6009 260.685 24.9984 260.757 25.826C260.83 26.6536 260.828 27.2073 260.752 27.4871C260.674 27.7527 260.417 28.0987 259.98 28.5251C257.144 31.275 254.363 32.7691 251.637 33.0076C250.182 33.1349 249.002 33.0369 248.096 32.7135C246.435 32.1256 245.538 31.0826 245.407 29.5844C245.235 27.6154 246.467 26.0051 249.104 24.7536C248.54 24.5585 248.164 24.2823 247.975 23.9251C247.784 23.5535 247.652 22.954 247.58 22.1264C247.506 21.2846 247.814 20.3662 248.504 19.3714C249.206 18.361 250.094 17.5069 251.169 16.809C253.562 15.2338 255.743 14.36 257.712 14.1878C258.183 14.1466 258.671 14.2189 259.176 14.4048C259.681 14.5906 259.951 14.8904 259.988 15.3042ZM281.57 5.86779C281.641 6.68109 281.334 7.5346 280.651 8.42833C279.966 9.30779 279.209 9.78372 278.382 9.85613C277.568 9.92728 277.124 9.53481 277.049 8.6787C276.974 7.8226 277.26 6.97809 277.906 6.14518C278.565 5.29675 279.33 4.83446 280.2 4.75831C280.585 4.72461 280.901 4.80478 281.149 4.99884C281.396 5.19289 281.536 5.48254 281.57 5.86779ZM279.737 24.8556C279.775 25.2837 279.759 25.5942 279.689 25.7872C279.115 27.2752 278.103 28.5283 276.654 29.5465C275.203 30.5504 273.914 31.1017 272.787 31.2003C271.66 31.299 270.656 31.0057 269.777 30.3207C268.898 29.6356 268.424 28.9007 268.355 28.1159C268.286 27.3311 268.579 26.1553 269.232 24.5885C269.886 23.0217 270.55 21.569 271.223 20.2304C271.897 18.8919 272.23 18.1727 272.221 18.0728C272.211 17.9586 272.042 17.7577 271.715 17.47C271.402 17.1811 271.24 16.9653 271.227 16.8226C271.213 16.6656 271.472 16.2477 272.002 15.5687C272.545 14.8742 273.21 14.1833 273.999 13.4961C274.8 12.7934 275.422 12.4227 275.864 12.384C276.32 12.3441 276.745 12.5082 277.136 12.8766C277.528 13.2449 277.738 13.5931 277.767 13.9213C277.796 14.2494 276.368 17.4871 273.484 23.6343C273.448 23.7236 273.344 23.9269 273.17 24.244C273.01 24.5456 272.881 24.8012 272.785 25.011C272.701 25.2052 272.6 25.4441 272.481 25.7277C272.245 26.3234 272.144 26.8139 272.178 27.1991C272.221 27.6842 272.57 27.8981 273.226 27.8407C273.883 27.7832 274.541 27.5028 275.202 26.9993C275.875 26.4803 276.445 25.9272 276.911 25.3401C278.126 23.7816 278.827 22.9943 279.012 22.9781C279.383 22.9456 279.625 23.5715 279.737 24.8556ZM289.48 25.5345C289.535 26.1623 289.99 26.4387 290.846 26.3638C291.303 26.3239 291.854 26.0456 292.499 25.5291C293.158 25.0114 293.742 24.4571 294.251 23.8662C295.606 22.2667 296.384 21.4582 296.584 21.4408C296.955 21.4083 297.187 21.9271 297.281 22.9973C297.374 24.0674 297.103 24.8316 296.467 25.2897C294.588 27.3089 293.109 28.5669 292.031 29.0638C291.422 29.3327 290.739 29.4932 289.982 29.545C289.224 29.5969 288.446 29.3343 287.648 28.7571C286.85 28.18 286.411 27.4348 286.331 26.5216C286.25 25.5942 286.401 24.5242 286.784 23.3118C287.166 22.0993 287.571 21.0575 287.998 20.1862C288.438 19.2994 288.981 18.2742 289.627 17.1107C290.272 15.9328 290.603 15.2065 290.623 14.9316L290.576 14.8926C290.109 14.9766 289.02 16.0064 287.309 17.982C285.613 19.9564 284.217 21.6672 283.122 23.1146C282.026 24.5619 280.735 26.4793 279.247 28.8667C278.83 29.5215 278.471 29.8619 278.172 29.8882C277.872 29.9144 277.464 29.8566 276.949 29.7148C276.418 29.56 276.091 29.4447 275.97 29.3691C275.848 29.2935 275.78 29.1701 275.765 28.9988C275.75 28.8276 275.782 28.6164 275.86 28.3651C275.938 28.0995 276.019 27.8839 276.106 27.7182C276.176 27.5395 276.304 27.2695 276.488 26.9084C276.672 26.5472 277.03 25.7898 277.561 24.6362C278.106 23.4671 278.939 21.7265 280.059 19.4143C281.179 17.1021 281.848 15.7065 282.065 15.2274C282.525 14.2383 282.907 13.5147 283.212 13.0567C283.783 12.1872 284.832 11.6857 286.359 11.5521C286.701 11.5221 286.891 11.7212 286.928 12.1492C286.987 12.8199 286.477 14.1369 285.398 16.1004L284.617 17.5274C286.846 14.5719 288.777 12.6561 290.411 11.7798C291.208 11.3507 291.934 11.1074 292.591 11.05C293.261 10.9913 293.805 11.1235 294.221 11.4465C294.652 11.7683 294.887 12.1503 294.925 12.5926C294.963 13.0207 294.858 13.5546 294.613 14.1943C294.365 14.8198 294.106 15.3889 293.835 15.9015C293.576 16.3985 293.229 17.0328 292.793 17.8041C292.358 18.5755 292.121 18.9988 292.085 19.0738C292.047 19.1347 291.948 19.3159 291.787 19.6175C291.64 19.9035 291.529 20.1145 291.455 20.2504C291.38 20.3864 291.257 20.6271 291.086 20.9728C290.914 21.3042 290.773 21.5825 290.663 21.8077C290.568 22.0318 290.441 22.3088 290.283 22.639C290.139 22.9678 290.02 23.2514 289.926 23.4897C289.846 23.7267 289.761 23.9858 289.671 24.2669C289.515 24.7838 289.451 25.2063 289.48 25.5345Z" fill="white"/>
</svg>
