<svg width="50" height="50" viewBox="0 0 50 50" fill="none" xmlns="http://www.w3.org/2000/svg">
<path d="M50 5.92448C48.1244 6.94317 46.14 7.6143 44.1094 7.91666C46.2434 6.35466 47.8482 3.87314 48.6229 0.937519C46.6053 2.41224 44.4016 3.44698 42.1063 3.99741C41.1397 2.73117 39.9772 1.72385 38.6895 1.03667C37.4018 0.349481 36.0158 -0.00321266 34.6156 2.205e-05C28.9469 2.205e-05 24.3594 5.65104 24.3594 12.6172C24.3554 13.5861 24.4442 14.5522 24.624 15.4948C20.559 15.2566 16.5787 13.9604 12.9375 11.6891C9.29629 9.41787 6.07446 6.22156 3.47812 2.3047C2.56727 4.22412 2.08555 6.41412 2.08333 8.64583C2.08333 13.0208 3.90937 16.888 6.66667 19.1536C5.03305 19.1051 3.43291 18.5647 2.00208 17.5781V17.7343C2.00208 23.8541 5.54375 28.9452 10.2312 30.1041C9.34977 30.3978 8.44143 30.5466 7.52917 30.5468C6.88185 30.5482 6.23601 30.4697 5.60104 30.3124C6.90417 35.3254 10.6969 38.9713 15.1896 39.0754C11.5389 42.5922 7.05689 44.493 2.44792 44.4791C1.62981 44.4775 0.812464 44.4167 0 44.2968C4.68873 48.0392 10.139 50.0188 15.7021 49.9999C34.5938 49.9999 44.9146 30.7682 44.9146 14.0885C44.9146 13.5416 44.9031 12.9948 44.8823 12.4609C46.8855 10.6798 48.6185 8.46629 50 5.92448Z" fill="#00707A"/>
</svg>
