<svg width="75" height="75" viewBox="0 0 75 75" fill="none" xmlns="http://www.w3.org/2000/svg">
<circle cx="37.5" cy="37.5" r="37.5" fill="#183D5D"/>
<path d="M55 24.1471C53.6871 24.8602 52.298 25.33 50.8766 25.5417C52.3704 24.4483 53.4938 22.7112 54.036 20.6563C52.6237 21.6886 51.0811 22.4129 49.4744 22.7982C48.7978 21.9118 47.9841 21.2067 47.0827 20.7257C46.1813 20.2446 45.211 19.9978 44.2309 20C40.2628 20 37.0516 23.9557 37.0516 28.832C37.0487 29.5103 37.1109 30.1865 37.2368 30.8463C34.3913 30.6796 31.6051 29.7723 29.0562 28.1824C26.5074 26.5925 24.2521 24.3551 22.4347 21.6133C21.7971 22.9569 21.4599 24.4899 21.4583 26.0521C21.4583 29.1146 22.7366 31.8216 24.6667 33.4075C23.5231 33.3736 22.403 32.9953 21.4015 32.3047V32.414C21.4015 36.6979 23.8806 40.2617 27.1619 41.0729C26.5448 41.2785 25.909 41.3827 25.2704 41.3828C24.8173 41.3838 24.3652 41.3288 23.9207 41.2187C24.8329 44.7278 27.4878 47.2799 30.6327 47.3528C28.0773 49.8146 24.9398 51.1451 21.7135 51.1353C21.1409 51.1343 20.5687 51.0917 20 51.0077C23.2821 53.6275 27.0973 55.0132 30.9915 54.9999C44.2156 54.9999 51.4402 41.5377 51.4402 29.862C51.4402 29.4792 51.4322 29.0963 51.4176 28.7226C52.8199 27.4758 54.033 25.9264 55 24.1471Z" fill="#FF8AE2"/>
</svg>
