<svg width="50" height="50" viewBox="0 0 50 50" fill="none" xmlns="http://www.w3.org/2000/svg">
<path d="M5.86364 44.1583H38.2705L36.7227 39.5646L40.425 42.4771L43.8182 45.2646L50 50V5.15625C49.8455 2.36875 47.2273 0 43.9818 0L5.875 0.00625C2.63182 0.00625 0 2.37917 0 5.16667V39C0 41.9396 2.62727 44.1583 5.86364 44.1583V44.1583ZM29.8364 11.8396L29.7614 11.8646L29.7886 11.8396H29.8364ZM12.4932 14.4833C16.6591 11.7042 20.5205 11.8375 20.5205 11.8375L20.8318 12.1187C15.7341 13.2333 13.4227 15.3208 13.4227 15.3208C13.4227 15.3208 14.0409 15.0437 15.1205 14.6208C21.9864 12.1458 29.4841 12.325 36.425 15.4583C36.425 15.4583 34.1091 13.5062 29.325 12.2562L29.7477 11.875C30.4091 11.8771 33.9091 11.9896 37.6545 14.5C37.6545 14.5 41.8455 21.0625 41.8455 29.125C41.7068 28.9708 39.2455 32.5958 32.9114 32.7208C32.9114 32.7208 31.8386 31.6083 31.075 30.6375C34.7795 29.6625 36.1659 27.7125 36.1659 27.7125C34.95 28.4146 33.8409 28.8312 32.9409 29.2479C31.5568 29.8062 30.1705 30.0812 28.7864 30.3625C22.2318 31.3375 18.5523 29.7062 15.075 28.4125L13.8864 27.8583C13.8864 27.8583 15.2705 29.8083 18.8273 30.7833C17.8932 31.7604 16.9682 32.8708 16.9682 32.8708C10.6364 32.7333 8.32727 29.1083 8.32727 29.1083C8.32727 21.0333 12.4932 14.4833 12.4932 14.4833V14.4833Z" fill="#00707A"/>
<path d="M30.2453 26.6066C31.8612 26.6066 33.1771 25.3566 33.1771 23.8149C33.1771 22.2837 31.868 21.0337 30.2453 21.0337V21.0399C28.6362 21.0399 27.318 22.2858 27.3135 23.8274C27.3135 25.3566 28.6294 26.6066 30.2453 26.6066Z" fill="#00707A"/>
<path d="M19.7502 26.6066C21.3661 26.6066 22.682 25.3566 22.682 23.8149C22.682 22.2837 21.3752 21.0337 19.7593 21.0337L19.7502 21.0399C18.1343 21.0399 16.8184 22.2858 16.8184 23.8274C16.8184 25.3566 18.1343 26.6066 19.7502 26.6066V26.6066Z" fill="#00707A"/>
</svg>
