<svg width="50" height="50" viewBox="0 0 50 50" fill="none" xmlns="http://www.w3.org/2000/svg">
<path d="M46.001 0H4.27231C1.99218 0 0 1.64062 0 3.89397V45.7154C0 47.981 1.99218 50 4.27231 50H45.9888C48.2812 50 49.9999 47.9676 49.9999 45.7154V3.89397C50.0133 1.64062 48.2812 0 46.001 0ZM15.4989 41.6775H8.33593V19.4062H15.4989V41.6775ZM12.1652 16.0201H12.1138C9.82141 16.0201 8.33704 14.3136 8.33704 12.1775C8.33704 10.0022 9.86048 8.33594 12.2042 8.33594C14.548 8.33594 15.9821 9.98995 16.0335 12.1775C16.0323 14.3136 14.548 16.0201 12.1652 16.0201ZM41.6774 41.6775H34.5145V29.5C34.5145 26.5826 33.472 24.5893 30.8805 24.5893C28.9006 24.5893 27.7288 25.9286 27.2075 27.2333C27.0122 27.702 26.9598 28.3404 26.9598 28.9922V41.6775H19.7968V19.4062H26.9598V22.5056C28.0022 21.0212 29.6305 18.885 33.4196 18.885C38.1216 18.885 41.6785 21.9844 41.6785 28.6663L41.6774 41.6775Z" fill="#00707A"/>
</svg>
