<svg width="50" height="49" viewBox="0 0 50 49" fill="none" xmlns="http://www.w3.org/2000/svg">
<path d="M44.246 22.7795C44.246 20.4741 42.7043 18.5299 40.5961 17.9183C40.6095 17.7159 40.6169 17.5118 40.6169 17.306C40.6169 12.2392 36.5094 8.13169 31.4426 8.13169C30.3269 8.13169 29.2579 8.3311 28.2688 8.69575C26.6232 7.5603 24.6284 6.89478 22.4778 6.89478C18.049 6.89478 14.2792 9.71499 12.8653 13.6573C9.45239 14.0482 6.80132 16.9451 6.80132 20.4626C6.80132 21.8318 7.20454 23.1061 7.89634 24.1763C6.40815 25.5494 5.47534 27.5154 5.47534 29.6999C5.47534 33.4637 8.24253 36.5811 11.8535 37.1291C11.9435 41.4462 15.4689 44.9189 19.8077 44.9189C21.6751 44.9189 23.391 44.274 24.7486 43.197C25.8179 44.1564 27.2309 44.7406 28.7806 44.7406C31.5604 44.7406 33.9001 42.8623 34.6039 40.3061C34.7597 40.3143 34.9167 40.3188 35.0746 40.3188C39.9495 40.3188 43.9014 36.3668 43.9014 31.4919C43.9014 29.7016 43.3668 28.0369 42.4508 26.6456C43.5483 25.7168 44.246 24.3299 44.246 22.7795Z" fill="#00707A"/>
<path d="M17.9801 32.354C17.2353 34.1195 16.2682 35.2343 13.8132 34.324C11.3582 33.4137 11.3306 31.5379 11.9099 29.6898C12.4892 27.8416 14.6499 20.8352 15.4223 18.8859C16.1947 16.9365 18.144 15.3183 19.9921 15.7044C21.8403 16.0907 22.916 17.2216 23.7436 17.0284C24.5711 16.8354 25.6469 15.0699 27.3847 15.0975C29.1225 15.125 29.2743 16.5456 30.1432 16.6147C31.0121 16.6837 31.7706 15.3458 34.2257 16.1734C36.6807 17.0009 36.5428 19.6214 35.7981 21.4144C35.0534 23.2073 33.0948 27.7588 32.5983 29.0001C32.1018 30.2414 31.9546 31.97 33.0029 32.3838C34.0511 32.7976 35.3935 32.6872 36.0371 33.1378C36.5139 33.4715 37.1406 35.1331 35.4947 35.5377C33.7136 35.9755 30.1708 35.7281 28.7365 33.1378C27.5779 31.1241 28.6813 29.1105 29.0399 28.3656C29.3985 27.6208 31.7967 22.6274 32.1018 21.8557C32.5707 20.6696 30.6156 19.626 29.8708 20.9777C28.9061 22.7285 25.1659 30.4016 24.7259 31.199C24.2522 32.0575 23.6262 32.5108 22.53 32.255C21.7568 32.0746 21.3452 31.0628 21.7025 29.9379C22.0328 28.8979 24.2016 23.6097 24.5351 22.728C25.0046 21.4866 22.8091 20.3462 22.0312 22.1791C21.3587 23.7636 18.2113 31.806 17.9801 32.354Z" fill="white"/>
<path d="M33.9002 36.6908C31.7859 36.6908 29.178 35.9433 27.886 33.6177C26.5344 31.2601 27.673 28.9366 28.1018 28.0614L28.1599 27.9421C28.8637 26.4804 30.9312 22.1599 31.1934 21.497C31.167 21.4507 31.0573 21.3569 30.9173 21.3447C30.8479 21.3379 30.7836 21.3449 30.7067 21.4843C30.2836 22.252 29.2855 24.2887 28.3202 26.2584C26.6326 29.7017 25.8047 31.3706 25.505 31.7965C25.1198 32.3437 24.0964 33.7973 22.2252 33.183C21.5955 32.9761 21.0945 32.5393 20.8143 31.9531C20.4836 31.2612 20.4746 30.4228 20.7888 29.5924C20.9912 29.0576 21.6538 27.3806 22.2945 25.7587C22.8954 24.2379 23.4629 22.8013 23.6213 22.3825C23.6125 22.3347 23.4874 22.2126 23.3237 22.1978C23.2666 22.1928 23.0925 22.1773 22.9298 22.5608C22.5043 23.5635 21.0682 27.2024 20.0196 29.8594C19.3475 31.5624 18.9632 32.5354 18.8797 32.7336C17.8296 35.2226 16.0233 36.0703 13.5108 35.2525C12.0304 34.7707 9.73297 33.3693 10.9778 29.3976C11.0504 29.1659 11.1772 28.7595 11.3243 28.2881C11.4846 27.7741 11.669 27.1831 11.8336 26.6565C11.9946 26.1418 12.5425 25.8551 13.0572 26.016C13.5719 26.1769 13.8587 26.7248 13.6977 27.2395C13.5332 27.7656 13.349 28.3562 13.1887 28.8696C13.0414 29.3421 12.9143 29.7494 12.8415 29.9817C12.0919 32.3733 13.0106 33.0357 14.1152 33.3953C15.6702 33.9012 16.4183 33.5428 17.08 31.9744C17.1588 31.7877 17.6425 30.5618 18.2027 29.1424C19.2551 26.4756 20.6965 22.8232 21.1319 21.7976C21.7798 20.2708 23.1569 20.0093 24.1624 20.4127C25.2784 20.8603 25.8431 22.0291 25.4481 23.0734C25.2846 23.5056 24.7145 24.9486 24.111 26.4763C23.4727 28.0917 22.8128 29.7621 22.6156 30.2835C22.4954 30.6011 22.4807 30.9104 22.5765 31.1108C22.6282 31.2188 22.7078 31.2856 22.8346 31.3272C23.1704 31.4376 23.3563 31.4558 23.9078 30.6722C24.1617 30.305 25.5515 27.4693 26.5664 25.3987C27.5867 23.3169 28.5503 21.3504 28.9961 20.5417C29.5755 19.4899 30.7894 19.1002 31.8828 19.6151C32.9354 20.1107 33.4094 21.2041 33.0099 22.2147C32.6673 23.081 30.0317 28.5566 29.9197 28.7892C29.9003 28.8296 29.8789 28.8734 29.8557 28.9207C29.4946 29.6577 28.7432 31.1913 29.583 32.6506C29.5856 32.6553 29.5882 32.6599 29.5908 32.6646C30.8009 34.85 33.9918 34.9013 35.2616 34.5893C35.3992 34.5554 35.5542 34.4936 35.5759 34.4213C35.6183 34.2809 35.523 34.0209 35.4482 33.9201C35.2628 33.8197 34.7689 33.7478 34.4028 33.6946C33.8545 33.6149 33.2333 33.5246 32.6442 33.2921C32.12 33.0851 31.7184 32.6874 31.4831 32.1416C31.0266 31.0833 31.2915 29.6376 31.6915 28.6374C31.9792 27.9181 32.7443 26.1186 33.4841 24.3783C34.047 23.0545 34.5787 21.8041 34.8961 21.0396C35.2508 20.1856 35.489 18.9624 35.0935 18.0909C34.8792 17.6185 34.4933 17.294 33.9137 17.0987C32.6412 16.6696 32.0351 16.9571 31.4489 17.2349C31.0566 17.4207 30.6119 17.6318 30.0659 17.5882C29.3343 17.5301 28.8924 17.0564 28.5698 16.7106C28.2176 16.3331 27.9849 16.0837 27.3692 16.0739C26.6344 16.0581 26.0089 16.5865 25.4044 17.0937C24.9376 17.4854 24.4965 17.8554 23.9653 17.9793C23.1936 18.1593 22.4977 17.8052 21.7609 17.4301C21.2005 17.1449 20.5654 16.8218 19.7922 16.6602C18.4453 16.3789 16.9147 17.7696 16.33 19.2454C16.2245 19.5119 16.1361 19.7509 16.0345 20.0443C15.8581 20.554 15.3021 20.8243 14.7922 20.6478C14.2826 20.4714 14.0124 19.9152 14.1887 19.4055C14.3002 19.0837 14.3974 18.8207 14.5141 18.526C15.4072 16.2724 17.7753 14.2428 20.1917 14.7484C21.2193 14.9631 22.0107 15.3658 22.6465 15.6894C22.952 15.8449 23.3658 16.0554 23.5267 16.0726C23.6573 16.0098 23.9397 15.7731 24.149 15.5974C24.9035 14.9646 25.9364 14.1002 27.4001 14.121C28.8463 14.1439 29.5671 14.9165 29.9978 15.3782C30.0772 15.4634 30.1804 15.574 30.2463 15.6297C30.3355 15.6011 30.4922 15.5267 30.6123 15.4699C31.3249 15.1321 32.5175 14.5667 34.5374 15.2479C35.6268 15.6151 36.434 16.3191 36.8718 17.2839C37.6725 19.0482 37.0181 21.0221 36.6996 21.7889C36.379 22.5608 35.8458 23.8149 35.2813 25.1426C34.5455 26.8734 33.7845 28.6632 33.5046 29.3629C33.2047 30.1127 33.1065 30.9748 33.2762 31.3681C33.3146 31.4571 33.3437 31.4685 33.3611 31.4755C33.7389 31.6246 34.2191 31.6944 34.6836 31.762C35.3915 31.8649 36.0601 31.9621 36.5969 32.3378C37.1738 32.7416 37.6832 33.7828 37.5002 34.7609C37.3396 35.6198 36.6935 36.2486 35.7276 36.4861C35.21 36.6132 34.5805 36.6907 33.9002 36.6908Z" fill="#00707A"/>
<path d="M13.9268 24.249C13.829 24.249 13.7295 24.2343 13.6314 24.203C13.1172 24.04 12.8326 23.4911 12.9956 22.9769L13.0154 22.9151C13.1802 22.4016 13.7303 22.119 14.2438 22.2838C14.7573 22.4486 15.0399 22.9986 14.875 23.5121L14.8574 23.5672C14.7256 23.9833 14.3411 24.249 13.9268 24.249Z" fill="#00707A"/>
<path d="M2.75674 25.0472C3.7399 25.0472 4.53691 24.2501 4.53691 23.267C4.53691 22.2838 3.7399 21.4868 2.75674 21.4868C1.77357 21.4868 0.976562 22.2838 0.976562 23.267C0.976562 24.2501 1.77357 25.0472 2.75674 25.0472Z" fill="#00707A"/>
<path d="M29.3484 4.88281C30.4271 4.88281 31.3015 4.00837 31.3015 2.92969C31.3015 1.85101 30.4271 0.976562 29.3484 0.976562C28.2697 0.976562 27.3953 1.85101 27.3953 2.92969C27.3953 4.00837 28.2697 4.88281 29.3484 4.88281Z" fill="#00707A"/>
<path d="M38.8086 47.1526C39.8873 47.1526 40.7617 46.2781 40.7617 45.1995C40.7617 44.1208 39.8873 43.2463 38.8086 43.2463C37.7299 43.2463 36.8555 44.1208 36.8555 45.1995C36.8555 46.2781 37.7299 47.1526 38.8086 47.1526Z" fill="#00707A"/>
<path d="M45.5173 16.6614C46.596 16.6614 47.4705 15.7869 47.4705 14.7083C47.4705 13.6296 46.596 12.7551 45.5173 12.7551C44.4387 12.7551 43.5642 13.6296 43.5642 14.7083C43.5642 15.7869 44.4387 16.6614 45.5173 16.6614Z" fill="#00707A"/>
<path d="M19.8076 45.8953C17.4541 45.8953 15.233 44.9877 13.5534 43.3398C12.066 41.8806 11.15 39.9857 10.928 37.9382C9.24585 37.5175 7.72095 36.5844 6.57251 35.26C5.2353 33.7178 4.49878 31.7431 4.49878 29.6997C4.49878 27.601 5.28569 25.5713 6.68003 24.0198C6.1186 22.922 5.82476 21.7066 5.82476 20.4625C5.82476 16.6846 8.50874 13.481 12.1597 12.7782C13.8913 8.65161 17.9655 5.91821 22.4778 5.91821C24.5904 5.91821 26.6295 6.50425 28.4063 7.61743C29.386 7.3103 30.4051 7.15503 31.4427 7.15503C37.0188 7.15503 41.5591 11.6746 41.5934 17.2427C43.7635 18.1907 45.2227 20.3685 45.2227 22.7794C45.2227 24.2765 44.6703 25.7037 43.6846 26.8045C44.4674 28.2387 44.8779 29.8435 44.8779 31.4917C44.8779 31.734 44.8689 31.9791 44.8512 32.2198C44.8118 32.7577 44.3443 33.16 43.8057 33.1222C43.2678 33.0827 42.8638 32.6146 42.9034 32.0767C42.9176 31.8833 42.9248 31.6866 42.9248 31.4917C42.9248 29.9541 42.4788 28.4639 41.635 27.1824C41.3633 26.7696 41.4427 26.219 41.82 25.8998C42.7413 25.1205 43.2696 23.9831 43.2696 22.7794C43.2696 20.9726 42.0583 19.3593 40.3242 18.8562C39.8838 18.7284 39.5917 18.3116 39.6218 17.854C39.6342 17.6656 39.6406 17.4812 39.6406 17.3059C39.6406 12.7857 35.963 9.10815 31.4428 9.10815C30.4676 9.10815 29.5135 9.27759 28.6068 9.61196C28.3086 9.72192 27.9757 9.67974 27.7143 9.49946C26.1706 8.43442 24.3598 7.87134 22.4779 7.87134C18.5902 7.87134 15.0966 10.3291 13.7845 13.987C13.659 14.3369 13.3458 14.5852 12.9764 14.6275C10.0127 14.967 7.77788 17.4755 7.77788 20.4626C7.77788 21.5955 8.10239 22.6962 8.71636 23.6461C8.97427 24.0452 8.90767 24.5718 8.55845 24.894C7.21968 26.1292 6.45181 27.881 6.45181 29.6998C6.45181 32.9047 8.83696 35.6835 11.9999 36.1634C12.4696 36.2346 12.8198 36.6335 12.8297 37.1085C12.9084 40.8766 16.0386 43.9422 19.8076 43.9422C21.3973 43.9422 22.8959 43.4199 24.1416 42.4318C24.5143 42.1361 25.0462 42.1521 25.4006 42.47C26.3306 43.3043 27.531 43.7639 28.7804 43.7639C31.0522 43.7639 33.0596 42.2354 33.6622 40.0468C33.7838 39.6049 34.1974 39.3066 34.6543 39.3308C34.7995 39.3383 34.9408 39.3421 35.0744 39.3421C36.6913 39.3421 38.2436 38.8548 39.5636 37.9328C40.0056 37.6239 40.6145 37.732 40.9234 38.1742C41.2323 38.6164 41.1242 39.2251 40.682 39.534C39.0943 40.6429 37.2382 41.2489 35.3011 41.2927C34.2512 43.932 31.6701 45.7171 28.7803 45.7171C27.3167 45.7171 25.9016 45.2621 24.7204 44.423C23.2624 45.3886 21.5792 45.8953 19.8076 45.8953ZM42.7218 36.8779C42.5553 36.8779 42.3867 36.8352 42.2324 36.7457C41.766 36.4749 41.6075 35.8772 41.8783 35.4108L41.8897 35.3911C42.1567 34.9224 42.7531 34.7588 43.2216 35.0261C43.6902 35.2931 43.8537 35.8896 43.5866 36.3582L43.5673 36.3916C43.386 36.7035 43.0584 36.8779 42.7218 36.8779Z" fill="#00707A"/>
<path d="M49.0236 21.835H49.0105C48.4711 21.835 48.0339 21.3977 48.0339 20.8584C48.0339 20.3191 48.4711 19.8818 49.0105 19.8818H49.0236C49.5629 19.8818 50.0001 20.3191 50.0001 20.8584C50.0001 21.3977 49.5629 21.835 49.0236 21.835Z" fill="#00707A"/>
<path d="M15.4096 2.98633H15.3965C14.8571 2.98633 14.4199 2.54902 14.4199 2.00976C14.4199 1.47051 14.8571 1.0332 15.3965 1.0332H15.4096C15.9489 1.0332 16.3861 1.47051 16.3861 2.00976C16.3861 2.54902 15.9489 2.98633 15.4096 2.98633Z" fill="#00707A"/>
<path d="M8.97598 40.4746H8.96289C8.42354 40.4746 7.98633 40.0373 7.98633 39.498C7.98633 38.9588 8.42354 38.5215 8.96289 38.5215H8.97598C9.51533 38.5215 9.95254 38.9588 9.95254 39.498C9.95254 40.0373 9.51533 40.4746 8.97598 40.4746Z" fill="#00707A"/>
<path d="M24.5331 47.8569H24.52C23.9807 47.8569 23.5435 47.4196 23.5435 46.8804C23.5435 46.3411 23.9807 45.9038 24.52 45.9038H24.5331C25.0725 45.9038 25.5097 46.3411 25.5097 46.8804C25.5097 47.4196 25.0725 47.8569 24.5331 47.8569Z" fill="#00707A"/>
<path d="M46.7873 28.1682H46.7742C46.2348 28.1682 45.7976 27.7309 45.7976 27.1917C45.7976 26.6524 46.2348 26.2151 46.7742 26.2151H46.7873C47.3266 26.2151 47.7638 26.6524 47.7638 27.1917C47.7638 27.7309 47.3266 28.1682 46.7873 28.1682Z" fill="#00707A"/>
<path d="M10.9887 11.2366H10.9756C10.4362 11.2366 9.99902 10.7993 9.99902 10.26C9.99902 9.72075 10.4362 9.28345 10.9756 9.28345H10.9887C11.528 9.28345 11.9652 9.72075 11.9652 10.26C11.9652 10.7993 11.528 11.2366 10.9887 11.2366Z" fill="#00707A"/>
<path d="M2.75674 26.0237C1.23672 26.0237 0 24.787 0 23.267C0 21.747 1.23672 20.5103 2.75674 20.5103C4.27676 20.5103 5.51348 21.7469 5.51348 23.267C5.51348 24.7871 4.27676 26.0237 2.75674 26.0237ZM2.75674 22.4634C2.31357 22.4634 1.95312 22.8238 1.95312 23.267C1.95312 23.7102 2.31357 24.0706 2.75674 24.0706C3.1999 24.0706 3.56035 23.7102 3.56035 23.267C3.56035 22.8238 3.1999 22.4634 2.75674 22.4634Z" fill="#00707A"/>
<path d="M29.3486 5.85938C27.7332 5.85938 26.4189 4.54512 26.4189 2.92969C26.4189 1.31426 27.7332 0 29.3486 0C30.9641 0 32.2783 1.31426 32.2783 2.92969C32.2783 4.54512 30.9641 5.85938 29.3486 5.85938ZM29.3486 1.95313C28.8102 1.95313 28.3721 2.39121 28.3721 2.92969C28.3721 3.46817 28.8102 3.90625 29.3486 3.90625C29.8871 3.90625 30.3252 3.46817 30.3252 2.92969C30.3252 2.39121 29.8871 1.95313 29.3486 1.95313Z" fill="#00707A"/>
<path d="M38.8083 48.1294C37.1929 48.1294 35.8787 46.8151 35.8787 45.1997C35.8787 43.5843 37.1929 42.27 38.8083 42.27C40.4238 42.27 41.738 43.5843 41.738 45.1997C41.738 46.8151 40.4238 48.1294 38.8083 48.1294ZM38.8083 44.2231C38.2699 44.2231 37.8318 44.6612 37.8318 45.1997C37.8318 45.7382 38.2699 46.1763 38.8083 46.1763C39.3468 46.1763 39.7849 45.7382 39.7849 45.1997C39.7849 44.6612 39.3468 44.2231 38.8083 44.2231Z" fill="#00707A"/>
<path d="M45.5176 17.6382C43.9021 17.6382 42.5879 16.3239 42.5879 14.7085C42.5879 13.0931 43.9021 11.7788 45.5176 11.7788C47.133 11.7788 48.4473 13.0931 48.4473 14.7085C48.4473 16.3239 47.133 17.6382 45.5176 17.6382ZM45.5176 13.7319C44.9791 13.7319 44.541 14.17 44.541 14.7085C44.541 15.247 44.9791 15.6851 45.5176 15.6851C46.0561 15.6851 46.4941 15.247 46.4941 14.7085C46.4941 14.17 46.0561 13.7319 45.5176 13.7319Z" fill="#00707A"/>
</svg>
