<svg width="2722" height="512" viewBox="0 0 2722 512" fill="none" xmlns="http://www.w3.org/2000/svg">
<path d="M128 464C154.51 464 176 442.51 176 416C176 389.49 154.51 368 128 368C101.49 368 80 389.49 80 416C80 442.51 101.49 464 128 464Z" stroke="#FF8AE2" stroke-width="32" stroke-linecap="round" stroke-linejoin="round"/>
<path d="M128 144V368" stroke="#FF8AE2" stroke-width="32" stroke-linecap="round" stroke-linejoin="round"/>
<path d="M288 160L224 96L288 32" stroke="#FF8AE2" stroke-width="32" stroke-linecap="round" stroke-linejoin="round"/>
<path d="M128 144C154.51 144 176 122.51 176 96C176 69.4903 154.51 48 128 48C101.49 48 80 69.4903 80 96C80 122.51 101.49 144 128 144Z" stroke="#FF8AE2" stroke-width="32" stroke-linecap="round" stroke-linejoin="round"/>
<path d="M384 464C410.51 464 432 442.51 432 416C432 389.49 410.51 368 384 368C357.49 368 336 389.49 336 416C336 442.51 357.49 464 384 464Z" stroke="#FF8AE2" stroke-width="32" stroke-linecap="round" stroke-linejoin="round"/>
<path d="M240 96H324C339.913 96 355.174 102.321 366.426 113.574C377.679 124.826 384 140.087 384 156V368" stroke="#FF8AE2" stroke-width="32" stroke-linecap="round" stroke-linejoin="round"/>
<path d="M587.697 390H748.469V344.591H666.651V343.364L686.287 327C734.049 287.216 746.219 266.557 746.219 242.318C746.219 203.25 714.208 177.682 663.992 177.682C615.208 177.682 583.503 204.784 583.606 248.864H637.606C637.503 231.273 648.242 221.455 663.992 221.455C679.64 221.455 690.787 231.17 690.787 247.227C690.787 262.057 681.276 271.67 665.833 284.455L587.697 349.091V390ZM779.186 243.136C779.186 272.182 798.822 293.045 830.731 293.045C862.231 293.045 881.459 272.182 881.459 243.136V232.5C881.459 203.045 861.822 182.182 830.322 182.182C799.231 182.182 779.186 203.045 779.186 232.5V243.136ZM804.959 232.5C804.959 216.136 813.55 203.045 830.322 203.045C847.504 203.045 855.686 216.136 855.686 232.5V243.136C855.686 259.909 847.504 272.182 830.731 272.182C813.55 272.182 804.959 259.909 804.959 243.136V232.5ZM969.559 448.909H1026.01V364.227H1026.83C1033.38 380.182 1048.51 392.045 1070.6 392.045C1104.15 392.045 1132.38 365.864 1132.38 311.455C1132.38 254.591 1102.1 230.864 1071.01 230.864C1047.7 230.864 1032.97 244.364 1026.83 260.318H1025.6V232.909H969.559V448.909ZM1024.79 311.455C1024.79 288.136 1034.2 274.227 1049.74 274.227C1065.29 274.227 1074.29 288.136 1074.29 311.455C1074.29 334.773 1065.29 348.682 1049.74 348.682C1034.2 348.682 1024.79 334.364 1024.79 311.455ZM1255.01 321.273C1255.11 336.818 1246.11 346.227 1232.1 346.227C1217.89 346.227 1209.7 336.818 1209.6 321.273V232.909H1153.15V333.136C1153.25 367.5 1174.93 392.045 1207.97 392.045C1231.39 392.045 1249.39 380.182 1256.24 360.136H1257.88V390H1311.47V232.909H1255.01V321.273ZM1393.75 180.545H1337.3V390H1393.75V180.545ZM1476.09 180.545H1419.64V390H1476.09V180.545ZM1610.97 390H1667.42V308.182C1667.42 290.182 1679.8 278.318 1696.47 278.318C1702.3 278.318 1711.71 279.239 1717.33 281.182V233.011C1712.83 231.682 1707.92 230.864 1703.01 230.864C1686.24 230.864 1673.15 240.682 1667.42 262.773H1665.79V232.909H1610.97V390ZM1799.23 392.864C1842.8 392.864 1870.83 372 1876.14 339.273H1824.6C1821.33 348.17 1812.02 353.182 1800.46 353.182C1783.69 353.182 1773.87 342.136 1773.87 327V324.545H1876.14V311.455C1876.14 261.443 1845.46 230.864 1798.01 230.864C1749.33 230.864 1718.23 263.182 1718.23 311.864C1718.23 362.693 1748.92 392.864 1799.23 392.864ZM1773.87 293.455C1774.18 279.852 1785.43 270.545 1799.23 270.545C1813.25 270.545 1823.88 279.955 1824.19 293.455H1773.87ZM2054.21 448.909V232.909H1998.16V260.318H1996.94C1990.8 244.364 1976.07 230.864 1952.76 230.864C1921.66 230.864 1891.39 254.591 1891.39 311.455C1891.39 365.864 1919.62 392.045 1953.16 392.045C1975.26 392.045 1990.39 380.182 1996.94 364.227H1997.76V448.909H2054.21ZM1998.98 311.455C1998.98 334.364 1989.57 348.682 1974.03 348.682C1958.48 348.682 1949.48 334.773 1949.48 311.455C1949.48 288.136 1958.48 274.227 1974.03 274.227C1989.57 274.227 1998.98 288.136 1998.98 311.455ZM2181.75 321.273C2181.86 336.818 2172.86 346.227 2158.84 346.227C2144.63 346.227 2136.45 336.818 2136.34 321.273V232.909H2079.89V333.136C2079.99 367.5 2101.67 392.045 2134.71 392.045C2158.13 392.045 2176.13 380.182 2182.98 360.136H2184.62V390H2238.21V232.909H2181.75V321.273ZM2339.31 392.864C2382.88 392.864 2410.9 372 2416.22 339.273H2364.68C2361.4 348.17 2352.1 353.182 2340.54 353.182C2323.77 353.182 2313.95 342.136 2313.95 327V324.545H2416.22V311.455C2416.22 261.443 2385.54 230.864 2338.09 230.864C2289.4 230.864 2258.31 263.182 2258.31 311.864C2258.31 362.693 2289 392.864 2339.31 392.864ZM2313.95 293.455C2314.26 279.852 2325.51 270.545 2339.31 270.545C2353.32 270.545 2363.96 279.955 2364.27 293.455H2313.95ZM2579.97 284.045C2578.54 250.807 2550.92 230.864 2505.52 230.864C2460.62 230.864 2432.9 249.273 2433.11 282C2432.9 306.75 2448.96 322.602 2480.97 328.227L2508.79 333.136C2521.06 335.386 2526.58 338.659 2526.79 344.591C2526.58 351.136 2519.12 354.818 2508.79 354.818C2496 354.818 2487 349.295 2485.47 339.273H2429.42C2432.49 371.489 2460.31 392.864 2508.38 392.864C2551.85 392.864 2583.86 371.693 2584.06 338.045C2583.86 314.83 2568.31 301.33 2536.2 295.5L2504.29 289.773C2492.32 287.625 2488.95 283.33 2489.15 278.727C2488.95 272.182 2497.03 268.5 2506.74 268.5C2517.89 268.5 2527.2 274.432 2528.02 284.045H2579.97ZM2696.49 232.909H2669.49V195.273H2613.04V232.909H2592.99V273.818H2613.04V344.795C2612.63 377.727 2632.98 394.398 2671.95 392.25C2684.73 391.534 2694.24 388.875 2699.36 387.341L2691.18 347.659C2689.03 348.17 2683.51 349.295 2680.13 349.295C2672.77 349.295 2669.49 346.023 2669.49 339.477V273.818H2696.49V232.909Z" fill="#FF8AE2"/>
</svg>
