<svg width="2660" height="512" viewBox="0 0 2660 512" fill="none" xmlns="http://www.w3.org/2000/svg">
<path d="M128 464C154.51 464 176 442.51 176 416C176 389.49 154.51 368 128 368C101.49 368 80 389.49 80 416C80 442.51 101.49 464 128 464Z" stroke="#FF8AE2" stroke-width="32" stroke-linecap="round" stroke-linejoin="round"/>
<path d="M128 144V368" stroke="#FF8AE2" stroke-width="32" stroke-linecap="round" stroke-linejoin="round"/>
<path d="M288 160L224 96L288 32" stroke="#FF8AE2" stroke-width="32" stroke-linecap="round" stroke-linejoin="round"/>
<path d="M128 144C154.51 144 176 122.51 176 96C176 69.4903 154.51 48 128 48C101.49 48 80 69.4903 80 96C80 122.51 101.49 144 128 144Z" stroke="#FF8AE2" stroke-width="32" stroke-linecap="round" stroke-linejoin="round"/>
<path d="M384 464C410.51 464 432 442.51 432 416C432 389.49 410.51 368 384 368C357.49 368 336 389.49 336 416C336 442.51 357.49 464 384 464Z" stroke="#FF8AE2" stroke-width="32" stroke-linecap="round" stroke-linejoin="round"/>
<path d="M240 96H324C339.913 96 355.174 102.321 366.426 113.574C377.679 124.826 384 140.087 384 156V368" stroke="#FF8AE2" stroke-width="32" stroke-linecap="round" stroke-linejoin="round"/>
<path d="M679.628 180.545H627.265L575.719 212.045V260.318L621.537 232.909H622.765V390H679.628V180.545ZM727.936 243.136C727.936 272.182 747.572 293.045 779.481 293.045C810.981 293.045 830.209 272.182 830.209 243.136V232.5C830.209 203.045 810.572 182.182 779.072 182.182C747.981 182.182 727.936 203.045 727.936 232.5V243.136ZM753.709 232.5C753.709 216.136 762.3 203.045 779.072 203.045C796.254 203.045 804.436 216.136 804.436 232.5V243.136C804.436 259.909 796.254 272.182 779.481 272.182C762.3 272.182 753.709 259.909 753.709 243.136V232.5ZM918.309 448.909H974.764V364.227H975.582C982.128 380.182 997.264 392.045 1019.35 392.045C1052.9 392.045 1081.13 365.864 1081.13 311.455C1081.13 254.591 1050.85 230.864 1019.76 230.864C996.446 230.864 981.718 244.364 975.582 260.318H974.355V232.909H918.309V448.909ZM973.537 311.455C973.537 288.136 982.946 274.227 998.491 274.227C1014.04 274.227 1023.04 288.136 1023.04 311.455C1023.04 334.773 1014.04 348.682 998.491 348.682C982.946 348.682 973.537 334.364 973.537 311.455ZM1203.76 321.273C1203.86 336.818 1194.86 346.227 1180.85 346.227C1166.64 346.227 1158.45 336.818 1158.35 321.273V232.909H1101.9V333.136C1102 367.5 1123.68 392.045 1156.72 392.045C1180.14 392.045 1198.14 380.182 1204.99 360.136H1206.63V390H1260.22V232.909H1203.76V321.273ZM1342.5 180.545H1286.05V390H1342.5V180.545ZM1424.84 180.545H1368.39V390H1424.84V180.545ZM1559.72 390H1616.17V308.182C1616.17 290.182 1628.55 278.318 1645.22 278.318C1651.05 278.318 1660.46 279.239 1666.08 281.182V233.011C1661.58 231.682 1656.67 230.864 1651.76 230.864C1634.99 230.864 1621.9 240.682 1616.17 262.773H1614.54V232.909H1559.72V390ZM1747.98 392.864C1791.55 392.864 1819.58 372 1824.89 339.273H1773.35C1770.08 348.17 1760.77 353.182 1749.21 353.182C1732.44 353.182 1722.62 342.136 1722.62 327V324.545H1824.89V311.455C1824.89 261.443 1794.21 230.864 1746.76 230.864C1698.08 230.864 1666.98 263.182 1666.98 311.864C1666.98 362.693 1697.67 392.864 1747.98 392.864ZM1722.62 293.455C1722.93 279.852 1734.18 270.545 1747.98 270.545C1762 270.545 1772.63 279.955 1772.94 293.455H1722.62ZM2002.96 448.909V232.909H1946.91V260.318H1945.69C1939.55 244.364 1924.82 230.864 1901.51 230.864C1870.41 230.864 1840.14 254.591 1840.14 311.455C1840.14 365.864 1868.37 392.045 1901.91 392.045C1924.01 392.045 1939.14 380.182 1945.69 364.227H1946.51V448.909H2002.96ZM1947.73 311.455C1947.73 334.364 1938.32 348.682 1922.78 348.682C1907.23 348.682 1898.23 334.773 1898.23 311.455C1898.23 288.136 1907.23 274.227 1922.78 274.227C1938.32 274.227 1947.73 288.136 1947.73 311.455ZM2130.5 321.273C2130.61 336.818 2121.61 346.227 2107.59 346.227C2093.38 346.227 2085.2 336.818 2085.09 321.273V232.909H2028.64V333.136C2028.74 367.5 2050.42 392.045 2083.46 392.045C2106.88 392.045 2124.88 380.182 2131.73 360.136H2133.37V390H2186.96V232.909H2130.5V321.273ZM2288.06 392.864C2331.63 392.864 2359.65 372 2364.97 339.273H2313.43C2310.15 348.17 2300.85 353.182 2289.29 353.182C2272.52 353.182 2262.7 342.136 2262.7 327V324.545H2364.97V311.455C2364.97 261.443 2334.29 230.864 2286.84 230.864C2238.15 230.864 2207.06 263.182 2207.06 311.864C2207.06 362.693 2237.75 392.864 2288.06 392.864ZM2262.7 293.455C2263.01 279.852 2274.26 270.545 2288.06 270.545C2302.07 270.545 2312.71 279.955 2313.02 293.455H2262.7ZM2528.72 284.045C2527.29 250.807 2499.67 230.864 2454.27 230.864C2409.37 230.864 2381.65 249.273 2381.86 282C2381.65 306.75 2397.71 322.602 2429.72 328.227L2457.54 333.136C2469.81 335.386 2475.33 338.659 2475.54 344.591C2475.33 351.136 2467.87 354.818 2457.54 354.818C2444.75 354.818 2435.75 349.295 2434.22 339.273H2378.17C2381.24 371.489 2409.06 392.864 2457.13 392.864C2500.6 392.864 2532.61 371.693 2532.81 338.045C2532.61 314.83 2517.06 301.33 2484.95 295.5L2453.04 289.773C2441.07 287.625 2437.7 283.33 2437.9 278.727C2437.7 272.182 2445.78 268.5 2455.49 268.5C2466.64 268.5 2475.95 274.432 2476.77 284.045H2528.72ZM2645.24 232.909H2618.24V195.273H2561.79V232.909H2541.74V273.818H2561.79V344.795C2561.38 377.727 2581.73 394.398 2620.7 392.25C2633.48 391.534 2642.99 388.875 2648.11 387.341L2639.93 347.659C2637.78 348.17 2632.26 349.295 2628.88 349.295C2621.52 349.295 2618.24 346.023 2618.24 339.477V273.818H2645.24V232.909Z" fill="#FF8AE2"/>
</svg>
