<svg width="2738" height="512" viewBox="0 0 2738 512" fill="none" xmlns="http://www.w3.org/2000/svg">
<path d="M128 464C154.51 464 176 442.51 176 416C176 389.49 154.51 368 128 368C101.49 368 80 389.49 80 416C80 442.51 101.49 464 128 464Z" stroke="#FF8AE2" stroke-width="32" stroke-linecap="round" stroke-linejoin="round"/>
<path d="M128 144V368" stroke="#FF8AE2" stroke-width="32" stroke-linecap="round" stroke-linejoin="round"/>
<path d="M288 160L224 96L288 32" stroke="#FF8AE2" stroke-width="32" stroke-linecap="round" stroke-linejoin="round"/>
<path d="M128 144C154.51 144 176 122.51 176 96C176 69.4903 154.51 48 128 48C101.49 48 80 69.4903 80 96C80 122.51 101.49 144 128 144Z" stroke="#FF8AE2" stroke-width="32" stroke-linecap="round" stroke-linejoin="round"/>
<path d="M384 464C410.51 464 432 442.51 432 416C432 389.49 410.51 368 384 368C357.49 368 336 389.49 336 416C336 442.51 357.49 464 384 464Z" stroke="#FF8AE2" stroke-width="32" stroke-linecap="round" stroke-linejoin="round"/>
<path d="M240 96H324C339.913 96 355.174 102.321 366.426 113.574C377.679 124.826 384 140.087 384 156V368" stroke="#FF8AE2" stroke-width="32" stroke-linecap="round" stroke-linejoin="round"/>
<path d="M585.635 357.273H687.499V390H741.908V357.273H766.045V313.091H741.908V180.545H669.908L585.635 313.091V357.273ZM688.726 313.091H641.681V311.455L687.09 239.455H688.726V313.091ZM795.202 243.136C795.202 272.182 814.838 293.045 846.747 293.045C878.247 293.045 897.474 272.182 897.474 243.136V232.5C897.474 203.045 877.838 182.182 846.338 182.182C815.247 182.182 795.202 203.045 795.202 232.5V243.136ZM820.974 232.5C820.974 216.136 829.565 203.045 846.338 203.045C863.52 203.045 871.702 216.136 871.702 232.5V243.136C871.702 259.909 863.52 272.182 846.747 272.182C829.565 272.182 820.974 259.909 820.974 243.136V232.5ZM985.575 448.909H1042.03V364.227H1042.85C1049.39 380.182 1064.53 392.045 1086.62 392.045C1120.17 392.045 1148.39 365.864 1148.39 311.455C1148.39 254.591 1118.12 230.864 1087.03 230.864C1063.71 230.864 1048.98 244.364 1042.85 260.318H1041.62V232.909H985.575V448.909ZM1040.8 311.455C1040.8 288.136 1050.21 274.227 1065.76 274.227C1081.3 274.227 1090.3 288.136 1090.3 311.455C1090.3 334.773 1081.3 348.682 1065.76 348.682C1050.21 348.682 1040.8 334.364 1040.8 311.455ZM1271.03 321.273C1271.13 336.818 1262.13 346.227 1248.12 346.227C1233.9 346.227 1225.72 336.818 1225.62 321.273V232.909H1169.16V333.136C1169.27 367.5 1190.95 392.045 1223.98 392.045C1247.4 392.045 1265.4 380.182 1272.25 360.136H1273.89V390H1327.48V232.909H1271.03V321.273ZM1409.77 180.545H1353.32V390H1409.77V180.545ZM1492.11 180.545H1435.65V390H1492.11V180.545ZM1626.98 390H1683.44V308.182C1683.44 290.182 1695.81 278.318 1712.48 278.318C1718.31 278.318 1727.72 279.239 1733.35 281.182V233.011C1728.85 231.682 1723.94 230.864 1719.03 230.864C1702.26 230.864 1689.16 240.682 1683.44 262.773H1681.8V232.909H1626.98V390ZM1815.25 392.864C1858.82 392.864 1886.84 372 1892.16 339.273H1840.61C1837.34 348.17 1828.03 353.182 1816.48 353.182C1799.7 353.182 1789.89 342.136 1789.89 327V324.545H1892.16V311.455C1892.16 261.443 1861.48 230.864 1814.02 230.864C1765.34 230.864 1734.25 263.182 1734.25 311.864C1734.25 362.693 1764.93 392.864 1815.25 392.864ZM1789.89 293.455C1790.19 279.852 1801.44 270.545 1815.25 270.545C1829.26 270.545 1839.9 279.955 1840.2 293.455H1789.89ZM2070.23 448.909V232.909H2014.18V260.318H2012.95C2006.82 244.364 1992.09 230.864 1968.77 230.864C1937.68 230.864 1907.41 254.591 1907.41 311.455C1907.41 365.864 1935.63 392.045 1969.18 392.045C1991.27 392.045 2006.41 380.182 2012.95 364.227H2013.77V448.909H2070.23ZM2015 311.455C2015 334.364 2005.59 348.682 1990.04 348.682C1974.5 348.682 1965.5 334.773 1965.5 311.455C1965.5 288.136 1974.5 274.227 1990.04 274.227C2005.59 274.227 2015 288.136 2015 311.455ZM2197.77 321.273C2197.87 336.818 2188.87 346.227 2174.86 346.227C2160.64 346.227 2152.46 336.818 2152.36 321.273V232.909H2095.9V333.136C2096.01 367.5 2117.69 392.045 2150.72 392.045C2174.14 392.045 2192.14 380.182 2199 360.136H2200.63V390H2254.22V232.909H2197.77V321.273ZM2355.33 392.864C2398.9 392.864 2426.92 372 2432.24 339.273H2380.69C2377.42 348.17 2368.11 353.182 2356.56 353.182C2339.78 353.182 2329.97 342.136 2329.97 327V324.545H2432.24V311.455C2432.24 261.443 2401.56 230.864 2354.1 230.864C2305.42 230.864 2274.33 263.182 2274.33 311.864C2274.33 362.693 2305.01 392.864 2355.33 392.864ZM2329.97 293.455C2330.27 279.852 2341.52 270.545 2355.33 270.545C2369.34 270.545 2379.98 279.955 2380.28 293.455H2329.97ZM2595.99 284.045C2594.55 250.807 2566.94 230.864 2521.53 230.864C2476.63 230.864 2448.92 249.273 2449.12 282C2448.92 306.75 2464.97 322.602 2496.99 328.227L2524.8 333.136C2537.08 335.386 2542.6 338.659 2542.8 344.591C2542.6 351.136 2535.13 354.818 2524.8 354.818C2512.02 354.818 2503.02 349.295 2501.49 339.273H2445.44C2448.51 371.489 2476.33 392.864 2524.4 392.864C2567.86 392.864 2599.87 371.693 2600.08 338.045C2599.87 314.83 2584.33 301.33 2552.21 295.5L2520.3 289.773C2508.34 287.625 2504.96 283.33 2505.17 278.727C2504.96 272.182 2513.04 268.5 2522.76 268.5C2533.91 268.5 2543.21 274.432 2544.03 284.045H2595.99ZM2712.51 232.909H2685.51V195.273H2629.05V232.909H2609.01V273.818H2629.05V344.795C2628.65 377.727 2649 394.398 2687.96 392.25C2700.75 391.534 2710.26 388.875 2715.37 387.341L2707.19 347.659C2705.04 348.17 2699.52 349.295 2696.15 349.295C2688.78 349.295 2685.51 346.023 2685.51 339.477V273.818H2712.51V232.909Z" fill="#FF8AE2"/>
</svg>
