<svg width="2738" height="512" viewBox="0 0 2738 512" fill="none" xmlns="http://www.w3.org/2000/svg">
<path d="M128 464C154.51 464 176 442.51 176 416C176 389.49 154.51 368 128 368C101.49 368 80 389.49 80 416C80 442.51 101.49 464 128 464Z" stroke="#FF8AE2" stroke-width="32" stroke-linecap="round" stroke-linejoin="round"/>
<path d="M128 144V368" stroke="#FF8AE2" stroke-width="32" stroke-linecap="round" stroke-linejoin="round"/>
<path d="M288 160L224 96L288 32" stroke="#FF8AE2" stroke-width="32" stroke-linecap="round" stroke-linejoin="round"/>
<path d="M128 144C154.51 144 176 122.51 176 96C176 69.4903 154.51 48 128 48C101.49 48 80 69.4903 80 96C80 122.51 101.49 144 128 144Z" stroke="#FF8AE2" stroke-width="32" stroke-linecap="round" stroke-linejoin="round"/>
<path d="M384 464C410.51 464 432 442.51 432 416C432 389.49 410.51 368 384 368C357.49 368 336 389.49 336 416C336 442.51 357.49 464 384 464Z" stroke="#FF8AE2" stroke-width="32" stroke-linecap="round" stroke-linejoin="round"/>
<path d="M240 96H324C339.913 96 355.174 102.321 366.426 113.574C377.679 124.826 384 140.087 384 156V368" stroke="#FF8AE2" stroke-width="32" stroke-linecap="round" stroke-linejoin="round"/>
<path d="M673.437 392.864C724.675 392.864 760.778 366.784 760.573 329.864C760.778 304.193 743.596 286.091 709.846 282.409V280.773C734.8 278.114 753.005 262.057 752.8 238.636C753.005 203.352 720.278 177.682 673.846 177.682C626.391 177.682 592.641 204.784 592.437 243.136H646.846C647.05 230.455 658.198 221.455 673.846 221.455C688.164 221.455 698.187 230.148 697.982 242.318C698.187 255 686.323 264 669.346 264H648.073V303.273H669.346C687.755 303.273 700.641 312.273 700.437 324.955C700.641 337.943 689.596 347.045 673.846 347.045C657.482 347.045 645.823 338.352 645.618 326.182H588.346C588.55 365.25 623.834 392.864 673.437 392.864ZM791.264 243.136C791.264 272.182 810.9 293.045 842.809 293.045C874.309 293.045 893.537 272.182 893.537 243.136V232.5C893.537 203.045 873.9 182.182 842.4 182.182C811.309 182.182 791.264 203.045 791.264 232.5V243.136ZM817.037 232.5C817.037 216.136 825.628 203.045 842.4 203.045C859.582 203.045 867.764 216.136 867.764 232.5V243.136C867.764 259.909 859.582 272.182 842.809 272.182C825.628 272.182 817.037 259.909 817.037 243.136V232.5ZM981.638 448.909H1038.09V364.227H1038.91C1045.46 380.182 1060.59 392.045 1082.68 392.045C1116.23 392.045 1144.46 365.864 1144.46 311.455C1144.46 254.591 1114.18 230.864 1083.09 230.864C1059.77 230.864 1045.05 244.364 1038.91 260.318H1037.68V232.909H981.638V448.909ZM1036.86 311.455C1036.86 288.136 1046.27 274.227 1061.82 274.227C1077.36 274.227 1086.36 288.136 1086.36 311.455C1086.36 334.773 1077.36 348.682 1061.82 348.682C1046.27 348.682 1036.86 334.364 1036.86 311.455ZM1267.09 321.273C1267.19 336.818 1258.19 346.227 1244.18 346.227C1229.96 346.227 1221.78 336.818 1221.68 321.273V232.909H1165.23V333.136C1165.33 367.5 1187.01 392.045 1220.04 392.045C1243.46 392.045 1261.46 380.182 1268.32 360.136H1269.95V390H1323.54V232.909H1267.09V321.273ZM1405.83 180.545H1349.38V390H1405.83V180.545ZM1488.17 180.545H1431.72V390H1488.17V180.545ZM1623.04 390H1679.5V308.182C1679.5 290.182 1691.87 278.318 1708.54 278.318C1714.37 278.318 1723.78 279.239 1729.41 281.182V233.011C1724.91 231.682 1720 230.864 1715.09 230.864C1698.32 230.864 1685.23 240.682 1679.5 262.773H1677.86V232.909H1623.04V390ZM1811.31 392.864C1854.88 392.864 1882.9 372 1888.22 339.273H1836.68C1833.4 348.17 1824.1 353.182 1812.54 353.182C1795.77 353.182 1785.95 342.136 1785.95 327V324.545H1888.22V311.455C1888.22 261.443 1857.54 230.864 1810.09 230.864C1761.4 230.864 1730.31 263.182 1730.31 311.864C1730.31 362.693 1760.99 392.864 1811.31 392.864ZM1785.95 293.455C1786.26 279.852 1797.51 270.545 1811.31 270.545C1825.32 270.545 1835.96 279.955 1836.27 293.455H1785.95ZM2066.29 448.909V232.909H2010.24V260.318H2009.02C2002.88 244.364 1988.15 230.864 1964.83 230.864C1933.74 230.864 1903.47 254.591 1903.47 311.455C1903.47 365.864 1931.7 392.045 1965.24 392.045C1987.33 392.045 2002.47 380.182 2009.02 364.227H2009.83V448.909H2066.29ZM2011.06 311.455C2011.06 334.364 2001.65 348.682 1986.11 348.682C1970.56 348.682 1961.56 334.773 1961.56 311.455C1961.56 288.136 1970.56 274.227 1986.11 274.227C2001.65 274.227 2011.06 288.136 2011.06 311.455ZM2193.83 321.273C2193.93 336.818 2184.93 346.227 2170.92 346.227C2156.71 346.227 2148.52 336.818 2148.42 321.273V232.909H2091.97V333.136C2092.07 367.5 2113.75 392.045 2146.79 392.045C2170.21 392.045 2188.21 380.182 2195.06 360.136H2196.69V390H2250.29V232.909H2193.83V321.273ZM2351.39 392.864C2394.96 392.864 2422.98 372 2428.3 339.273H2376.76C2373.48 348.17 2364.18 353.182 2352.62 353.182C2335.85 353.182 2326.03 342.136 2326.03 327V324.545H2428.3V311.455C2428.3 261.443 2397.62 230.864 2350.16 230.864C2301.48 230.864 2270.39 263.182 2270.39 311.864C2270.39 362.693 2301.07 392.864 2351.39 392.864ZM2326.03 293.455C2326.33 279.852 2337.58 270.545 2351.39 270.545C2365.4 270.545 2376.04 279.955 2376.35 293.455H2326.03ZM2592.05 284.045C2590.62 250.807 2563 230.864 2517.59 230.864C2472.7 230.864 2444.98 249.273 2445.18 282C2444.98 306.75 2461.04 322.602 2493.05 328.227L2520.87 333.136C2533.14 335.386 2538.66 338.659 2538.87 344.591C2538.66 351.136 2531.2 354.818 2520.87 354.818C2508.08 354.818 2499.08 349.295 2497.55 339.273H2441.5C2444.57 371.489 2472.39 392.864 2520.46 392.864C2563.92 392.864 2595.93 371.693 2596.14 338.045C2595.93 314.83 2580.39 301.33 2548.28 295.5L2516.37 289.773C2504.4 287.625 2501.03 283.33 2501.23 278.727C2501.03 272.182 2509.11 268.5 2518.82 268.5C2529.97 268.5 2539.28 274.432 2540.09 284.045H2592.05ZM2708.57 232.909H2681.57V195.273H2625.12V232.909H2605.07V273.818H2625.12V344.795C2624.71 377.727 2645.06 394.398 2684.03 392.25C2696.81 391.534 2706.32 388.875 2711.44 387.341L2703.25 347.659C2701.11 348.17 2695.58 349.295 2692.21 349.295C2684.84 349.295 2681.57 346.023 2681.57 339.477V273.818H2708.57V232.909Z" fill="#FF8AE2"/>
</svg>
